<?xml version="1.0" encoding="UTF-8" standalone="no"?>
<svg
   viewBox="0 0 630 382"
   fill="#000000"
   version="1.1"
   id="svg112"
   sodipodi:docname="logo-fjr-4-national-blanc-fond-transparent.svg"
   inkscape:export-filename="../../fond-coloré/vectoriel/logo-fjr-4-national-transparent-et-noir.svg"
   inkscape:export-xdpi="96"
   inkscape:export-ydpi="96"
   inkscape:version="1.2.2 (b0a8486541, 2022-12-01)"
   width="630"
   height="382"
   xmlns:inkscape="http://www.inkscape.org/namespaces/inkscape"
   xmlns:sodipodi="http://sodipodi.sourceforge.net/DTD/sodipodi-0.dtd"
   xmlns="http://www.w3.org/2000/svg"
   xmlns:svg="http://www.w3.org/2000/svg">
  <defs
     id="defs116" />
  <sodipodi:namedview
     id="namedview114"
     pagecolor="#ffffff"
     bordercolor="#000000"
     borderopacity="0.25"
     inkscape:showpageshadow="2"
     inkscape:pageopacity="0.0"
     inkscape:pagecheckerboard="0"
     inkscape:deskcolor="#d1d1d1"
     showgrid="false"
     inkscape:zoom="1.8756036"
     inkscape:cx="313.49909"
     inkscape:cy="188.47266"
     inkscape:window-width="1680"
     inkscape:window-height="981"
     inkscape:window-x="0"
     inkscape:window-y="32"
     inkscape:window-maximized="1"
     inkscape:current-layer="svg112" />
  <path
     d="m 547.04,128.69 c -0.35,0.21 -3.51,6.22 -4.01,7.15 -8.24,15.19 -16.43,31.34 -23.83,46.96 -0.65,1.36 -3.7,7.33 -3.37,8.33 0.78,1.03 2.11,-0.09 2.86,-0.68 3.15,-2.48 7.68,-10.86 9.87,-14.6 5.15,-8.76 9.84,-17.81 14.87,-26.64 l 0.55,-0.54 c 2.87,0.33 5.78,0.06 8.66,0.14 3.38,0.09 10.63,0.19 13.6,1.27 4.31,1.56 1.19,8.23 -0.02,11.14 -3.91,9.42 -9.76,18.15 -14.19,27.33 -0.14,0.47 0.78,0.5 1.11,0.56 2.27,0.4 10.62,0.66 11.98,1.7 0.19,0.14 0.35,0.31 0.31,0.57 -5.15,9.95 -10.69,19.71 -16.62,29.22 l -15.13,1.42 c -1.25,2.31 -8.77,18.71 -7.55,19.92 1.83,0 3.74,-0.6 5.52,-1.08 5.32,-1.43 10.75,-3.86 16.07,-5.04 1.88,-0.42 4.2,-1.22 5.77,0.24 9.28,12.14 18.92,24.08 27.78,36.53 4.54,6.37 12.18,16.48 13.65,24.03 0.48,2.46 1.13,6.79 -0.31,8.91 -2.94,4.34 -15.76,10.88 -20.85,12.74 -1.45,0.53 -4.59,1.82 -5.95,1.14 -1.49,-0.74 -5.63,-7.32 -6.75,-9.08 -5.28,-8.31 -9.77,-17.39 -15.25,-25.54 -0.69,-1.03 -4.73,-6.8 -5.6,-6.79 -11.31,3.91 -22.53,8.2 -34.23,10.88 -9.44,2.16 -19.43,3.58 -29.15,2.99 -5.11,-0.31 -10.26,-1.93 -15.42,-1.02 -6.1,7.34 -10.43,16.07 -15.94,23.9 -0.99,1.4 -5.28,7.6 -6.6,7.8 -1.4,0.22 -7.31,-2.94 -8.87,-3.75 -6.9,-3.63 -13.47,-7.97 -20.11,-12.04 -1.29,-0.95 -0.22,-2.83 0.24,-4.07 0.94,-2.53 2.36,-5.28 3.51,-7.77 3.16,-6.84 6.75,-13.49 9.94,-20.31 l 0.07,-0.55 c -7.48,-7.23 -15.53,-13.61 -21.18,-22.51 -14.28,-22.47 -14.73,-41.33 -13.35,-67.31 1.54,-28.98 16.02,-59.46 35.63,-80.51 13.6,-14.6 28.2,-27.48 45.54,-37.48 6.63,-3.82 14.79,-8.41 21.83,-11.28 2.15,-0.88 5.67,-2.62 7.72,-1.16 2.86,2.04 0.3,3.43 -1.48,4.76 -3.54,2.64 -7.73,4.73 -11.43,7.29 -29.56,20.51 -54.79,59.21 -63.67,93.98 -3.18,12.43 -2.53,28.37 -1.99,41.21 0.06,1.53 0.1,10.53 1.34,10.91 0.52,0.16 1.32,-0.81 1.66,-1.19 4.24,-4.73 9.61,-15.96 12.87,-21.92 17.11,-31.29 33.19,-63.35 48.88,-95.35 0.31,-2.41 -2.54,-2.94 -3.92,-4.68 -2.21,-2.79 -2.12,-7.22 -1.82,-10.65 0.22,-2.5 2.65,-7.25 5.39,-7.57 2.57,-0.3 8.05,2.89 10.69,3.96 9.75,3.94 22.09,6.29 32.13,2.16 2.71,-1.11 8.07,-4.43 10.87,-3.9 2.37,0.45 8.97,4.25 11.46,5.58 14.29,7.63 29.33,16.64 42.92,25.47 2.85,1.85 11.08,6.92 12.46,9.61 1.38,2.69 -1.61,6.71 -2.98,8.95 -3.58,5.83 -12.37,17.95 -17.61,21.99 -1.78,1.37 -2.83,0.86 -4.73,0.16 -9.17,-3.38 -18.77,-9.54 -27.82,-13.69 -0.99,-0.45 -5.3,-2.58 -6.04,-2.15 z m -61.94,64.27 h 20.27 c 9.65,-18.39 18.35,-37.29 28.15,-55.6 2.47,-4.63 8.57,-17.11 12.84,-19.32 1.82,-0.94 3.75,-0.96 5.74,-1.12 4,4.15 8.96,7.22 13.93,10.08 4.11,2.37 8.94,5 13.27,6.88 1.42,0.62 3.65,1.95 5,0.99 2.83,-2 8.25,-10.01 10.06,-13.22 1.96,-3.47 3.31,-5.33 -0.26,-8.1 -4.85,-3.76 -11.36,-7.41 -16.65,-10.7 -13.25,-8.24 -26.8,-16.01 -40.16,-24.06 -0.46,0 -6.38,4.59 -7.63,5.24 -6.95,3.61 -21.57,1.63 -28.84,-1 -3.18,-1.15 -9.14,-4.57 -12.36,-3.73 -1.89,0.5 -1.9,2.6 -1.24,4.13 0.97,2.23 6.74,5.11 9,6.36 6.75,3.71 13.55,6.54 19.91,11.04 3.66,2.59 10.76,7.31 11.38,11.9 0.88,6.51 -7.52,17.83 -10.77,23.66 -9.9,17.74 -20.69,35.13 -30.07,53.2 -0.21,0.4 -1.69,3.24 -1.55,3.37 z M 460.62,80.88 c -6.24,1.2 -10.85,6.07 -15.12,10.43 -23.74,24.26 -41.97,49.96 -45.58,84.73 -1.88,18.17 -2.41,47.9 5.31,64.53 3.38,7.27 12.23,18.36 19.33,22.19 3.06,1.65 4.2,1.86 6.54,-0.8 2.9,-3.3 8.42,-11.71 9.61,-15.82 1.19,-4.11 -1.13,-3.09 -3.77,-4.41 -5.51,-2.74 -14.71,-14.15 -17.87,-19.56 -12.04,-20.58 -9.62,-56.51 -0.55,-77.91 8.28,-19.54 24.14,-45.44 39.33,-60.25 0.41,-0.4 3.35,-2.51 2.76,-3.11 z m 55.6,26.93 c -2.16,0.43 -5.3,4.87 -6.51,6.69 -5.02,7.52 -9.63,16.88 -13.94,24.93 -7.77,14.51 -16.91,30.76 -23.35,45.76 -1.11,2.6 -3.27,6.88 1.75,6.07 0.91,-0.15 3.05,-2.45 3.72,-3.23 5.61,-6.51 10.99,-17.08 15.4,-24.67 7.26,-12.5 14.99,-25.55 21.68,-38.32 1.27,-2.43 5.6,-10.6 5.64,-12.86 0.04,-1.74 -2.54,-4.74 -4.39,-4.38 z M 450.19,221.76 H 428 c -0.09,0.39 0.08,0.56 0.23,0.85 3.08,5.82 7.72,10.53 13.67,13.45 1.26,0.62 3.74,1.9 4.93,1.07 2.19,-1.53 7.58,-9.35 7.99,-11.94 0.38,-2.37 -2.76,-3.22 -4.63,-3.42 z m 33.5,24.69 c 1.92,0.47 4.49,0.58 6.19,-0.59 2.69,-1.84 7.6,-11.39 9.1,-14.66 0.6,-1.32 2.62,-5.75 2.44,-6.91 -0.3,-1.91 -4.35,-1.11 -5.64,-0.13 -3.36,2.56 -7.76,11.89 -9.69,15.99 -0.44,0.94 -2.78,5.69 -2.4,6.3 z m 0.93,-22.77 c -4.11,0.11 -8.25,-0.15 -12.37,-0.01 -0.57,0.02 -1.09,0.23 -1.66,0.26 -1.94,0.1 -4.54,-0.57 -5.89,1.07 -7.33,12.98 -15.13,25.69 -22.59,38.6 -6.37,11.02 -13.29,22.37 -19.19,33.6 -0.45,0.86 -2.55,4.77 -2.55,5.37 0,0.93 5.2,4.1 6.21,4.73 2.55,1.59 5.56,3.37 8.22,4.74 0.65,0.33 1.84,1.25 2.32,0.57 10.21,-18.09 20.3,-36.29 30.11,-54.6 5.3,-9.89 11.63,-20.7 16.23,-30.8 0.24,-0.52 1.4,-3.27 1.16,-3.52 z m -16.78,54.22 c 1.49,0.34 2.67,1.55 4,2.13 9.74,4.21 30.8,-0.06 41.14,-2.65 10.57,-2.66 20.78,-6.49 31.24,-9.49 7.37,11.54 14.28,23.45 22.26,34.59 1.08,1.5 4.08,6.06 5.25,6.99 1.48,1.17 3.31,-0.04 4.71,-0.79 2.61,-1.39 7.72,-4.85 8.17,-7.9 0.96,-6.41 -6.25,-19.15 -10.26,-24.17 -6.66,-8.34 -13.47,-18.37 -20.5,-26.05 -1.07,-1.17 -4.69,-5.06 -6.02,-5.26 -5.74,-0.89 -12.47,3.06 -17.86,4.66 -14.49,4.32 -29.17,4.57 -43.99,6.4 -1.54,0.19 -6.1,0.78 -7.28,1.36 -0.85,0.42 -2.23,2.76 -2.81,3.67 -2.39,3.79 -6.63,11.67 -7.95,15.82 -0.07,0.23 -0.18,0.46 -0.09,0.71 z"
     id="path100"
     style="fill:#ffffff" />
  <path
     d="m 366.1,273.6 h -38.63 l -15.26,-66.97 -18.3,0.04 -11.54,66.93 H 246.14 L 278.03,90.34 c 12.65,-0.08 25.38,-0.25 38.05,-0.12 16.52,0.17 33.26,-0.84 47.55,8.84 18.14,12.29 21,34.08 17.26,54.34 -3.3,17.9 -12.27,31.66 -27.92,40.95 -0.86,0.51 -4.55,2.22 -4.88,2.57 -0.13,0.14 -0.26,0.24 -0.22,0.46 l 18.12,73.33 z m -66.93,-97.92 c 10.96,-0.46 23.34,2.61 33.09,-3.74 8.9,-5.8 13.02,-16.87 13.93,-27.1 1.02,-11.46 -1.24,-22.7 -14.75,-23.63 l -22.64,0.02 -9.62,54.45 z"
     id="path102"
     style="fill:#ffffff" />
  <polygon
     points="82.29,168 138.19,168 132.9,198.71 77.01,198.72 63.94,273.6 28.07,273.6 59.74,90.24 158.34,90.24 153.05,121.19 90.44,121.2 "
     id="polygon104"
     style="fill:#ffffff" />
  <rect
     x="22.790001"
     y="14.4"
     width="585.38"
     height="17.280001"
     id="rect106"
     style="fill:#ffffff;fill-opacity:1" />
  <rect
     x="22.790001"
     y="350.16"
     width="585.38"
     height="17.280001"
     id="rect108"
     style="fill:#ffffff" />
  <path
     d="m 249.27,90.24 -23.39,136.08 c -5.18,22.82 -21.48,44.3 -45.42,48.89 -12.65,2.43 -28.05,0.86 -38.75,-6.69 -15.37,-10.85 -19.8,-31.32 -18.64,-49.16 h 36.47 c -0.05,6.34 -1.12,12.87 1.4,18.88 1.69,4.03 4.58,6.79 9.07,7.25 14.12,1.43 19.17,-14.28 21.13,-25.37 L 213.05,90.24 h 36.23 z"
     id="path110"
     style="fill:#ffffff" />
</svg>
