<svg xmlns="http://www.w3.org/2000/svg" xmlns:xlink="http://www.w3.org/1999/xlink" width="1080" zoomAndPan="magnify" viewBox="0 0 810 809.999993" height="1080" preserveAspectRatio="xMidYMid meet" version="1.0"><defs><g/><clipPath id="a9e0020e6a"><path d="M 112.113281 228.429688 L 697.683594 228.429688 L 697.683594 245.792969 L 112.113281 245.792969 Z M 112.113281 228.429688 " clip-rule="nonzero"/></clipPath><clipPath id="115260ccf8"><path d="M 0.113281 0.429688 L 585.683594 0.429688 L 585.683594 17.792969 L 0.113281 17.792969 Z M 0.113281 0.429688 " clip-rule="nonzero"/></clipPath><clipPath id="987fb0a662"><rect x="0" width="586" y="0" height="18"/></clipPath><clipPath id="22c935dfac"><path d="M 112.113281 564.207031 L 697.683594 564.207031 L 697.683594 581.570312 L 112.113281 581.570312 Z M 112.113281 564.207031 " clip-rule="nonzero"/></clipPath><clipPath id="147666a8cf"><path d="M 0.113281 0.207031 L 585.683594 0.207031 L 585.683594 17.570312 L 0.113281 17.570312 Z M 0.113281 0.207031 " clip-rule="nonzero"/></clipPath><clipPath id="f055a5311c"><rect x="0" width="586" y="0" height="18"/></clipPath><clipPath id="e8ac3a0091"><path d="M 478.074219 267.082031 L 696.324219 267.082031 L 696.324219 537.082031 L 478.074219 537.082031 Z M 478.074219 267.082031 " clip-rule="nonzero"/></clipPath><clipPath id="cbdd10d613"><rect x="0" width="362" y="0" height="305"/></clipPath></defs><rect x="-81" width="972" fill="#ffffff" y="-80.999999" height="971.999992" fill-opacity="1"/><rect x="-81" width="972" fill="#d31027" y="-80.999999" height="971.999992" fill-opacity="1"/><g clip-path="url(#a9e0020e6a)"><g transform="matrix(1, 0, 0, 1, 112, 228)"><g clip-path="url(#987fb0a662)"><g clip-path="url(#115260ccf8)"><path fill="#ffffff" d="M 0.113281 0.429688 L 585.710938 0.429688 L 585.710938 17.792969 L 0.113281 17.792969 Z M 0.113281 0.429688 " fill-opacity="1" fill-rule="nonzero"/></g></g></g></g><g clip-path="url(#22c935dfac)"><g transform="matrix(1, 0, 0, 1, 112, 564)"><g clip-path="url(#f055a5311c)"><g clip-path="url(#147666a8cf)"><path fill="#ffffff" d="M 0.113281 0.207031 L 585.710938 0.207031 L 585.710938 17.570312 L 0.113281 17.570312 Z M 0.113281 0.207031 " fill-opacity="1" fill-rule="nonzero"/></g></g></g></g><g clip-path="url(#e8ac3a0091)"><path fill="#ffffff" d="M 526.171875 536.414062 C 522.945312 535.269531 514.308594 530.472656 504.300781 524.265625 C 502.523438 523.164062 500.511719 521.917969 499.824219 521.5 C 499.113281 521.0625 498.578125 520.511719 498.578125 520.214844 C 498.578125 518.90625 501.03125 513.417969 507.601562 500.023438 C 509.941406 495.257812 512.164062 490.671875 512.542969 489.832031 L 513.234375 488.304688 L 510.382812 485.734375 C 495.621094 472.449219 492.6875 468.695312 485.507812 453.910156 C 484.179688 451.175781 481.625 444.488281 480.96875 442.035156 C 480.625 440.753906 480.292969 439.625 480.234375 439.523438 C 480.171875 439.425781 479.792969 437.433594 479.394531 435.097656 C 478.34375 428.980469 477.894531 420.683594 478.136719 411.96875 C 478.789062 388.5625 479.199219 385.433594 483.367188 372.113281 C 489.285156 353.179688 496.792969 338.824219 507.941406 325.121094 C 511.855469 320.308594 513.542969 318.476562 521.015625 310.925781 C 529.195312 302.65625 535.988281 296.574219 542.335938 291.835938 C 547.753906 287.789062 548.320312 287.390625 551.140625 285.617188 C 552.503906 284.761719 554.078125 283.761719 554.644531 283.394531 C 560.234375 279.785156 575.441406 271.710938 582.054688 268.839844 C 583.496094 268.214844 585.433594 267.546875 586.351562 267.359375 C 587.863281 267.046875 588.125 267.070312 589.019531 267.589844 C 590.375 268.382812 590.96875 269.480469 590.546875 270.414062 C 590.238281 271.085938 585.832031 274.21875 583.265625 275.59375 C 579.902344 277.390625 573.171875 282.152344 567.855469 286.496094 C 549.503906 301.484375 531.152344 326.726562 520.664062 351.40625 C 517.699219 358.375 514.734375 366.847656 512.847656 373.730469 C 510.929688 380.71875 510.527344 385.503906 510.492188 401.632812 C 510.460938 417.324219 510.996094 425.484375 512.105469 426.171875 C 512.273438 426.277344 512.683594 426.117188 513.015625 425.816406 C 513.726562 425.179688 516.15625 421.632812 517.609375 419.117188 C 520.214844 414.59375 526.542969 403.203125 528.136719 400.164062 C 529.113281 398.304688 531.359375 394.074219 533.132812 390.765625 C 534.90625 387.453125 537.710938 382.097656 539.371094 378.867188 C 541.027344 375.636719 542.617188 372.597656 542.902344 372.113281 C 543.621094 370.878906 550.636719 357.359375 553.035156 352.582031 C 554.128906 350.402344 557.699219 343.460938 560.96875 337.160156 C 564.238281 330.863281 568.984375 321.515625 571.519531 316.394531 C 576.777344 305.765625 576.605469 306.867188 573.40625 304.492188 C 571.9375 303.402344 571.328125 302.703125 570.644531 301.328125 C 569.796875 299.625 569.769531 299.4375 569.773438 295.457031 C 569.777344 291.824219 569.859375 291.136719 570.472656 289.597656 C 571.289062 287.542969 573.359375 285.195312 574.761719 284.730469 C 576.089844 284.292969 577.375 284.667969 582.089844 286.863281 C 588.246094 289.726562 591.597656 290.898438 596.699219 291.96875 C 599.820312 292.625 601.042969 292.726562 606.015625 292.738281 C 612.925781 292.761719 614.816406 292.359375 620.25 289.71875 C 624.210938 287.796875 626.992188 286.765625 628.320312 286.726562 C 629.371094 286.695312 638.601562 291.304688 645.789062 295.449219 C 648.375 296.9375 651.082031 298.488281 651.808594 298.898438 C 654.21875 300.257812 660.140625 303.71875 662.375 305.074219 C 663.585938 305.808594 666.625 307.65625 669.128906 309.179688 C 671.628906 310.703125 675.0625 312.785156 676.757812 313.808594 C 678.453125 314.832031 680.699219 316.222656 681.75 316.902344 C 682.800781 317.582031 684.847656 318.910156 686.300781 319.855469 C 693.019531 324.222656 695.957031 326.792969 696.292969 328.617188 C 696.386719 329.132812 696.257812 330.09375 695.992188 330.835938 C 693.835938 336.917969 678.363281 357.109375 674.175781 359.3125 C 673.785156 359.519531 673.121094 359.585938 672.617188 359.476562 C 671.082031 359.140625 664.554688 356.058594 653.542969 350.472656 C 641.792969 344.519531 637.203125 342.40625 636.828125 342.785156 C 636.484375 343.132812 633.554688 348.328125 631.800781 351.699219 C 631 353.234375 628.761719 357.53125 626.828125 361.246094 C 621.632812 371.214844 607.160156 400.242188 606.046875 402.917969 C 605.019531 405.390625 605.078125 405.730469 606.542969 405.738281 C 607.269531 405.742188 609.542969 403.65625 610.75 401.878906 C 613.542969 397.761719 615.199219 395.097656 618.140625 389.996094 C 622.773438 381.949219 622.78125 381.933594 623.359375 380.777344 C 623.644531 380.210938 624.976562 377.808594 626.320312 375.433594 C 627.664062 373.058594 629.796875 369.257812 631.058594 366.984375 L 633.351562 362.851562 L 640.304688 363.019531 C 650.570312 363.269531 654.605469 363.625 656.210938 364.414062 C 657.371094 364.988281 657.578125 365.238281 657.929688 366.515625 C 658.292969 367.824219 658.273438 368.183594 657.734375 370.203125 C 656.601562 374.429688 653.460938 381.105469 647.710938 391.496094 C 642.925781 400.144531 641.535156 402.738281 641.535156 403.003906 C 641.535156 403.152344 643.496094 403.4375 645.898438 403.636719 C 650.191406 403.988281 654.050781 404.582031 654.703125 404.984375 C 654.886719 405.097656 655.039062 405.339844 655.039062 405.519531 C 655.039062 405.910156 653.320312 409.308594 651.960938 411.617188 C 651.4375 412.503906 650.574219 414.027344 650.046875 414.996094 C 649.515625 415.964844 648.542969 417.71875 647.878906 418.894531 C 647.214844 420.066406 646.472656 421.390625 646.226562 421.832031 C 645.980469 422.269531 645.046875 423.886719 644.144531 425.421875 C 643.246094 426.957031 641.597656 429.765625 640.488281 431.664062 C 638.988281 434.226562 638.316406 435.113281 637.886719 435.113281 C 637.566406 435.113281 634.789062 435.308594 631.714844 435.550781 C 628.636719 435.789062 625.496094 436.019531 624.726562 436.0625 L 623.332031 436.140625 L 621.691406 439.667969 C 617.90625 447.796875 616.207031 452.191406 615.851562 454.773438 L 615.636719 456.324219 L 617.210938 456.113281 C 618.894531 455.890625 623.714844 454.445312 632.421875 451.5625 C 638.136719 449.667969 640.910156 449.167969 642.328125 449.777344 C 642.78125 449.972656 644 451.261719 645.054688 452.667969 C 646.929688 455.164062 649.476562 458.511719 653.480469 463.75 C 654.589844 465.203125 656.976562 468.339844 658.777344 470.714844 C 660.578125 473.089844 662.554688 475.691406 663.167969 476.488281 C 663.78125 477.289062 665.207031 479.222656 666.339844 480.789062 C 667.46875 482.351562 668.925781 484.3125 669.574219 485.144531 C 670.222656 485.980469 671.246094 487.386719 671.851562 488.273438 C 672.457031 489.164062 674.304688 491.875 675.960938 494.300781 C 682.550781 503.960938 684.210938 507.453125 684.890625 513.09375 C 685.5 518.175781 685.238281 519.183594 682.675781 521.648438 C 678.917969 525.261719 667.566406 531.480469 661.097656 533.472656 C 658.09375 534.398438 657.640625 534.328125 656.203125 532.699219 C 654.800781 531.113281 650.984375 525.378906 648.429688 521.023438 C 641.125 508.550781 638.757812 504.578125 637.058594 501.902344 C 636.289062 500.699219 635.664062 499.65625 635.664062 499.589844 C 635.664062 499.347656 632.410156 494.945312 631.269531 493.652344 L 630.085938 492.304688 L 627.222656 493.265625 C 625.648438 493.792969 623.964844 494.390625 623.480469 494.597656 C 622.996094 494.804688 619.230469 496.105469 615.113281 497.488281 C 603.847656 501.265625 599.765625 502.40625 590.75 504.28125 C 580.640625 506.386719 569.171875 506.9375 561.902344 505.671875 C 558.328125 505.046875 552.445312 504.785156 550.957031 505.1875 C 550.289062 505.367188 546.457031 510.992188 541.289062 519.390625 C 534.9375 529.699219 529.480469 537.070312 528.238281 537.007812 C 527.988281 536.996094 527.058594 536.730469 526.167969 536.414062 Z M 527.117188 526.238281 C 527.824219 525.183594 532.253906 517.28125 533.171875 515.441406 C 533.414062 514.957031 535.105469 511.875 536.9375 508.589844 C 538.765625 505.304688 540.261719 502.5625 540.261719 502.496094 C 540.261719 502.425781 541.628906 499.894531 543.300781 496.863281 C 544.976562 493.835938 546.808594 490.5 547.371094 489.449219 C 547.9375 488.398438 548.761719 486.878906 549.203125 486.070312 C 549.640625 485.265625 551.199219 482.355469 552.660156 479.609375 C 554.121094 476.863281 555.621094 474.15625 555.988281 473.589844 C 556.355469 473.023438 556.828125 472.15625 557.042969 471.660156 C 557.257812 471.164062 558.570312 468.652344 559.960938 466.078125 C 564.289062 458.070312 570.078125 447.121094 571.367188 444.511719 C 572.046875 443.140625 572.707031 441.882812 572.832031 441.722656 C 572.957031 441.5625 573.335938 440.679688 573.671875 439.769531 L 574.28125 438.109375 L 573.015625 438.003906 C 572.320312 437.949219 568.042969 437.980469 563.511719 438.070312 C 557.152344 438.199219 555.164062 438.328125 554.789062 438.640625 C 554.519531 438.863281 553.910156 439.777344 553.429688 440.675781 C 552.953125 441.574219 552.003906 443.253906 551.328125 444.40625 C 550.648438 445.558594 549.582031 447.410156 548.957031 448.519531 C 548.335938 449.625 547.53125 450.996094 547.171875 451.5625 C 546.386719 452.808594 543.769531 457.191406 542.96875 458.609375 C 541.613281 461.003906 538.042969 467.15625 536.742188 469.332031 C 535.972656 470.625 534.566406 473 533.617188 474.609375 C 532.667969 476.222656 531.761719 477.757812 531.601562 478.019531 C 531.4375 478.285156 530.925781 479.210938 530.460938 480.078125 C 529.992188 480.949219 529.320312 482.121094 528.964844 482.691406 C 528.605469 483.257812 527.824219 484.632812 527.226562 485.742188 C 526.628906 486.851562 525.945312 487.953125 525.714844 488.1875 C 525.480469 488.417969 525.289062 488.730469 525.289062 488.875 C 525.289062 489.015625 524.492188 490.496094 523.515625 492.15625 C 522.539062 493.816406 521.585938 495.441406 521.402344 495.765625 C 521.007812 496.453125 513.628906 509.46875 512.910156 510.75 C 511.117188 513.929688 509.714844 516.882812 509.839844 517.207031 C 510.019531 517.675781 512.890625 519.738281 516.136719 521.730469 C 517.480469 522.550781 518.617188 523.226562 518.664062 523.226562 C 518.710938 523.226562 519.921875 523.902344 521.359375 524.730469 C 524.65625 526.632812 525.964844 527.339844 526.199219 527.339844 C 526.300781 527.339844 526.714844 526.84375 527.117188 526.238281 Z M 664.042969 524.089844 C 665.695312 523.46875 670.21875 520.539062 671.6875 519.136719 C 674.582031 516.375 674.898438 514.761719 673.574219 509.496094 C 672.828125 506.539062 672.234375 505.050781 670.21875 501.125 C 667.171875 495.191406 664.941406 491.847656 662.0625 488.90625 C 660.824219 487.636719 658.183594 484.191406 651.679688 475.351562 C 649.214844 472 646.34375 468.28125 645.277344 467.058594 C 642.507812 463.882812 638.960938 460.273438 638.253906 459.90625 C 636.542969 459.019531 631.535156 459.746094 627.003906 461.535156 C 625.710938 462.046875 624.125 462.636719 623.480469 462.851562 C 622.835938 463.066406 621.800781 463.460938 621.183594 463.730469 C 620.566406 463.996094 619.511719 464.339844 618.835938 464.488281 C 617.484375 464.789062 615.308594 465.308594 611.738281 466.183594 C 608.378906 467.007812 600.242188 468.296875 593.832031 469.015625 C 587.628906 469.714844 580.710938 470.363281 579.449219 470.363281 C 577.449219 470.359375 568.410156 471.78125 567.945312 472.167969 C 567.320312 472.6875 565.21875 475.960938 563.738281 478.730469 C 563.046875 480.023438 562.386719 481.210938 562.273438 481.371094 C 562.078125 481.65625 559.410156 487.363281 557.984375 490.546875 L 557.296875 492.089844 L 558.738281 492.820312 C 559.53125 493.222656 560.257812 493.675781 560.351562 493.828125 C 560.585938 494.207031 563.746094 495.191406 566.238281 495.664062 C 571.53125 496.667969 585.347656 495.648438 594.417969 493.585938 C 595.871094 493.257812 598.050781 492.769531 599.261719 492.507812 C 600.472656 492.242188 602.585938 491.703125 603.960938 491.308594 C 605.332031 490.914062 607.910156 490.214844 609.683594 489.753906 C 611.460938 489.296875 613.441406 488.71875 614.085938 488.476562 C 614.734375 488.234375 617.835938 487.222656 620.984375 486.230469 C 624.132812 485.238281 627.601562 484.089844 628.695312 483.679688 C 629.785156 483.269531 631.414062 482.761719 632.308594 482.554688 L 633.9375 482.175781 L 634.613281 483.242188 C 634.984375 483.828125 635.894531 485.367188 636.632812 486.660156 C 637.375 487.953125 638.691406 490.132812 639.558594 491.503906 C 643.988281 498.519531 648.207031 505.105469 649.128906 506.449219 C 649.390625 506.835938 650.136719 507.972656 650.78125 508.980469 C 651.425781 509.988281 652.550781 511.664062 653.277344 512.710938 C 654.003906 513.753906 654.988281 515.195312 655.464844 515.90625 C 656.90625 518.054688 660.367188 522.730469 661.160156 523.59375 C 661.949219 524.457031 662.71875 524.589844 664.042969 524.089844 Z M 519.90625 477.039062 C 521.054688 475.839844 525.875 469.15625 525.875 468.761719 C 525.875 468.65625 526.40625 467.773438 527.050781 466.800781 C 527.695312 465.828125 528.226562 464.964844 528.226562 464.886719 C 528.226562 464.808594 528.753906 463.636719 529.398438 462.28125 C 531.207031 458.492188 530.925781 457.101562 528.285156 456.765625 C 525.953125 456.472656 521.09375 452.40625 515.867188 446.371094 C 509.707031 439.261719 506.589844 433.992188 503.910156 426.15625 C 502.417969 421.789062 501.136719 414.886719 500.585938 408.242188 C 500.207031 403.644531 500.449219 393.523438 501.089844 387.53125 C 501.339844 385.191406 501.652344 382.214844 501.789062 380.925781 C 502.355469 375.578125 504.746094 365.75 506.167969 362.929688 C 506.472656 362.328125 506.820312 361.503906 506.945312 361.097656 C 507.976562 357.730469 515.914062 341.492188 518.140625 338.195312 C 518.519531 337.632812 518.832031 337.074219 518.832031 336.957031 C 518.832031 336.753906 521.671875 332.117188 524.738281 327.324219 C 532.324219 315.457031 542.257812 302.761719 548.019531 297.566406 C 549.242188 296.464844 550.242188 295.441406 550.242188 295.289062 C 550.242188 294.359375 545.125 296.503906 542.332031 298.605469 C 538.46875 301.515625 526.507812 314.300781 519.472656 323.039062 C 518.289062 324.507812 517.039062 326.039062 516.695312 326.441406 C 516.195312 327.023438 512.488281 332.03125 509.847656 335.691406 C 506.96875 339.683594 501.820312 348.566406 499.203125 354.050781 C 492.480469 368.144531 489.796875 380.167969 488.566406 401.777344 C 487.960938 412.367188 488.746094 432.035156 490.058594 439.078125 C 490.207031 439.886719 490.457031 441.28125 490.613281 442.179688 C 491.207031 445.613281 493.050781 451.308594 494.746094 454.9375 C 495.917969 457.441406 498.65625 462 499.867188 463.457031 C 500.269531 463.941406 501.613281 465.566406 502.851562 467.066406 C 506.691406 471.722656 513.007812 477.023438 515.726562 477.875 C 517.894531 478.554688 518.589844 478.414062 519.90625 477.039062 Z M 579.230469 460.296875 C 581.09375 459.054688 584.082031 454.335938 588.074219 446.351562 C 589.417969 443.664062 591.042969 439.464844 591.042969 438.679688 C 591.042969 437.917969 590.070312 437.464844 588.425781 437.464844 C 587.027344 437.464844 586.527344 437.609375 585.582031 438.296875 C 584.546875 439.046875 582.238281 441.589844 582.238281 441.980469 C 582.238281 442.066406 581.824219 442.835938 581.316406 443.691406 C 579.796875 446.253906 575.484375 454.734375 574.132812 457.816406 C 572.789062 460.878906 572.78125 460.839844 574.605469 461.0625 C 576.386719 461.28125 578.210938 460.980469 579.230469 460.296875 Z M 537.683594 450.050781 C 540.527344 447.140625 544.367188 440.742188 544.371094 438.910156 C 544.371094 437.824219 543.304688 436.972656 541.296875 436.449219 C 539.867188 436.078125 537.527344 435.996094 528.457031 435.996094 C 522.355469 435.996094 517.367188 436.09375 517.371094 436.214844 C 517.375 436.335938 517.636719 436.765625 517.949219 437.167969 C 518.265625 437.574219 518.527344 438.019531 518.53125 438.164062 C 518.546875 438.828125 521.929688 443.425781 523.367188 444.742188 C 525.65625 446.835938 529.246094 449.285156 531.773438 450.480469 C 533.65625 451.371094 534.332031 451.601562 535.667969 451.816406 C 535.804688 451.835938 536.710938 451.042969 537.683594 450.050781 Z M 602.882812 391.421875 C 607.214844 382.738281 612.785156 371.671875 615.265625 366.828125 C 617.742188 361.980469 620.167969 357.222656 620.652344 356.253906 C 621.140625 355.285156 622.179688 353.300781 622.964844 351.847656 C 623.75 350.394531 624.960938 348.148438 625.65625 346.855469 C 626.351562 345.5625 627.148438 344.175781 627.429688 343.769531 C 627.707031 343.367188 628.019531 342.800781 628.125 342.511719 C 628.226562 342.222656 629.238281 340.421875 630.367188 338.503906 C 633.398438 333.359375 635.90625 331.417969 639.804688 331.191406 L 641.746094 331.078125 L 643.515625 332.851562 C 646.378906 335.726562 655.261719 341.242188 664.511719 345.886719 C 670.445312 348.867188 672.761719 349.765625 673.488281 349.367188 C 674.199219 348.976562 676.445312 346.558594 678.277344 344.210938 C 679.664062 342.4375 681.242188 340.121094 683.992188 335.839844 C 685.050781 334.191406 685.917969 331.960938 685.957031 330.785156 C 686.007812 329.34375 685.339844 328.722656 679.988281 325.226562 C 676.292969 322.8125 674.320312 321.558594 668.058594 317.652344 C 667.394531 317.238281 666.203125 316.507812 665.417969 316.035156 C 664.632812 315.5625 661.941406 313.925781 659.441406 312.394531 C 654.21875 309.203125 653.074219 308.519531 648.519531 305.851562 C 646.695312 304.78125 642.78125 302.4375 639.820312 300.636719 C 636.859375 298.835938 634.359375 297.363281 634.265625 297.363281 C 634.171875 297.363281 633.886719 297.179688 633.632812 296.953125 C 633.375 296.726562 632.640625 296.25 631.992188 295.890625 C 631.347656 295.535156 629.925781 294.710938 628.832031 294.0625 L 626.847656 292.886719 L 625.75 293.65625 C 625.148438 294.078125 623.464844 295.277344 622.011719 296.320312 C 620.558594 297.363281 619.238281 298.226562 619.078125 298.234375 C 618.917969 298.242188 618.386719 298.457031 617.902344 298.710938 C 615.9375 299.738281 613.917969 300.007812 608.191406 300.007812 C 599.96875 300.007812 594.132812 298.914062 588.027344 296.230469 C 580.839844 293.070312 578.46875 292.589844 577.050781 294.007812 C 576.390625 294.667969 576.3125 294.949219 576.433594 296.214844 C 576.703125 299.003906 578.453125 300.195312 593.832031 308.042969 C 602.351562 312.394531 604.183594 313.59375 612.867188 320.527344 C 616.816406 323.679688 617.90625 326.714844 616.726562 331.25 C 616.046875 333.855469 614.664062 336.617188 610.816406 343.035156 C 606.132812 350.855469 605.839844 351.375 605.164062 353.09375 C 604.550781 354.652344 602.441406 358.253906 601.722656 358.976562 C 601.488281 359.210938 600.964844 360.015625 600.566406 360.765625 C 600.164062 361.515625 599.164062 363.25 598.34375 364.625 C 597.519531 365.996094 596.425781 367.914062 595.910156 368.882812 C 595.113281 370.371094 593.207031 373.761719 590.539062 378.429688 C 590.21875 378.992188 589.003906 381.015625 587.84375 382.921875 C 586.683594 384.828125 585.492188 386.808594 585.199219 387.328125 C 584.90625 387.84375 584.203125 389.058594 583.636719 390.03125 C 582.472656 392.03125 575.515625 405.171875 574.972656 406.402344 L 574.617188 407.210938 L 595.007812 407.203125 Z M 563.703125 405.453125 C 564.785156 405.445312 567.671875 402.269531 570.640625 397.8125 C 572.09375 395.632812 573.441406 393.550781 573.636719 393.183594 C 573.832031 392.816406 574.445312 391.757812 575.003906 390.832031 C 577.398438 386.855469 580.539062 381.503906 582.84375 377.472656 C 584.207031 375.085938 585.453125 372.90625 585.617188 372.625 C 585.78125 372.34375 586.441406 371.1875 587.085938 370.058594 C 587.730469 368.929688 588.414062 367.738281 588.609375 367.414062 C 588.804688 367.089844 589.128906 366.496094 589.332031 366.09375 C 589.53125 365.6875 590.859375 363.355469 592.277344 360.90625 C 593.699219 358.457031 594.859375 356.390625 594.859375 356.3125 C 594.859375 356.238281 595.964844 354.273438 597.316406 351.953125 C 598.664062 349.632812 600.164062 347.007812 600.640625 346.121094 C 603.230469 341.328125 603.761719 340.367188 603.96875 340.097656 C 604.542969 339.355469 609.019531 330.144531 609.539062 328.632812 C 610.234375 326.613281 610.269531 325.808594 609.699219 324.707031 C 609.195312 323.730469 607.480469 322.167969 606.613281 321.890625 C 605.171875 321.433594 601.792969 324.628906 599.117188 328.976562 C 597.109375 332.246094 596.609375 333.085938 596.261719 333.785156 C 596.058594 334.1875 595.132812 335.808594 594.203125 337.386719 C 593.273438 338.960938 592.511719 340.328125 592.511719 340.421875 C 592.511719 340.515625 591.476562 342.460938 590.210938 344.75 C 587.367188 349.886719 586.097656 352.25 583.554688 357.132812 C 582.464844 359.234375 579.625 364.652344 577.246094 369.175781 C 572.765625 377.699219 566.523438 390.035156 562.835938 397.65625 C 560.375 402.742188 559.996094 404.460938 561.140625 405.273438 C 561.523438 405.542969 562.101562 405.695312 562.421875 405.609375 C 562.746094 405.527344 563.320312 405.457031 563.703125 405.453125 Z M 563.703125 405.453125 " fill-opacity="1" fill-rule="nonzero"/></g><g transform="matrix(1, 0, 0, 1, 115, 248)"><g clip-path="url(#cbdd10d613)"><g fill="#ffffff" fill-opacity="1"><g transform="translate(1.064645, 240.465604)"><g><path d="M 106.109375 -74.859375 L 50.28125 -74.859375 L 37.296875 0 L 1.140625 0 L 32.890625 -183.484375 L 131.6875 -183.484375 L 126.28125 -152.609375 L 63.765625 -152.609375 L 55.578125 -105.609375 L 111.53125 -105.609375 Z M 106.109375 -74.859375 "/></g></g></g><g fill="#ffffff" fill-opacity="1"><g transform="translate(95.199494, 240.465604)"><g><path d="M 92.25 -183.484375 L 128.421875 -183.484375 L 106.734375 -56.453125 C 104.304688 -38.640625 97.671875 -24.25 86.828125 -13.28125 C 75.992188 -2.320312 62.71875 2.984375 47 2.640625 C 31.800781 2.304688 20.289062 -2.960938 12.46875 -13.171875 C 4.65625 -23.378906 1.210938 -37.09375 2.140625 -54.3125 L 38.6875 -54.1875 L 38.4375 -46.25 C 38.269531 -40.789062 39.191406 -36.421875 41.203125 -33.140625 C 43.222656 -29.867188 46.289062 -28.191406 50.40625 -28.109375 C 60.320312 -27.847656 66.875 -35.992188 70.0625 -52.546875 Z M 92.25 -183.484375 "/></g></g></g><g fill="#ffffff" fill-opacity="1"><g transform="translate(219.201371, 240.465604)"><g><path d="M 67.421875 -67.046875 L 49.015625 -67.046875 L 37.421875 0 L 1.265625 0 L 33.015625 -183.484375 L 88.46875 -183.359375 C 104.851562 -182.859375 117.410156 -177.816406 126.140625 -168.234375 C 134.878906 -158.660156 138.578125 -145.597656 137.234375 -129.046875 C 135.140625 -103.921875 123.710938 -86.445312 102.953125 -76.625 L 121.359375 -2.015625 L 121.359375 0 L 82.546875 0 Z M 54.3125 -97.921875 L 73.34375 -97.671875 C 82.082031 -97.835938 88.972656 -101.300781 94.015625 -108.0625 C 99.054688 -114.820312 101.535156 -123.789062 101.453125 -134.96875 C 101.109375 -145.976562 96.273438 -151.816406 86.953125 -152.484375 L 63.890625 -152.609375 Z M 54.3125 -97.921875 "/></g></g></g></g></g></svg>