<svg xmlns="http://www.w3.org/2000/svg" xmlns:xlink="http://www.w3.org/1999/xlink" width="1080" zoomAndPan="magnify" viewBox="0 0 810 809.999993" height="1080" preserveAspectRatio="xMidYMid meet" version="1.0"><defs><g/><clipPath id="a73dc9c2cb"><path d="M 112.113281 508.269531 L 697.683594 508.269531 L 697.683594 617.617188 L 112.113281 617.617188 Z M 112.113281 508.269531 " clip-rule="nonzero"/></clipPath><clipPath id="401f845ee2"><path d="M 0.113281 0.269531 L 585.683594 0.269531 L 585.683594 109.617188 L 0.113281 109.617188 Z M 0.113281 0.269531 " clip-rule="nonzero"/></clipPath><clipPath id="6e2f628c97"><rect x="0" width="586" y="0" height="110"/></clipPath><clipPath id="2defc84372"><path d="M 479.597656 213.671875 L 697.847656 213.671875 L 697.847656 483.671875 L 479.597656 483.671875 Z M 479.597656 213.671875 " clip-rule="nonzero"/></clipPath><clipPath id="38f643b147"><rect x="0" width="362" y="0" height="305"/></clipPath></defs><rect x="-81" width="972" fill="#ffffff" y="-80.999999" height="971.999992" fill-opacity="1"/><rect x="-81" width="972" fill="#d31027" y="-80.999999" height="971.999992" fill-opacity="1"/><g clip-path="url(#a73dc9c2cb)"><g transform="matrix(1, 0, 0, 1, 112, 508)"><g clip-path="url(#6e2f628c97)"><g clip-path="url(#401f845ee2)"><path fill="#ffffff" d="M 0.113281 0.269531 L 585.714844 0.269531 L 585.714844 109.617188 L 0.113281 109.617188 Z M 0.113281 0.269531 " fill-opacity="1" fill-rule="nonzero"/></g></g></g></g><path fill="#ffffff" d="M 295.773438 508.234375 L 514.019531 508.234375 L 514.019531 614.683594 L 295.773438 614.683594 L 295.773438 508.234375 " fill-opacity="1" fill-rule="nonzero"/><g fill="#d31027" fill-opacity="1"><g transform="translate(306.974024, 588.08507)"><g><path d="M 6.296875 0 L 6.296875 -49.96875 L 16.890625 -49.96875 L 16.890625 -8.75 L 37.15625 -8.75 L 37.15625 0 Z M 6.296875 0 "/></g></g></g><g fill="#d31027" fill-opacity="1"><g transform="translate(346.517719, 588.08507)"><g><path d="M 21.84375 -29.390625 L 32.265625 -49.96875 L 43.6875 -49.96875 L 27.109375 -19.453125 L 27.109375 0 L 16.578125 0 L 16.578125 -19.109375 L 0 -49.96875 L 11.484375 -49.96875 Z M 21.84375 -29.390625 "/></g></g></g><g fill="#d31027" fill-opacity="1"><g transform="translate(390.19692, 588.08507)"><g><path d="M 51.640625 -25.046875 C 51.640625 -16.773438 49.585938 -10.414062 45.484375 -5.96875 C 41.390625 -1.53125 35.515625 0.6875 27.859375 0.6875 C 20.203125 0.6875 14.320312 -1.53125 10.21875 -5.96875 C 6.113281 -10.414062 4.0625 -16.800781 4.0625 -25.125 C 4.0625 -33.4375 6.117188 -39.785156 10.234375 -44.171875 C 14.347656 -48.554688 20.242188 -50.75 27.921875 -50.75 C 35.597656 -50.75 41.46875 -48.539062 45.53125 -44.125 C 49.601562 -39.707031 51.640625 -33.347656 51.640625 -25.046875 Z M 15.171875 -25.046875 C 15.171875 -19.472656 16.226562 -15.269531 18.34375 -12.4375 C 20.46875 -9.613281 23.640625 -8.203125 27.859375 -8.203125 C 36.304688 -8.203125 40.53125 -13.816406 40.53125 -25.046875 C 40.53125 -36.304688 36.328125 -41.9375 27.921875 -41.9375 C 23.710938 -41.9375 20.535156 -40.515625 18.390625 -37.671875 C 16.242188 -34.835938 15.171875 -30.628906 15.171875 -25.046875 Z M 15.171875 -25.046875 "/></g></g></g><g fill="#d31027" fill-opacity="1"><g transform="translate(445.906699, 588.08507)"><g><path d="M 50.625 0 L 37.15625 0 L 15.421875 -37.796875 L 15.109375 -37.796875 C 15.535156 -31.117188 15.75 -26.359375 15.75 -23.515625 L 15.75 0 L 6.296875 0 L 6.296875 -49.96875 L 19.65625 -49.96875 L 41.359375 -12.546875 L 41.59375 -12.546875 C 41.25 -19.035156 41.078125 -23.625 41.078125 -26.3125 L 41.078125 -49.96875 L 50.625 -49.96875 Z M 50.625 0 "/></g></g></g><g clip-path="url(#2defc84372)"><path fill="#ffffff" d="M 527.695312 483.003906 C 524.46875 481.863281 515.832031 477.066406 505.824219 470.855469 C 504.046875 469.753906 502.035156 468.507812 501.347656 468.089844 C 500.636719 467.652344 500.101562 467.101562 500.101562 466.804688 C 500.101562 465.496094 502.554688 460.007812 509.125 446.613281 C 511.464844 441.847656 513.6875 437.261719 514.066406 436.421875 L 514.757812 434.894531 L 511.90625 432.328125 C 497.144531 419.042969 494.210938 415.285156 487.03125 400.5 C 485.703125 397.765625 483.148438 391.082031 482.492188 388.625 C 482.148438 387.34375 481.816406 386.214844 481.757812 386.117188 C 481.695312 386.015625 481.316406 384.023438 480.917969 381.691406 C 479.867188 375.570312 479.417969 367.273438 479.660156 358.5625 C 480.3125 335.152344 480.722656 332.027344 484.890625 318.703125 C 490.808594 299.769531 498.316406 285.414062 509.464844 271.710938 C 513.378906 266.898438 515.066406 265.066406 522.539062 257.515625 C 530.71875 249.246094 537.511719 243.164062 543.859375 238.425781 C 549.28125 234.382812 549.84375 233.980469 552.664062 232.207031 C 554.027344 231.351562 555.601562 230.351562 556.167969 229.988281 C 561.757812 226.375 576.964844 218.304688 583.578125 215.433594 C 585.019531 214.804688 586.957031 214.136719 587.875 213.949219 C 589.386719 213.636719 589.648438 213.660156 590.542969 214.179688 C 591.898438 214.972656 592.492188 216.070312 592.070312 217.003906 C 591.761719 217.675781 587.355469 220.808594 584.789062 222.183594 C 581.425781 223.984375 574.695312 228.746094 569.378906 233.085938 C 551.027344 248.074219 532.675781 273.320312 522.1875 297.996094 C 519.222656 304.964844 516.257812 313.4375 514.371094 320.320312 C 512.453125 327.308594 512.050781 332.09375 512.015625 348.222656 C 511.984375 363.914062 512.519531 372.078125 513.628906 372.761719 C 513.796875 372.867188 514.207031 372.707031 514.539062 372.40625 C 515.25 371.769531 517.679688 368.222656 519.132812 365.707031 C 521.738281 361.1875 528.066406 349.792969 529.660156 346.753906 C 530.636719 344.894531 532.882812 340.664062 534.65625 337.355469 C 536.429688 334.042969 539.234375 328.691406 540.894531 325.460938 C 542.550781 322.226562 544.140625 319.1875 544.425781 318.703125 C 545.144531 317.46875 552.160156 303.949219 554.558594 299.171875 C 555.652344 296.992188 559.222656 290.050781 562.492188 283.753906 C 565.761719 277.453125 570.507812 268.109375 573.042969 262.988281 C 578.300781 252.355469 578.128906 253.457031 574.929688 251.082031 C 573.460938 249.992188 572.851562 249.292969 572.167969 247.921875 C 571.320312 246.214844 571.292969 246.027344 571.296875 242.046875 C 571.300781 238.417969 571.382812 237.730469 571.996094 236.1875 C 572.8125 234.132812 574.882812 231.785156 576.285156 231.324219 C 577.613281 230.882812 578.898438 231.257812 583.613281 233.453125 C 589.769531 236.316406 593.121094 237.488281 598.222656 238.558594 C 601.34375 239.214844 602.566406 239.316406 607.539062 239.332031 C 614.449219 239.351562 616.339844 238.949219 621.777344 236.308594 C 625.734375 234.386719 628.515625 233.355469 629.84375 233.316406 C 630.894531 233.289062 640.125 237.894531 647.3125 242.039062 C 649.898438 243.527344 652.605469 245.082031 653.332031 245.488281 C 655.742188 246.847656 661.664062 250.308594 663.898438 251.664062 C 665.109375 252.398438 668.148438 254.246094 670.652344 255.769531 C 673.152344 257.292969 676.589844 259.375 678.285156 260.398438 C 679.980469 261.421875 682.222656 262.8125 683.273438 263.492188 C 684.324219 264.175781 686.371094 265.503906 687.824219 266.445312 C 694.546875 270.8125 697.480469 273.386719 697.816406 275.210938 C 697.910156 275.722656 697.78125 276.6875 697.515625 277.429688 C 695.359375 283.511719 679.886719 303.703125 675.699219 305.902344 C 675.308594 306.109375 674.644531 306.179688 674.140625 306.066406 C 672.605469 305.730469 666.078125 302.648438 655.066406 297.066406 C 643.316406 291.109375 638.726562 288.996094 638.351562 289.375 C 638.007812 289.722656 635.078125 294.917969 633.324219 298.292969 C 632.523438 299.824219 630.285156 304.121094 628.351562 307.835938 C 623.15625 317.808594 608.683594 346.832031 607.570312 349.511719 C 606.542969 351.980469 606.601562 352.320312 608.066406 352.328125 C 608.792969 352.332031 611.066406 350.246094 612.273438 348.46875 C 615.066406 344.351562 616.722656 341.6875 619.664062 336.585938 C 624.296875 328.539062 624.304688 328.523438 624.882812 327.367188 C 625.167969 326.804688 626.5 324.398438 627.84375 322.023438 C 629.1875 319.648438 631.320312 315.847656 632.582031 313.574219 L 634.875 309.441406 L 641.828125 309.609375 C 652.09375 309.859375 656.128906 310.214844 657.734375 311.003906 C 658.894531 311.578125 659.101562 311.828125 659.453125 313.105469 C 659.816406 314.414062 659.796875 314.773438 659.257812 316.792969 C 658.125 321.023438 654.984375 327.695312 649.234375 338.089844 C 644.449219 346.734375 643.058594 349.328125 643.058594 349.59375 C 643.058594 349.742188 645.019531 350.027344 647.421875 350.226562 C 651.714844 350.578125 655.574219 351.171875 656.226562 351.574219 C 656.410156 351.6875 656.5625 351.929688 656.5625 352.113281 C 656.5625 352.5 654.84375 355.898438 653.484375 358.207031 C 652.960938 359.097656 652.097656 360.617188 651.570312 361.585938 C 651.039062 362.554688 650.066406 364.308594 649.402344 365.484375 C 648.738281 366.660156 647.996094 367.980469 647.75 368.421875 C 647.503906 368.863281 646.570312 370.476562 645.667969 372.011719 C 644.769531 373.546875 643.121094 376.355469 642.011719 378.253906 C 640.511719 380.816406 639.839844 381.703125 639.410156 381.703125 C 639.089844 381.703125 636.3125 381.902344 633.238281 382.140625 C 630.164062 382.378906 627.019531 382.613281 626.25 382.65625 L 624.855469 382.734375 L 623.214844 386.257812 C 619.429688 394.390625 617.730469 398.78125 617.375 401.367188 L 617.160156 402.914062 L 618.734375 402.707031 C 620.417969 402.480469 625.238281 401.039062 633.945312 398.152344 C 639.660156 396.257812 642.433594 395.757812 643.851562 396.367188 C 644.304688 396.5625 645.523438 397.851562 646.582031 399.257812 C 648.453125 401.753906 651 405.101562 655.003906 410.339844 C 656.117188 411.796875 658.5 414.929688 660.300781 417.304688 C 662.101562 419.683594 664.078125 422.28125 664.691406 423.078125 C 665.304688 423.878906 666.730469 425.8125 667.863281 427.378906 C 668.992188 428.941406 670.449219 430.90625 671.097656 431.738281 C 671.746094 432.570312 672.769531 433.976562 673.375 434.867188 C 673.980469 435.753906 675.828125 438.464844 677.484375 440.890625 C 684.074219 450.550781 685.734375 454.046875 686.414062 459.683594 C 687.023438 464.765625 686.761719 465.773438 684.199219 468.238281 C 680.441406 471.851562 669.089844 478.070312 662.621094 480.066406 C 659.617188 480.988281 659.167969 480.917969 657.726562 479.289062 C 656.324219 477.703125 652.507812 471.972656 649.953125 467.613281 C 642.648438 455.140625 640.28125 451.167969 638.582031 448.492188 C 637.8125 447.289062 637.1875 446.25 637.1875 446.183594 C 637.1875 445.9375 633.933594 441.539062 632.792969 440.242188 L 631.609375 438.894531 L 628.746094 439.855469 C 627.171875 440.382812 625.488281 440.984375 625.003906 441.191406 C 624.519531 441.398438 620.753906 442.695312 616.636719 444.078125 C 605.371094 447.855469 601.289062 448.996094 592.273438 450.871094 C 582.164062 452.976562 570.695312 453.527344 563.425781 452.261719 C 559.851562 451.636719 553.96875 451.378906 552.480469 451.777344 C 551.8125 451.957031 547.980469 457.585938 542.8125 465.980469 C 536.460938 476.289062 531.003906 483.660156 529.761719 483.601562 C 529.511719 483.589844 528.582031 483.320312 527.695312 483.007812 Z M 528.640625 472.828125 C 529.347656 471.773438 533.777344 463.871094 534.695312 462.035156 C 534.9375 461.550781 536.628906 458.464844 538.460938 455.179688 C 540.289062 451.898438 541.785156 449.152344 541.785156 449.085938 C 541.785156 449.015625 543.152344 446.484375 544.824219 443.457031 C 546.5 440.425781 548.332031 437.089844 548.898438 436.039062 C 549.460938 434.992188 550.285156 433.46875 550.726562 432.664062 C 551.164062 431.855469 552.722656 428.949219 554.183594 426.203125 C 555.644531 423.457031 557.144531 420.746094 557.511719 420.179688 C 557.878906 419.613281 558.351562 418.746094 558.566406 418.25 C 558.78125 417.753906 560.09375 415.242188 561.484375 412.671875 C 565.8125 404.660156 571.601562 393.714844 572.894531 391.101562 C 573.570312 389.730469 574.230469 388.472656 574.355469 388.3125 C 574.480469 388.152344 574.859375 387.273438 575.195312 386.359375 L 575.804688 384.699219 L 574.539062 384.597656 C 573.84375 384.539062 569.566406 384.570312 565.035156 384.660156 C 558.675781 384.789062 556.6875 384.917969 556.3125 385.230469 C 556.042969 385.453125 555.433594 386.371094 554.953125 387.265625 C 554.476562 388.164062 553.527344 389.84375 552.851562 390.996094 C 552.171875 392.148438 551.105469 394 550.480469 395.109375 C 549.859375 396.21875 549.054688 397.585938 548.695312 398.152344 C 547.910156 399.398438 545.292969 403.78125 544.492188 405.203125 C 543.136719 407.59375 539.566406 413.746094 538.265625 415.921875 C 537.496094 417.214844 536.089844 419.589844 535.140625 421.199219 C 534.191406 422.8125 533.285156 424.347656 533.125 424.613281 C 532.960938 424.875 532.449219 425.800781 531.984375 426.671875 C 531.515625 427.539062 530.84375 428.714844 530.488281 429.28125 C 530.128906 429.847656 529.347656 431.222656 528.75 432.332031 C 528.152344 433.445312 527.46875 434.542969 527.238281 434.777344 C 527.003906 435.011719 526.8125 435.320312 526.8125 435.464844 C 526.8125 435.609375 526.015625 437.085938 525.039062 438.746094 C 524.0625 440.410156 523.109375 442.03125 522.925781 442.355469 C 522.53125 443.046875 515.152344 456.0625 514.433594 457.339844 C 512.640625 460.519531 511.238281 463.472656 511.363281 463.796875 C 511.542969 464.265625 514.414062 466.328125 517.660156 468.320312 C 519.003906 469.144531 520.140625 469.816406 520.1875 469.816406 C 520.234375 469.816406 521.445312 470.496094 522.882812 471.324219 C 526.179688 473.222656 527.488281 473.929688 527.722656 473.929688 C 527.824219 473.929688 528.238281 473.433594 528.640625 472.828125 Z M 665.566406 470.683594 C 667.21875 470.0625 671.742188 467.132812 673.210938 465.730469 C 676.105469 462.964844 676.421875 461.351562 675.097656 456.085938 C 674.351562 453.132812 673.757812 451.644531 671.742188 447.71875 C 668.699219 441.785156 666.464844 438.4375 663.585938 435.496094 C 662.347656 434.226562 659.707031 430.785156 653.203125 421.941406 C 650.738281 418.59375 647.867188 414.871094 646.800781 413.652344 C 644.03125 410.472656 640.484375 406.863281 639.777344 406.496094 C 638.066406 405.613281 633.058594 406.335938 628.527344 408.128906 C 627.234375 408.636719 625.648438 409.230469 625.003906 409.445312 C 624.359375 409.65625 623.324219 410.050781 622.707031 410.320312 C 622.089844 410.589844 621.035156 410.929688 620.359375 411.078125 C 619.007812 411.378906 616.832031 411.898438 613.261719 412.773438 C 609.902344 413.597656 601.765625 414.886719 595.355469 415.609375 C 589.152344 416.304688 582.234375 416.953125 580.972656 416.953125 C 578.972656 416.953125 569.933594 418.371094 569.46875 418.757812 C 568.84375 419.277344 566.742188 422.550781 565.261719 425.320312 C 564.570312 426.613281 563.910156 427.800781 563.800781 427.964844 C 563.601562 428.246094 560.933594 433.953125 559.507812 437.140625 L 558.820312 438.679688 L 560.261719 439.410156 C 561.054688 439.8125 561.78125 440.265625 561.875 440.417969 C 562.109375 440.796875 565.269531 441.78125 567.761719 442.253906 C 573.054688 443.257812 586.871094 442.238281 595.941406 440.175781 C 597.394531 439.847656 599.574219 439.359375 600.785156 439.097656 C 601.996094 438.832031 604.109375 438.292969 605.484375 437.898438 C 606.855469 437.503906 609.433594 436.804688 611.207031 436.347656 C 612.984375 435.886719 614.964844 435.3125 615.609375 435.066406 C 616.257812 434.824219 619.359375 433.8125 622.507812 432.820312 C 625.65625 431.828125 629.125 430.679688 630.21875 430.269531 C 631.308594 429.859375 632.9375 429.355469 633.832031 429.144531 L 635.460938 428.765625 L 636.136719 429.832031 C 636.507812 430.421875 637.417969 431.957031 638.15625 433.25 C 638.898438 434.542969 640.214844 436.722656 641.082031 438.097656 C 645.511719 445.109375 649.730469 451.695312 650.652344 453.042969 C 650.914062 453.425781 651.660156 454.5625 652.304688 455.570312 C 652.949219 456.578125 654.074219 458.253906 654.800781 459.300781 C 655.527344 460.347656 656.511719 461.785156 656.988281 462.5 C 658.429688 464.648438 661.890625 469.320312 662.683594 470.183594 C 663.472656 471.046875 664.242188 471.179688 665.566406 470.683594 Z M 521.429688 423.632812 C 522.578125 422.429688 527.398438 415.746094 527.398438 415.351562 C 527.398438 415.246094 527.929688 414.363281 528.574219 413.390625 C 529.21875 412.417969 529.75 411.558594 529.75 411.476562 C 529.75 411.398438 530.277344 410.226562 530.921875 408.871094 C 532.730469 405.082031 532.449219 403.691406 529.808594 403.355469 C 527.476562 403.0625 522.617188 398.996094 517.390625 392.964844 C 511.230469 385.851562 508.113281 380.582031 505.433594 372.746094 C 503.941406 368.378906 502.660156 361.476562 502.109375 354.832031 C 501.730469 350.234375 501.972656 340.113281 502.613281 334.125 C 502.863281 331.78125 503.175781 328.808594 503.3125 327.515625 C 503.878906 322.171875 506.269531 312.339844 507.691406 309.523438 C 507.996094 308.917969 508.34375 308.09375 508.46875 307.691406 C 509.5 304.324219 517.4375 288.082031 519.664062 284.785156 C 520.042969 284.222656 520.355469 283.664062 520.355469 283.546875 C 520.355469 283.34375 523.199219 278.707031 526.261719 273.914062 C 533.847656 262.046875 543.78125 249.351562 549.542969 244.15625 C 550.765625 243.054688 551.765625 242.03125 551.765625 241.878906 C 551.765625 240.949219 546.648438 243.09375 543.855469 245.199219 C 539.992188 248.105469 528.03125 260.890625 520.996094 269.628906 C 519.8125 271.097656 518.5625 272.628906 518.21875 273.03125 C 517.71875 273.613281 514.011719 278.621094 511.371094 282.285156 C 508.492188 286.273438 503.34375 295.15625 500.726562 300.640625 C 494.003906 314.734375 491.320312 326.761719 490.089844 348.367188 C 489.484375 358.957031 490.273438 378.625 491.582031 385.667969 C 491.730469 386.476562 491.980469 387.871094 492.136719 388.769531 C 492.730469 392.203125 494.574219 397.902344 496.269531 401.53125 C 497.441406 404.035156 500.179688 408.589844 501.390625 410.046875 C 501.792969 410.53125 503.136719 412.15625 504.375 413.65625 C 508.214844 418.3125 514.53125 423.613281 517.25 424.464844 C 519.417969 425.144531 520.113281 425.003906 521.429688 423.632812 Z M 580.753906 406.886719 C 582.617188 405.644531 585.605469 400.929688 589.597656 392.941406 C 590.941406 390.253906 592.566406 386.054688 592.566406 385.273438 C 592.566406 384.507812 591.59375 384.054688 589.949219 384.054688 C 588.550781 384.054688 588.050781 384.199219 587.109375 384.886719 C 586.070312 385.636719 583.761719 388.183594 583.761719 388.570312 C 583.761719 388.65625 583.347656 389.425781 582.839844 390.28125 C 581.320312 392.84375 577.007812 401.324219 575.65625 404.40625 C 574.3125 407.46875 574.304688 407.429688 576.128906 407.652344 C 577.910156 407.871094 579.734375 407.570312 580.753906 406.886719 Z M 539.207031 396.640625 C 542.050781 393.734375 545.894531 387.332031 545.894531 385.5 C 545.894531 384.417969 544.828125 383.5625 542.820312 383.039062 C 541.390625 382.667969 539.050781 382.585938 529.980469 382.585938 C 523.878906 382.585938 518.890625 382.683594 518.894531 382.804688 C 518.898438 382.925781 519.160156 383.355469 519.472656 383.761719 C 519.789062 384.164062 520.050781 384.613281 520.054688 384.753906 C 520.070312 385.417969 523.453125 390.019531 524.890625 391.332031 C 527.179688 393.425781 530.769531 395.878906 533.296875 397.070312 C 535.179688 397.960938 535.855469 398.191406 537.191406 398.40625 C 537.328125 398.429688 538.234375 397.632812 539.207031 396.640625 Z M 604.40625 338.011719 C 608.738281 329.332031 614.308594 318.261719 616.789062 313.417969 C 619.265625 308.570312 621.691406 303.8125 622.175781 302.84375 C 622.664062 301.875 623.703125 299.890625 624.488281 298.4375 C 625.273438 296.984375 626.484375 294.738281 627.179688 293.445312 C 627.875 292.152344 628.671875 290.765625 628.953125 290.359375 C 629.230469 289.957031 629.542969 289.390625 629.648438 289.101562 C 629.75 288.816406 630.761719 287.011719 631.890625 285.097656 C 634.921875 279.953125 637.429688 278.007812 641.328125 277.78125 L 643.273438 277.667969 L 645.039062 279.441406 C 647.902344 282.320312 656.785156 287.832031 666.035156 292.476562 C 671.96875 295.457031 674.285156 296.355469 675.011719 295.957031 C 675.722656 295.566406 677.96875 293.148438 679.800781 290.800781 C 681.1875 289.027344 682.765625 286.714844 685.515625 282.429688 C 686.574219 280.78125 687.441406 278.550781 687.480469 277.375 C 687.53125 275.933594 686.863281 275.3125 681.511719 271.816406 C 677.816406 269.402344 675.84375 268.148438 669.585938 264.246094 C 668.917969 263.828125 667.726562 263.101562 666.941406 262.625 C 666.15625 262.152344 663.464844 260.515625 660.964844 258.984375 C 655.742188 255.792969 654.597656 255.109375 650.042969 252.441406 C 648.21875 251.375 644.304688 249.027344 641.34375 247.226562 C 638.382812 245.425781 635.882812 243.953125 635.789062 243.953125 C 635.695312 243.953125 635.410156 243.769531 635.15625 243.542969 C 634.898438 243.316406 634.164062 242.839844 633.515625 242.484375 C 632.871094 242.125 631.449219 241.300781 630.355469 240.65625 L 628.371094 239.476562 L 627.273438 240.246094 C 626.671875 240.667969 624.988281 241.867188 623.535156 242.910156 C 622.082031 243.957031 620.761719 244.816406 620.601562 244.824219 C 620.441406 244.832031 619.910156 245.046875 619.425781 245.300781 C 617.460938 246.328125 615.441406 246.597656 609.714844 246.597656 C 601.492188 246.597656 595.65625 245.503906 589.550781 242.820312 C 582.363281 239.660156 579.992188 239.179688 578.574219 240.597656 C 577.914062 241.257812 577.835938 241.539062 577.957031 242.804688 C 578.226562 245.59375 579.976562 246.785156 595.355469 254.632812 C 603.878906 258.984375 605.707031 260.183594 614.390625 267.117188 C 618.339844 270.273438 619.429688 273.304688 618.25 277.84375 C 617.574219 280.445312 616.1875 283.207031 612.339844 289.625 C 607.65625 297.445312 607.363281 297.964844 606.6875 299.683594 C 606.074219 301.242188 603.964844 304.84375 603.246094 305.566406 C 603.011719 305.800781 602.488281 306.605469 602.089844 307.355469 C 601.6875 308.105469 600.6875 309.839844 599.867188 311.214844 C 599.046875 312.585938 597.949219 314.503906 597.433594 315.472656 C 596.636719 316.960938 594.730469 320.355469 592.0625 325.019531 C 591.742188 325.585938 590.527344 327.605469 589.367188 329.511719 C 588.207031 331.417969 587.015625 333.402344 586.722656 333.917969 C 586.429688 334.433594 585.726562 335.652344 585.160156 336.621094 C 583.996094 338.621094 577.039062 351.761719 576.496094 352.996094 L 576.140625 353.800781 L 586.335938 353.796875 L 596.53125 353.796875 Z M 565.226562 352.042969 C 566.308594 352.039062 569.195312 348.859375 572.164062 344.40625 C 573.617188 342.226562 574.964844 340.140625 575.160156 339.773438 C 575.355469 339.40625 575.96875 338.347656 576.527344 337.421875 C 578.921875 333.445312 582.0625 328.09375 584.367188 324.0625 C 585.730469 321.679688 586.976562 319.496094 587.140625 319.214844 C 587.304688 318.933594 587.964844 317.78125 588.609375 316.648438 C 589.253906 315.519531 589.9375 314.332031 590.132812 314.007812 C 590.328125 313.683594 590.652344 313.085938 590.855469 312.683594 C 591.054688 312.277344 592.382812 309.945312 593.800781 307.496094 C 595.222656 305.046875 596.382812 302.980469 596.382812 302.902344 C 596.382812 302.828125 597.488281 300.867188 598.839844 298.546875 C 600.1875 296.226562 601.6875 293.597656 602.167969 292.710938 C 604.753906 287.917969 605.285156 286.957031 605.492188 286.691406 C 606.066406 285.945312 610.542969 276.738281 611.066406 275.226562 C 611.757812 273.203125 611.792969 272.398438 611.222656 271.300781 C 610.71875 270.324219 609.003906 268.757812 608.136719 268.484375 C 606.695312 268.023438 603.316406 271.21875 600.644531 275.570312 C 598.632812 278.835938 598.132812 279.675781 597.785156 280.375 C 597.582031 280.777344 596.65625 282.398438 595.726562 283.976562 C 594.796875 285.554688 594.035156 286.917969 594.035156 287.011719 C 594.035156 287.105469 593 289.054688 591.734375 291.339844 C 588.890625 296.480469 587.621094 298.84375 585.078125 303.726562 C 583.988281 305.824219 581.148438 311.242188 578.769531 315.765625 C 574.289062 324.292969 568.046875 336.625 564.359375 344.246094 C 561.902344 349.332031 561.519531 351.050781 562.664062 351.863281 C 563.046875 352.132812 563.625 352.285156 563.945312 352.203125 C 564.269531 352.117188 564.84375 352.046875 565.226562 352.042969 Z M 565.226562 352.042969 " fill-opacity="1" fill-rule="nonzero"/></g><g transform="matrix(1, 0, 0, 1, 117, 194)"><g clip-path="url(#38f643b147)"><g fill="#ffffff" fill-opacity="1"><g transform="translate(0.588229, 241.056466)"><g><path d="M 106.109375 -74.859375 L 50.28125 -74.859375 L 37.296875 0 L 1.140625 0 L 32.890625 -183.484375 L 131.6875 -183.484375 L 126.28125 -152.609375 L 63.765625 -152.609375 L 55.578125 -105.609375 L 111.53125 -105.609375 Z M 106.109375 -74.859375 "/></g></g></g><g fill="#ffffff" fill-opacity="1"><g transform="translate(94.723078, 241.056466)"><g><path d="M 92.25 -183.484375 L 128.421875 -183.484375 L 106.734375 -56.453125 C 104.304688 -38.640625 97.671875 -24.25 86.828125 -13.28125 C 75.992188 -2.320312 62.71875 2.984375 47 2.640625 C 31.800781 2.304688 20.289062 -2.960938 12.46875 -13.171875 C 4.65625 -23.378906 1.210938 -37.09375 2.140625 -54.3125 L 38.6875 -54.1875 L 38.4375 -46.25 C 38.269531 -40.789062 39.191406 -36.421875 41.203125 -33.140625 C 43.222656 -29.867188 46.289062 -28.191406 50.40625 -28.109375 C 60.320312 -27.847656 66.875 -35.992188 70.0625 -52.546875 Z M 92.25 -183.484375 "/></g></g></g><g fill="#ffffff" fill-opacity="1"><g transform="translate(218.724955, 241.056466)"><g><path d="M 67.421875 -67.046875 L 49.015625 -67.046875 L 37.421875 0 L 1.265625 0 L 33.015625 -183.484375 L 88.46875 -183.359375 C 104.851562 -182.859375 117.410156 -177.816406 126.140625 -168.234375 C 134.878906 -158.660156 138.578125 -145.597656 137.234375 -129.046875 C 135.140625 -103.921875 123.710938 -86.445312 102.953125 -76.625 L 121.359375 -2.015625 L 121.359375 0 L 82.546875 0 Z M 54.3125 -97.921875 L 73.34375 -97.671875 C 82.082031 -97.835938 88.972656 -101.300781 94.015625 -108.0625 C 99.054688 -114.820312 101.535156 -123.789062 101.453125 -134.96875 C 101.109375 -145.976562 96.273438 -151.816406 86.953125 -152.484375 L 63.890625 -152.609375 Z M 54.3125 -97.921875 "/></g></g></g></g></g></svg>