<svg xmlns="http://www.w3.org/2000/svg" xmlns:xlink="http://www.w3.org/1999/xlink" width="1080" zoomAndPan="magnify" viewBox="0 0 810 809.999993" height="1080" preserveAspectRatio="xMidYMid meet" version="1.0"><defs><g/><clipPath id="4cb9eb306f"><path d="M 112.113281 235.609375 L 697.683594 235.609375 L 697.683594 252.972656 L 112.113281 252.972656 Z M 112.113281 235.609375 " clip-rule="nonzero"/></clipPath><clipPath id="0dfcfd9e18"><path d="M 0.113281 0.609375 L 585.683594 0.609375 L 585.683594 17.972656 L 0.113281 17.972656 Z M 0.113281 0.609375 " clip-rule="nonzero"/></clipPath><clipPath id="9447001e35"><rect x="0" width="586" y="0" height="18"/></clipPath><clipPath id="686e9a4743"><path d="M 112.113281 568.859375 L 697.683594 568.859375 L 697.683594 678.207031 L 112.113281 678.207031 Z M 112.113281 568.859375 " clip-rule="nonzero"/></clipPath><clipPath id="1663383fe1"><path d="M 0.113281 0.859375 L 585.683594 0.859375 L 585.683594 110.207031 L 0.113281 110.207031 Z M 0.113281 0.859375 " clip-rule="nonzero"/></clipPath><clipPath id="e5207920fa"><rect x="0" width="586" y="0" height="111"/></clipPath><clipPath id="4bf906e37b"><path d="M 478.074219 274.261719 L 696.324219 274.261719 L 696.324219 544.261719 L 478.074219 544.261719 Z M 478.074219 274.261719 " clip-rule="nonzero"/></clipPath><clipPath id="1c37b2b6c4"><rect x="0" width="362" y="0" height="305"/></clipPath></defs><rect x="-81" width="972" fill="#ffffff" y="-80.999999" height="971.999992" fill-opacity="1"/><rect x="-81" width="972" fill="#d31027" y="-80.999999" height="971.999992" fill-opacity="1"/><g clip-path="url(#4cb9eb306f)"><g transform="matrix(1, 0, 0, 1, 112, 235)"><g clip-path="url(#9447001e35)"><g clip-path="url(#0dfcfd9e18)"><path fill="#ffffff" d="M 0.113281 0.609375 L 585.710938 0.609375 L 585.710938 17.972656 L 0.113281 17.972656 Z M 0.113281 0.609375 " fill-opacity="1" fill-rule="nonzero"/></g></g></g></g><g clip-path="url(#686e9a4743)"><g transform="matrix(1, 0, 0, 1, 112, 568)"><g clip-path="url(#e5207920fa)"><g clip-path="url(#1663383fe1)"><path fill="#ffffff" d="M 0.113281 0.859375 L 585.714844 0.859375 L 585.714844 110.207031 L 0.113281 110.207031 Z M 0.113281 0.859375 " fill-opacity="1" fill-rule="nonzero"/></g></g></g></g><path fill="#ffffff" d="M 295.773438 568.824219 L 514.019531 568.824219 L 514.019531 675.273438 L 295.773438 675.273438 L 295.773438 568.824219 " fill-opacity="1" fill-rule="nonzero"/><g fill="#d31027" fill-opacity="1"><g transform="translate(306.974024, 648.674699)"><g><path d="M 6.296875 0 L 6.296875 -49.96875 L 16.890625 -49.96875 L 16.890625 -8.75 L 37.15625 -8.75 L 37.15625 0 Z M 6.296875 0 "/></g></g></g><g fill="#d31027" fill-opacity="1"><g transform="translate(346.517719, 648.674699)"><g><path d="M 21.84375 -29.390625 L 32.265625 -49.96875 L 43.6875 -49.96875 L 27.109375 -19.453125 L 27.109375 0 L 16.578125 0 L 16.578125 -19.109375 L 0 -49.96875 L 11.484375 -49.96875 Z M 21.84375 -29.390625 "/></g></g></g><g fill="#d31027" fill-opacity="1"><g transform="translate(390.19692, 648.674699)"><g><path d="M 51.640625 -25.046875 C 51.640625 -16.773438 49.585938 -10.414062 45.484375 -5.96875 C 41.390625 -1.53125 35.515625 0.6875 27.859375 0.6875 C 20.203125 0.6875 14.320312 -1.53125 10.21875 -5.96875 C 6.113281 -10.414062 4.0625 -16.800781 4.0625 -25.125 C 4.0625 -33.4375 6.117188 -39.785156 10.234375 -44.171875 C 14.347656 -48.554688 20.242188 -50.75 27.921875 -50.75 C 35.597656 -50.75 41.46875 -48.539062 45.53125 -44.125 C 49.601562 -39.707031 51.640625 -33.347656 51.640625 -25.046875 Z M 15.171875 -25.046875 C 15.171875 -19.472656 16.226562 -15.269531 18.34375 -12.4375 C 20.46875 -9.613281 23.640625 -8.203125 27.859375 -8.203125 C 36.304688 -8.203125 40.53125 -13.816406 40.53125 -25.046875 C 40.53125 -36.304688 36.328125 -41.9375 27.921875 -41.9375 C 23.710938 -41.9375 20.535156 -40.515625 18.390625 -37.671875 C 16.242188 -34.835938 15.171875 -30.628906 15.171875 -25.046875 Z M 15.171875 -25.046875 "/></g></g></g><g fill="#d31027" fill-opacity="1"><g transform="translate(445.906699, 648.674699)"><g><path d="M 50.625 0 L 37.15625 0 L 15.421875 -37.796875 L 15.109375 -37.796875 C 15.535156 -31.117188 15.75 -26.359375 15.75 -23.515625 L 15.75 0 L 6.296875 0 L 6.296875 -49.96875 L 19.65625 -49.96875 L 41.359375 -12.546875 L 41.59375 -12.546875 C 41.25 -19.035156 41.078125 -23.625 41.078125 -26.3125 L 41.078125 -49.96875 L 50.625 -49.96875 Z M 50.625 0 "/></g></g></g><g fill="#ffffff" fill-opacity="1"><g transform="translate(116.669755, 163.740173)"><g><path d="M 6.9375 0 L 3.09375 0 L 3.09375 -23.578125 L 16.421875 -23.578125 L 16.421875 -20.328125 L 6.9375 -20.328125 L 6.9375 -12.96875 L 15.8125 -12.96875 L 15.8125 -9.71875 L 6.9375 -9.71875 Z M 6.9375 0 "/></g></g></g><g fill="#ffffff" fill-opacity="1"><g transform="translate(134.268078, 163.740173)"><g><path d="M 9.828125 -18.1875 C 11.410156 -18.1875 12.769531 -17.859375 13.90625 -17.203125 C 15.050781 -16.546875 15.929688 -15.613281 16.546875 -14.40625 C 17.160156 -13.207031 17.46875 -11.769531 17.46875 -10.09375 L 17.46875 -8.0625 L 5.546875 -8.0625 C 5.585938 -6.332031 6.050781 -5 6.9375 -4.0625 C 7.832031 -3.125 9.078125 -2.65625 10.671875 -2.65625 C 11.816406 -2.65625 12.84375 -2.765625 13.75 -2.984375 C 14.65625 -3.210938 15.59375 -3.539062 16.5625 -3.96875 L 16.5625 -0.890625 C 15.664062 -0.472656 14.753906 -0.164062 13.828125 0.03125 C 12.910156 0.226562 11.804688 0.328125 10.515625 0.328125 C 8.765625 0.328125 7.222656 -0.0078125 5.890625 -0.6875 C 4.566406 -1.375 3.53125 -2.394531 2.78125 -3.75 C 2.03125 -5.113281 1.65625 -6.800781 1.65625 -8.8125 C 1.65625 -10.8125 1.992188 -12.507812 2.671875 -13.90625 C 3.347656 -15.300781 4.300781 -16.363281 5.53125 -17.09375 C 6.757812 -17.820312 8.191406 -18.1875 9.828125 -18.1875 Z M 9.828125 -15.34375 C 8.628906 -15.34375 7.660156 -14.953125 6.921875 -14.171875 C 6.191406 -13.398438 5.757812 -12.269531 5.625 -10.78125 L 13.75 -10.78125 C 13.738281 -11.664062 13.59375 -12.453125 13.3125 -13.140625 C 13.03125 -13.828125 12.597656 -14.363281 12.015625 -14.75 C 11.441406 -15.144531 10.710938 -15.34375 9.828125 -15.34375 Z M 15.09375 -25.3125 L 15.09375 -24.984375 C 14.84375 -24.671875 14.492188 -24.296875 14.046875 -23.859375 C 13.609375 -23.421875 13.128906 -22.960938 12.609375 -22.484375 C 12.097656 -22.015625 11.585938 -21.5625 11.078125 -21.125 C 10.578125 -20.6875 10.125 -20.316406 9.71875 -20.015625 L 7.1875 -20.015625 L 7.1875 -20.4375 C 7.539062 -20.84375 7.929688 -21.328125 8.359375 -21.890625 C 8.796875 -22.460938 9.226562 -23.050781 9.65625 -23.65625 C 10.082031 -24.257812 10.441406 -24.8125 10.734375 -25.3125 Z M 15.09375 -25.3125 "/></g></g></g><g fill="#ffffff" fill-opacity="1"><g transform="translate(153.302006, 163.740173)"><g><path d="M 8.703125 0.328125 C 6.578125 0.328125 4.867188 -0.445312 3.578125 -2 C 2.296875 -3.5625 1.65625 -5.859375 1.65625 -8.890625 C 1.65625 -11.953125 2.304688 -14.265625 3.609375 -15.828125 C 4.921875 -17.398438 6.648438 -18.1875 8.796875 -18.1875 C 9.691406 -18.1875 10.476562 -18.066406 11.15625 -17.828125 C 11.832031 -17.585938 12.414062 -17.257812 12.90625 -16.84375 C 13.394531 -16.4375 13.8125 -15.984375 14.15625 -15.484375 L 14.34375 -15.484375 C 14.28125 -15.816406 14.210938 -16.296875 14.140625 -16.921875 C 14.078125 -17.554688 14.046875 -18.140625 14.046875 -18.671875 L 14.046875 -25.09375 L 17.859375 -25.09375 L 17.859375 0 L 14.890625 0 L 14.203125 -2.4375 L 14.046875 -2.4375 C 13.722656 -1.914062 13.316406 -1.445312 12.828125 -1.03125 C 12.335938 -0.625 11.753906 -0.296875 11.078125 -0.046875 C 10.410156 0.203125 9.617188 0.328125 8.703125 0.328125 Z M 9.78125 -2.765625 C 11.394531 -2.765625 12.535156 -3.226562 13.203125 -4.15625 C 13.867188 -5.09375 14.210938 -6.5 14.234375 -8.375 L 14.234375 -8.875 C 14.234375 -10.875 13.910156 -12.40625 13.265625 -13.46875 C 12.628906 -14.539062 11.453125 -15.078125 9.734375 -15.078125 C 8.367188 -15.078125 7.328125 -14.523438 6.609375 -13.421875 C 5.898438 -12.328125 5.546875 -10.796875 5.546875 -8.828125 C 5.546875 -6.859375 5.898438 -5.351562 6.609375 -4.3125 C 7.328125 -3.28125 8.382812 -2.765625 9.78125 -2.765625 Z M 9.78125 -2.765625 "/></g></g></g><g fill="#ffffff" fill-opacity="1"><g transform="translate(173.868331, 163.740173)"><g><path d="M 9.828125 -18.1875 C 11.410156 -18.1875 12.769531 -17.859375 13.90625 -17.203125 C 15.050781 -16.546875 15.929688 -15.613281 16.546875 -14.40625 C 17.160156 -13.207031 17.46875 -11.769531 17.46875 -10.09375 L 17.46875 -8.0625 L 5.546875 -8.0625 C 5.585938 -6.332031 6.050781 -5 6.9375 -4.0625 C 7.832031 -3.125 9.078125 -2.65625 10.671875 -2.65625 C 11.816406 -2.65625 12.84375 -2.765625 13.75 -2.984375 C 14.65625 -3.210938 15.59375 -3.539062 16.5625 -3.96875 L 16.5625 -0.890625 C 15.664062 -0.472656 14.753906 -0.164062 13.828125 0.03125 C 12.910156 0.226562 11.804688 0.328125 10.515625 0.328125 C 8.765625 0.328125 7.222656 -0.0078125 5.890625 -0.6875 C 4.566406 -1.375 3.53125 -2.394531 2.78125 -3.75 C 2.03125 -5.113281 1.65625 -6.800781 1.65625 -8.8125 C 1.65625 -10.8125 1.992188 -12.507812 2.671875 -13.90625 C 3.347656 -15.300781 4.300781 -16.363281 5.53125 -17.09375 C 6.757812 -17.820312 8.191406 -18.1875 9.828125 -18.1875 Z M 9.828125 -15.34375 C 8.628906 -15.34375 7.660156 -14.953125 6.921875 -14.171875 C 6.191406 -13.398438 5.757812 -12.269531 5.625 -10.78125 L 13.75 -10.78125 C 13.738281 -11.664062 13.59375 -12.453125 13.3125 -13.140625 C 13.03125 -13.828125 12.597656 -14.363281 12.015625 -14.75 C 11.441406 -15.144531 10.710938 -15.34375 9.828125 -15.34375 Z M 15.09375 -25.3125 L 15.09375 -24.984375 C 14.84375 -24.671875 14.492188 -24.296875 14.046875 -23.859375 C 13.609375 -23.421875 13.128906 -22.960938 12.609375 -22.484375 C 12.097656 -22.015625 11.585938 -21.5625 11.078125 -21.125 C 10.578125 -20.6875 10.125 -20.316406 9.71875 -20.015625 L 7.1875 -20.015625 L 7.1875 -20.4375 C 7.539062 -20.84375 7.929688 -21.328125 8.359375 -21.890625 C 8.796875 -22.460938 9.226562 -23.050781 9.65625 -23.65625 C 10.082031 -24.257812 10.441406 -24.8125 10.734375 -25.3125 Z M 15.09375 -25.3125 "/></g></g></g><g fill="#ffffff" fill-opacity="1"><g transform="translate(192.902258, 163.740173)"><g><path d="M 11.75 -18.1875 C 12.050781 -18.1875 12.378906 -18.171875 12.734375 -18.140625 C 13.097656 -18.109375 13.40625 -18.066406 13.65625 -18.015625 L 13.3125 -14.46875 C 13.082031 -14.53125 12.800781 -14.578125 12.46875 -14.609375 C 12.144531 -14.640625 11.851562 -14.65625 11.59375 -14.65625 C 10.914062 -14.65625 10.269531 -14.546875 9.65625 -14.328125 C 9.039062 -14.109375 8.5 -13.773438 8.03125 -13.328125 C 7.5625 -12.878906 7.191406 -12.320312 6.921875 -11.65625 C 6.648438 -10.988281 6.515625 -10.21875 6.515625 -9.34375 L 6.515625 0 L 2.703125 0 L 2.703125 -17.859375 L 5.671875 -17.859375 L 6.1875 -14.703125 L 6.375 -14.703125 C 6.726562 -15.335938 7.164062 -15.914062 7.6875 -16.4375 C 8.21875 -16.96875 8.820312 -17.390625 9.5 -17.703125 C 10.1875 -18.023438 10.9375 -18.1875 11.75 -18.1875 Z M 11.75 -18.1875 "/></g></g></g><g fill="#ffffff" fill-opacity="1"><g transform="translate(207.161573, 163.740173)"><g><path d="M 9.703125 -18.1875 C 11.960938 -18.1875 13.671875 -17.6875 14.828125 -16.6875 C 15.984375 -15.6875 16.5625 -14.128906 16.5625 -12.015625 L 16.5625 0 L 13.875 0 L 13.140625 -2.53125 L 13.015625 -2.53125 C 12.503906 -1.882812 11.976562 -1.351562 11.4375 -0.9375 C 10.90625 -0.519531 10.285156 -0.207031 9.578125 0 C 8.878906 0.21875 8.023438 0.328125 7.015625 0.328125 C 5.953125 0.328125 5 0.128906 4.15625 -0.265625 C 3.320312 -0.660156 2.660156 -1.257812 2.171875 -2.0625 C 1.691406 -2.875 1.453125 -3.894531 1.453125 -5.125 C 1.453125 -6.96875 2.132812 -8.347656 3.5 -9.265625 C 4.875 -10.191406 6.945312 -10.707031 9.71875 -10.8125 L 12.828125 -10.921875 L 12.828125 -11.859375 C 12.828125 -13.085938 12.535156 -13.96875 11.953125 -14.5 C 11.378906 -15.03125 10.570312 -15.296875 9.53125 -15.296875 C 8.632812 -15.296875 7.765625 -15.164062 6.921875 -14.90625 C 6.085938 -14.644531 5.273438 -14.328125 4.484375 -13.953125 L 3.265625 -16.625 C 4.128906 -17.09375 5.117188 -17.46875 6.234375 -17.75 C 7.347656 -18.039062 8.503906 -18.1875 9.703125 -18.1875 Z M 12.8125 -8.53125 L 10.5 -8.453125 C 8.601562 -8.390625 7.273438 -8.066406 6.515625 -7.484375 C 5.753906 -6.898438 5.375 -6.101562 5.375 -5.09375 C 5.375 -4.21875 5.632812 -3.578125 6.15625 -3.171875 C 6.6875 -2.765625 7.378906 -2.5625 8.234375 -2.5625 C 9.546875 -2.5625 10.632812 -2.9375 11.5 -3.6875 C 12.375 -4.4375 12.8125 -5.535156 12.8125 -6.984375 Z M 12.8125 -8.53125 "/></g></g></g><g fill="#ffffff" fill-opacity="1"><g transform="translate(226.324544, 163.740173)"><g><path d="M 9.359375 -2.734375 C 9.847656 -2.734375 10.332031 -2.78125 10.8125 -2.875 C 11.300781 -2.96875 11.742188 -3.078125 12.140625 -3.203125 L 12.140625 -0.34375 C 11.722656 -0.15625 11.179688 0 10.515625 0.125 C 9.847656 0.257812 9.15625 0.328125 8.4375 0.328125 C 7.425781 0.328125 6.515625 0.160156 5.703125 -0.171875 C 4.898438 -0.515625 4.257812 -1.097656 3.78125 -1.921875 C 3.3125 -2.753906 3.078125 -3.90625 3.078125 -5.375 L 3.078125 -14.96875 L 0.640625 -14.96875 L 0.640625 -16.65625 L 3.265625 -18 L 4.5 -21.828125 L 6.890625 -21.828125 L 6.890625 -17.859375 L 12 -17.859375 L 12 -14.96875 L 6.890625 -14.96875 L 6.890625 -5.421875 C 6.890625 -4.515625 7.113281 -3.835938 7.5625 -3.390625 C 8.007812 -2.953125 8.609375 -2.734375 9.359375 -2.734375 Z M 9.359375 -2.734375 "/></g></g></g><g fill="#ffffff" fill-opacity="1"><g transform="translate(239.390205, 163.740173)"><g><path d="M 6.5 -17.859375 L 6.5 0 L 2.703125 0 L 2.703125 -17.859375 Z M 4.625 -24.6875 C 5.207031 -24.6875 5.710938 -24.53125 6.140625 -24.21875 C 6.566406 -23.90625 6.78125 -23.367188 6.78125 -22.609375 C 6.78125 -21.859375 6.566406 -21.320312 6.140625 -21 C 5.710938 -20.6875 5.207031 -20.53125 4.625 -20.53125 C 4.019531 -20.53125 3.507812 -20.6875 3.09375 -21 C 2.6875 -21.320312 2.484375 -21.859375 2.484375 -22.609375 C 2.484375 -23.367188 2.6875 -23.90625 3.09375 -24.21875 C 3.507812 -24.53125 4.019531 -24.6875 4.625 -24.6875 Z M 4.625 -24.6875 "/></g></g></g><g fill="#ffffff" fill-opacity="1"><g transform="translate(248.600696, 163.740173)"><g><path d="M 18.515625 -8.96875 C 18.515625 -7.476562 18.320312 -6.160156 17.9375 -5.015625 C 17.550781 -3.867188 16.984375 -2.898438 16.234375 -2.109375 C 15.492188 -1.316406 14.601562 -0.710938 13.5625 -0.296875 C 12.519531 0.117188 11.34375 0.328125 10.03125 0.328125 C 8.800781 0.328125 7.675781 0.117188 6.65625 -0.296875 C 5.632812 -0.710938 4.75 -1.316406 4 -2.109375 C 3.257812 -2.898438 2.679688 -3.867188 2.265625 -5.015625 C 1.859375 -6.160156 1.65625 -7.476562 1.65625 -8.96875 C 1.65625 -10.9375 1.992188 -12.601562 2.671875 -13.96875 C 3.359375 -15.34375 4.335938 -16.390625 5.609375 -17.109375 C 6.878906 -17.828125 8.390625 -18.1875 10.140625 -18.1875 C 11.785156 -18.1875 13.238281 -17.828125 14.5 -17.109375 C 15.757812 -16.390625 16.742188 -15.34375 17.453125 -13.96875 C 18.160156 -12.59375 18.515625 -10.925781 18.515625 -8.96875 Z M 5.5625 -8.96875 C 5.5625 -7.664062 5.71875 -6.550781 6.03125 -5.625 C 6.351562 -4.695312 6.847656 -3.988281 7.515625 -3.5 C 8.179688 -3.019531 9.039062 -2.78125 10.09375 -2.78125 C 11.144531 -2.78125 12.003906 -3.019531 12.671875 -3.5 C 13.335938 -3.988281 13.828125 -4.695312 14.140625 -5.625 C 14.453125 -6.550781 14.609375 -7.664062 14.609375 -8.96875 C 14.609375 -10.269531 14.453125 -11.375 14.140625 -12.28125 C 13.828125 -13.1875 13.335938 -13.878906 12.671875 -14.359375 C 12.003906 -14.835938 11.140625 -15.078125 10.078125 -15.078125 C 8.503906 -15.078125 7.359375 -14.550781 6.640625 -13.5 C 5.921875 -12.445312 5.5625 -10.9375 5.5625 -8.96875 Z M 5.5625 -8.96875 "/></g></g></g><g fill="#ffffff" fill-opacity="1"><g transform="translate(268.763754, 163.740173)"><g><path d="M 12.015625 -18.1875 C 14.023438 -18.1875 15.59375 -17.664062 16.71875 -16.625 C 17.84375 -15.59375 18.40625 -13.929688 18.40625 -11.640625 L 18.40625 0 L 14.609375 0 L 14.609375 -10.9375 C 14.609375 -12.320312 14.320312 -13.359375 13.75 -14.046875 C 13.1875 -14.742188 12.304688 -15.09375 11.109375 -15.09375 C 9.378906 -15.09375 8.175781 -14.5625 7.5 -13.5 C 6.832031 -12.4375 6.5 -10.894531 6.5 -8.875 L 6.5 0 L 2.703125 0 L 2.703125 -17.859375 L 5.65625 -17.859375 L 6.1875 -15.4375 L 6.40625 -15.4375 C 6.789062 -16.0625 7.269531 -16.570312 7.84375 -16.96875 C 8.414062 -17.375 9.0625 -17.675781 9.78125 -17.875 C 10.5 -18.082031 11.242188 -18.1875 12.015625 -18.1875 Z M 12.015625 -18.1875 "/></g></g></g><g fill="#ffffff" fill-opacity="1"><g transform="translate(289.749471, 163.740173)"><g/></g></g><g fill="#ffffff" fill-opacity="1"><g transform="translate(298.330869, 163.740173)"><g><path d="M 8.703125 0.328125 C 6.578125 0.328125 4.867188 -0.445312 3.578125 -2 C 2.296875 -3.5625 1.65625 -5.859375 1.65625 -8.890625 C 1.65625 -11.953125 2.304688 -14.265625 3.609375 -15.828125 C 4.921875 -17.398438 6.648438 -18.1875 8.796875 -18.1875 C 9.691406 -18.1875 10.476562 -18.066406 11.15625 -17.828125 C 11.832031 -17.585938 12.414062 -17.257812 12.90625 -16.84375 C 13.394531 -16.4375 13.8125 -15.984375 14.15625 -15.484375 L 14.34375 -15.484375 C 14.28125 -15.816406 14.210938 -16.296875 14.140625 -16.921875 C 14.078125 -17.554688 14.046875 -18.140625 14.046875 -18.671875 L 14.046875 -25.09375 L 17.859375 -25.09375 L 17.859375 0 L 14.890625 0 L 14.203125 -2.4375 L 14.046875 -2.4375 C 13.722656 -1.914062 13.316406 -1.445312 12.828125 -1.03125 C 12.335938 -0.625 11.753906 -0.296875 11.078125 -0.046875 C 10.410156 0.203125 9.617188 0.328125 8.703125 0.328125 Z M 9.78125 -2.765625 C 11.394531 -2.765625 12.535156 -3.226562 13.203125 -4.15625 C 13.867188 -5.09375 14.210938 -6.5 14.234375 -8.375 L 14.234375 -8.875 C 14.234375 -10.875 13.910156 -12.40625 13.265625 -13.46875 C 12.628906 -14.539062 11.453125 -15.078125 9.734375 -15.078125 C 8.367188 -15.078125 7.328125 -14.523438 6.609375 -13.421875 C 5.898438 -12.328125 5.546875 -10.796875 5.546875 -8.828125 C 5.546875 -6.859375 5.898438 -5.351562 6.609375 -4.3125 C 7.328125 -3.28125 8.382812 -2.765625 9.78125 -2.765625 Z M 9.78125 -2.765625 "/></g></g></g><g fill="#ffffff" fill-opacity="1"><g transform="translate(318.897193, 163.740173)"><g><path d="M 9.828125 -18.1875 C 11.410156 -18.1875 12.769531 -17.859375 13.90625 -17.203125 C 15.050781 -16.546875 15.929688 -15.613281 16.546875 -14.40625 C 17.160156 -13.207031 17.46875 -11.769531 17.46875 -10.09375 L 17.46875 -8.0625 L 5.546875 -8.0625 C 5.585938 -6.332031 6.050781 -5 6.9375 -4.0625 C 7.832031 -3.125 9.078125 -2.65625 10.671875 -2.65625 C 11.816406 -2.65625 12.84375 -2.765625 13.75 -2.984375 C 14.65625 -3.210938 15.59375 -3.539062 16.5625 -3.96875 L 16.5625 -0.890625 C 15.664062 -0.472656 14.753906 -0.164062 13.828125 0.03125 C 12.910156 0.226562 11.804688 0.328125 10.515625 0.328125 C 8.765625 0.328125 7.222656 -0.0078125 5.890625 -0.6875 C 4.566406 -1.375 3.53125 -2.394531 2.78125 -3.75 C 2.03125 -5.113281 1.65625 -6.800781 1.65625 -8.8125 C 1.65625 -10.8125 1.992188 -12.507812 2.671875 -13.90625 C 3.347656 -15.300781 4.300781 -16.363281 5.53125 -17.09375 C 6.757812 -17.820312 8.191406 -18.1875 9.828125 -18.1875 Z M 9.828125 -15.34375 C 8.628906 -15.34375 7.660156 -14.953125 6.921875 -14.171875 C 6.191406 -13.398438 5.757812 -12.269531 5.625 -10.78125 L 13.75 -10.78125 C 13.738281 -11.664062 13.59375 -12.453125 13.3125 -13.140625 C 13.03125 -13.828125 12.597656 -14.363281 12.015625 -14.75 C 11.441406 -15.144531 10.710938 -15.34375 9.828125 -15.34375 Z M 9.828125 -15.34375 "/></g></g></g><g fill="#ffffff" fill-opacity="1"><g transform="translate(337.931121, 163.740173)"><g><path d="M 14.703125 -5.09375 C 14.703125 -3.925781 14.414062 -2.9375 13.84375 -2.125 C 13.28125 -1.320312 12.453125 -0.710938 11.359375 -0.296875 C 10.265625 0.117188 8.929688 0.328125 7.359375 0.328125 C 6.109375 0.328125 5.035156 0.238281 4.140625 0.0625 C 3.242188 -0.113281 2.394531 -0.390625 1.59375 -0.765625 L 1.59375 -4.03125 C 2.445312 -3.632812 3.398438 -3.289062 4.453125 -3 C 5.515625 -2.707031 6.519531 -2.5625 7.46875 -2.5625 C 8.71875 -2.5625 9.613281 -2.753906 10.15625 -3.140625 C 10.707031 -3.535156 10.984375 -4.0625 10.984375 -4.71875 C 10.984375 -5.113281 10.875 -5.460938 10.65625 -5.765625 C 10.4375 -6.066406 10.023438 -6.378906 9.421875 -6.703125 C 8.828125 -7.035156 7.957031 -7.4375 6.8125 -7.90625 C 5.675781 -8.351562 4.722656 -8.800781 3.953125 -9.25 C 3.179688 -9.707031 2.59375 -10.253906 2.1875 -10.890625 C 1.789062 -11.535156 1.59375 -12.359375 1.59375 -13.359375 C 1.59375 -14.929688 2.21875 -16.128906 3.46875 -16.953125 C 4.726562 -17.773438 6.390625 -18.1875 8.453125 -18.1875 C 9.546875 -18.1875 10.578125 -18.078125 11.546875 -17.859375 C 12.523438 -17.640625 13.484375 -17.320312 14.421875 -16.90625 L 13.21875 -14.046875 C 12.414062 -14.398438 11.609375 -14.691406 10.796875 -14.921875 C 9.984375 -15.160156 9.160156 -15.28125 8.328125 -15.28125 C 7.347656 -15.28125 6.601562 -15.128906 6.09375 -14.828125 C 5.582031 -14.523438 5.328125 -14.09375 5.328125 -13.53125 C 5.328125 -13.113281 5.445312 -12.757812 5.6875 -12.46875 C 5.9375 -12.175781 6.363281 -11.882812 6.96875 -11.59375 C 7.582031 -11.300781 8.429688 -10.941406 9.515625 -10.515625 C 10.578125 -10.109375 11.5 -9.679688 12.28125 -9.234375 C 13.0625 -8.785156 13.660156 -8.238281 14.078125 -7.59375 C 14.492188 -6.945312 14.703125 -6.113281 14.703125 -5.09375 Z M 14.703125 -5.09375 "/></g></g></g><g fill="#ffffff" fill-opacity="1"><g transform="translate(354.013182, 163.740173)"><g/></g></g><g fill="#ffffff" fill-opacity="1"><g transform="translate(362.594579, 163.740173)"><g><path d="M 0.15625 6.5625 C -0.425781 6.5625 -0.941406 6.523438 -1.390625 6.453125 C -1.835938 6.390625 -2.222656 6.296875 -2.546875 6.171875 L -2.546875 2.9375 C -2.203125 3.019531 -1.832031 3.09375 -1.4375 3.15625 C -1.039062 3.226562 -0.613281 3.265625 -0.15625 3.265625 C 0.425781 3.265625 0.957031 3.148438 1.4375 2.921875 C 1.925781 2.691406 2.3125 2.28125 2.59375 1.6875 C 2.882812 1.101562 3.03125 0.269531 3.03125 -0.8125 L 3.03125 -23.578125 L 6.90625 -23.578125 L 6.90625 -0.9375 C 6.90625 0.8125 6.625 2.238281 6.0625 3.34375 C 5.5 4.445312 4.710938 5.257812 3.703125 5.78125 C 2.691406 6.300781 1.507812 6.5625 0.15625 6.5625 Z M 0.15625 6.5625 "/></g></g></g><g fill="#ffffff" fill-opacity="1"><g transform="translate(372.498662, 163.740173)"><g><path d="M 9.828125 -18.1875 C 11.410156 -18.1875 12.769531 -17.859375 13.90625 -17.203125 C 15.050781 -16.546875 15.929688 -15.613281 16.546875 -14.40625 C 17.160156 -13.207031 17.46875 -11.769531 17.46875 -10.09375 L 17.46875 -8.0625 L 5.546875 -8.0625 C 5.585938 -6.332031 6.050781 -5 6.9375 -4.0625 C 7.832031 -3.125 9.078125 -2.65625 10.671875 -2.65625 C 11.816406 -2.65625 12.84375 -2.765625 13.75 -2.984375 C 14.65625 -3.210938 15.59375 -3.539062 16.5625 -3.96875 L 16.5625 -0.890625 C 15.664062 -0.472656 14.753906 -0.164062 13.828125 0.03125 C 12.910156 0.226562 11.804688 0.328125 10.515625 0.328125 C 8.765625 0.328125 7.222656 -0.0078125 5.890625 -0.6875 C 4.566406 -1.375 3.53125 -2.394531 2.78125 -3.75 C 2.03125 -5.113281 1.65625 -6.800781 1.65625 -8.8125 C 1.65625 -10.8125 1.992188 -12.507812 2.671875 -13.90625 C 3.347656 -15.300781 4.300781 -16.363281 5.53125 -17.09375 C 6.757812 -17.820312 8.191406 -18.1875 9.828125 -18.1875 Z M 9.828125 -15.34375 C 8.628906 -15.34375 7.660156 -14.953125 6.921875 -14.171875 C 6.191406 -13.398438 5.757812 -12.269531 5.625 -10.78125 L 13.75 -10.78125 C 13.738281 -11.664062 13.59375 -12.453125 13.3125 -13.140625 C 13.03125 -13.828125 12.597656 -14.363281 12.015625 -14.75 C 11.441406 -15.144531 10.710938 -15.34375 9.828125 -15.34375 Z M 9.828125 -15.34375 "/></g></g></g><g fill="#ffffff" fill-opacity="1"><g transform="translate(391.532612, 163.740173)"><g><path d="M 18.28125 -17.859375 L 18.28125 0 L 15.296875 0 L 14.78125 -2.40625 L 14.5625 -2.40625 C 14.1875 -1.789062 13.707031 -1.28125 13.125 -0.875 C 12.539062 -0.476562 11.894531 -0.179688 11.1875 0.015625 C 10.476562 0.222656 9.734375 0.328125 8.953125 0.328125 C 7.609375 0.328125 6.457031 0.0976562 5.5 -0.359375 C 4.550781 -0.816406 3.820312 -1.523438 3.3125 -2.484375 C 2.8125 -3.441406 2.5625 -4.675781 2.5625 -6.1875 L 2.5625 -17.859375 L 6.375 -17.859375 L 6.375 -6.90625 C 6.375 -5.519531 6.65625 -4.484375 7.21875 -3.796875 C 7.78125 -3.109375 8.660156 -2.765625 9.859375 -2.765625 C 11.003906 -2.765625 11.914062 -3 12.59375 -3.46875 C 13.269531 -3.9375 13.75 -4.632812 14.03125 -5.5625 C 14.320312 -6.488281 14.46875 -7.625 14.46875 -8.96875 L 14.46875 -17.859375 Z M 18.28125 -17.859375 "/></g></g></g><g fill="#ffffff" fill-opacity="1"><g transform="translate(412.518328, 163.740173)"><g><path d="M 12.015625 -18.1875 C 14.023438 -18.1875 15.59375 -17.664062 16.71875 -16.625 C 17.84375 -15.59375 18.40625 -13.929688 18.40625 -11.640625 L 18.40625 0 L 14.609375 0 L 14.609375 -10.9375 C 14.609375 -12.320312 14.320312 -13.359375 13.75 -14.046875 C 13.1875 -14.742188 12.304688 -15.09375 11.109375 -15.09375 C 9.378906 -15.09375 8.175781 -14.5625 7.5 -13.5 C 6.832031 -12.4375 6.5 -10.894531 6.5 -8.875 L 6.5 0 L 2.703125 0 L 2.703125 -17.859375 L 5.65625 -17.859375 L 6.1875 -15.4375 L 6.40625 -15.4375 C 6.789062 -16.0625 7.269531 -16.570312 7.84375 -16.96875 C 8.414062 -17.375 9.0625 -17.675781 9.78125 -17.875 C 10.5 -18.082031 11.242188 -18.1875 12.015625 -18.1875 Z M 12.015625 -18.1875 "/></g></g></g><g fill="#ffffff" fill-opacity="1"><g transform="translate(433.504045, 163.740173)"><g><path d="M 9.828125 -18.1875 C 11.410156 -18.1875 12.769531 -17.859375 13.90625 -17.203125 C 15.050781 -16.546875 15.929688 -15.613281 16.546875 -14.40625 C 17.160156 -13.207031 17.46875 -11.769531 17.46875 -10.09375 L 17.46875 -8.0625 L 5.546875 -8.0625 C 5.585938 -6.332031 6.050781 -5 6.9375 -4.0625 C 7.832031 -3.125 9.078125 -2.65625 10.671875 -2.65625 C 11.816406 -2.65625 12.84375 -2.765625 13.75 -2.984375 C 14.65625 -3.210938 15.59375 -3.539062 16.5625 -3.96875 L 16.5625 -0.890625 C 15.664062 -0.472656 14.753906 -0.164062 13.828125 0.03125 C 12.910156 0.226562 11.804688 0.328125 10.515625 0.328125 C 8.765625 0.328125 7.222656 -0.0078125 5.890625 -0.6875 C 4.566406 -1.375 3.53125 -2.394531 2.78125 -3.75 C 2.03125 -5.113281 1.65625 -6.800781 1.65625 -8.8125 C 1.65625 -10.8125 1.992188 -12.507812 2.671875 -13.90625 C 3.347656 -15.300781 4.300781 -16.363281 5.53125 -17.09375 C 6.757812 -17.820312 8.191406 -18.1875 9.828125 -18.1875 Z M 9.828125 -15.34375 C 8.628906 -15.34375 7.660156 -14.953125 6.921875 -14.171875 C 6.191406 -13.398438 5.757812 -12.269531 5.625 -10.78125 L 13.75 -10.78125 C 13.738281 -11.664062 13.59375 -12.453125 13.3125 -13.140625 C 13.03125 -13.828125 12.597656 -14.363281 12.015625 -14.75 C 11.441406 -15.144531 10.710938 -15.34375 9.828125 -15.34375 Z M 9.828125 -15.34375 "/></g></g></g><g fill="#ffffff" fill-opacity="1"><g transform="translate(452.537949, 163.740173)"><g><path d="M 14.703125 -5.09375 C 14.703125 -3.925781 14.414062 -2.9375 13.84375 -2.125 C 13.28125 -1.320312 12.453125 -0.710938 11.359375 -0.296875 C 10.265625 0.117188 8.929688 0.328125 7.359375 0.328125 C 6.109375 0.328125 5.035156 0.238281 4.140625 0.0625 C 3.242188 -0.113281 2.394531 -0.390625 1.59375 -0.765625 L 1.59375 -4.03125 C 2.445312 -3.632812 3.398438 -3.289062 4.453125 -3 C 5.515625 -2.707031 6.519531 -2.5625 7.46875 -2.5625 C 8.71875 -2.5625 9.613281 -2.753906 10.15625 -3.140625 C 10.707031 -3.535156 10.984375 -4.0625 10.984375 -4.71875 C 10.984375 -5.113281 10.875 -5.460938 10.65625 -5.765625 C 10.4375 -6.066406 10.023438 -6.378906 9.421875 -6.703125 C 8.828125 -7.035156 7.957031 -7.4375 6.8125 -7.90625 C 5.675781 -8.351562 4.722656 -8.800781 3.953125 -9.25 C 3.179688 -9.707031 2.59375 -10.253906 2.1875 -10.890625 C 1.789062 -11.535156 1.59375 -12.359375 1.59375 -13.359375 C 1.59375 -14.929688 2.21875 -16.128906 3.46875 -16.953125 C 4.726562 -17.773438 6.390625 -18.1875 8.453125 -18.1875 C 9.546875 -18.1875 10.578125 -18.078125 11.546875 -17.859375 C 12.523438 -17.640625 13.484375 -17.320312 14.421875 -16.90625 L 13.21875 -14.046875 C 12.414062 -14.398438 11.609375 -14.691406 10.796875 -14.921875 C 9.984375 -15.160156 9.160156 -15.28125 8.328125 -15.28125 C 7.347656 -15.28125 6.601562 -15.128906 6.09375 -14.828125 C 5.582031 -14.523438 5.328125 -14.09375 5.328125 -13.53125 C 5.328125 -13.113281 5.445312 -12.757812 5.6875 -12.46875 C 5.9375 -12.175781 6.363281 -11.882812 6.96875 -11.59375 C 7.582031 -11.300781 8.429688 -10.941406 9.515625 -10.515625 C 10.578125 -10.109375 11.5 -9.679688 12.28125 -9.234375 C 13.0625 -8.785156 13.660156 -8.238281 14.078125 -7.59375 C 14.492188 -6.945312 14.703125 -6.113281 14.703125 -5.09375 Z M 14.703125 -5.09375 "/></g></g></g><g fill="#ffffff" fill-opacity="1"><g transform="translate(116.669755, 209.49017)"><g><path d="M 9.71875 -23.578125 C 11.757812 -23.578125 13.441406 -23.328125 14.765625 -22.828125 C 16.085938 -22.335938 17.070312 -21.585938 17.71875 -20.578125 C 18.375 -19.566406 18.703125 -18.28125 18.703125 -16.71875 C 18.703125 -15.5625 18.488281 -14.570312 18.0625 -13.75 C 17.632812 -12.9375 17.070312 -12.257812 16.375 -11.71875 C 15.675781 -11.1875 14.925781 -10.757812 14.125 -10.4375 L 20.828125 0 L 16.453125 0 L 10.75 -9.453125 L 6.96875 -9.453125 L 6.96875 0 L 3.09375 0 L 3.09375 -23.578125 Z M 9.46875 -20.359375 L 6.96875 -20.359375 L 6.96875 -12.640625 L 9.640625 -12.640625 C 11.441406 -12.640625 12.75 -12.972656 13.5625 -13.640625 C 14.375 -14.304688 14.78125 -15.289062 14.78125 -16.59375 C 14.78125 -17.957031 14.34375 -18.925781 13.46875 -19.5 C 12.601562 -20.070312 11.269531 -20.359375 9.46875 -20.359375 Z M 9.46875 -20.359375 "/></g></g></g><g fill="#ffffff" fill-opacity="1"><g transform="translate(137.768379, 209.49017)"><g><path d="M 9.828125 -18.1875 C 11.410156 -18.1875 12.769531 -17.859375 13.90625 -17.203125 C 15.050781 -16.546875 15.929688 -15.613281 16.546875 -14.40625 C 17.160156 -13.207031 17.46875 -11.769531 17.46875 -10.09375 L 17.46875 -8.0625 L 5.546875 -8.0625 C 5.585938 -6.332031 6.050781 -5 6.9375 -4.0625 C 7.832031 -3.125 9.078125 -2.65625 10.671875 -2.65625 C 11.816406 -2.65625 12.84375 -2.765625 13.75 -2.984375 C 14.65625 -3.210938 15.59375 -3.539062 16.5625 -3.96875 L 16.5625 -0.890625 C 15.664062 -0.472656 14.753906 -0.164062 13.828125 0.03125 C 12.910156 0.226562 11.804688 0.328125 10.515625 0.328125 C 8.765625 0.328125 7.222656 -0.0078125 5.890625 -0.6875 C 4.566406 -1.375 3.53125 -2.394531 2.78125 -3.75 C 2.03125 -5.113281 1.65625 -6.800781 1.65625 -8.8125 C 1.65625 -10.8125 1.992188 -12.507812 2.671875 -13.90625 C 3.347656 -15.300781 4.300781 -16.363281 5.53125 -17.09375 C 6.757812 -17.820312 8.191406 -18.1875 9.828125 -18.1875 Z M 9.828125 -15.34375 C 8.628906 -15.34375 7.660156 -14.953125 6.921875 -14.171875 C 6.191406 -13.398438 5.757812 -12.269531 5.625 -10.78125 L 13.75 -10.78125 C 13.738281 -11.664062 13.59375 -12.453125 13.3125 -13.140625 C 13.03125 -13.828125 12.597656 -14.363281 12.015625 -14.75 C 11.441406 -15.144531 10.710938 -15.34375 9.828125 -15.34375 Z M 15.09375 -25.3125 L 15.09375 -24.984375 C 14.84375 -24.671875 14.492188 -24.296875 14.046875 -23.859375 C 13.609375 -23.421875 13.128906 -22.960938 12.609375 -22.484375 C 12.097656 -22.015625 11.585938 -21.5625 11.078125 -21.125 C 10.578125 -20.6875 10.125 -20.316406 9.71875 -20.015625 L 7.1875 -20.015625 L 7.1875 -20.4375 C 7.539062 -20.84375 7.929688 -21.328125 8.359375 -21.890625 C 8.796875 -22.460938 9.226562 -23.050781 9.65625 -23.65625 C 10.082031 -24.257812 10.441406 -24.8125 10.734375 -25.3125 Z M 15.09375 -25.3125 "/></g></g></g><g fill="#ffffff" fill-opacity="1"><g transform="translate(156.802306, 209.49017)"><g><path d="M 6.796875 0 L 0 -17.859375 L 4.015625 -17.859375 L 7.6875 -7.375 C 7.925781 -6.707031 8.140625 -5.984375 8.328125 -5.203125 C 8.523438 -4.429688 8.660156 -3.785156 8.734375 -3.265625 L 8.875 -3.265625 C 8.945312 -3.804688 9.085938 -4.460938 9.296875 -5.234375 C 9.515625 -6.003906 9.738281 -6.71875 9.96875 -7.375 L 13.640625 -17.859375 L 17.640625 -17.859375 L 10.859375 0 Z M 6.796875 0 "/></g></g></g><g fill="#ffffff" fill-opacity="1"><g transform="translate(174.449015, 209.49017)"><g><path d="M 18.515625 -8.96875 C 18.515625 -7.476562 18.320312 -6.160156 17.9375 -5.015625 C 17.550781 -3.867188 16.984375 -2.898438 16.234375 -2.109375 C 15.492188 -1.316406 14.601562 -0.710938 13.5625 -0.296875 C 12.519531 0.117188 11.34375 0.328125 10.03125 0.328125 C 8.800781 0.328125 7.675781 0.117188 6.65625 -0.296875 C 5.632812 -0.710938 4.75 -1.316406 4 -2.109375 C 3.257812 -2.898438 2.679688 -3.867188 2.265625 -5.015625 C 1.859375 -6.160156 1.65625 -7.476562 1.65625 -8.96875 C 1.65625 -10.9375 1.992188 -12.601562 2.671875 -13.96875 C 3.359375 -15.34375 4.335938 -16.390625 5.609375 -17.109375 C 6.878906 -17.828125 8.390625 -18.1875 10.140625 -18.1875 C 11.785156 -18.1875 13.238281 -17.828125 14.5 -17.109375 C 15.757812 -16.390625 16.742188 -15.34375 17.453125 -13.96875 C 18.160156 -12.59375 18.515625 -10.925781 18.515625 -8.96875 Z M 5.5625 -8.96875 C 5.5625 -7.664062 5.71875 -6.550781 6.03125 -5.625 C 6.351562 -4.695312 6.847656 -3.988281 7.515625 -3.5 C 8.179688 -3.019531 9.039062 -2.78125 10.09375 -2.78125 C 11.144531 -2.78125 12.003906 -3.019531 12.671875 -3.5 C 13.335938 -3.988281 13.828125 -4.695312 14.140625 -5.625 C 14.453125 -6.550781 14.609375 -7.664062 14.609375 -8.96875 C 14.609375 -10.269531 14.453125 -11.375 14.140625 -12.28125 C 13.828125 -13.1875 13.335938 -13.878906 12.671875 -14.359375 C 12.003906 -14.835938 11.140625 -15.078125 10.078125 -15.078125 C 8.503906 -15.078125 7.359375 -14.550781 6.640625 -13.5 C 5.921875 -12.445312 5.5625 -10.9375 5.5625 -8.96875 Z M 5.5625 -8.96875 "/></g></g></g><g fill="#ffffff" fill-opacity="1"><g transform="translate(194.612073, 209.49017)"><g><path d="M 6.515625 0 L 2.703125 0 L 2.703125 -25.09375 L 6.515625 -25.09375 Z M 6.515625 0 "/></g></g></g><g fill="#ffffff" fill-opacity="1"><g transform="translate(203.822564, 209.49017)"><g><path d="M 18.28125 -17.859375 L 18.28125 0 L 15.296875 0 L 14.78125 -2.40625 L 14.5625 -2.40625 C 14.1875 -1.789062 13.707031 -1.28125 13.125 -0.875 C 12.539062 -0.476562 11.894531 -0.179688 11.1875 0.015625 C 10.476562 0.222656 9.734375 0.328125 8.953125 0.328125 C 7.609375 0.328125 6.457031 0.0976562 5.5 -0.359375 C 4.550781 -0.816406 3.820312 -1.523438 3.3125 -2.484375 C 2.8125 -3.441406 2.5625 -4.675781 2.5625 -6.1875 L 2.5625 -17.859375 L 6.375 -17.859375 L 6.375 -6.90625 C 6.375 -5.519531 6.65625 -4.484375 7.21875 -3.796875 C 7.78125 -3.109375 8.660156 -2.765625 9.859375 -2.765625 C 11.003906 -2.765625 11.914062 -3 12.59375 -3.46875 C 13.269531 -3.9375 13.75 -4.632812 14.03125 -5.5625 C 14.320312 -6.488281 14.46875 -7.625 14.46875 -8.96875 L 14.46875 -17.859375 Z M 18.28125 -17.859375 "/></g></g></g><g fill="#ffffff" fill-opacity="1"><g transform="translate(224.808281, 209.49017)"><g><path d="M 9.359375 -2.734375 C 9.847656 -2.734375 10.332031 -2.78125 10.8125 -2.875 C 11.300781 -2.96875 11.742188 -3.078125 12.140625 -3.203125 L 12.140625 -0.34375 C 11.722656 -0.15625 11.179688 0 10.515625 0.125 C 9.847656 0.257812 9.15625 0.328125 8.4375 0.328125 C 7.425781 0.328125 6.515625 0.160156 5.703125 -0.171875 C 4.898438 -0.515625 4.257812 -1.097656 3.78125 -1.921875 C 3.3125 -2.753906 3.078125 -3.90625 3.078125 -5.375 L 3.078125 -14.96875 L 0.640625 -14.96875 L 0.640625 -16.65625 L 3.265625 -18 L 4.5 -21.828125 L 6.890625 -21.828125 L 6.890625 -17.859375 L 12 -17.859375 L 12 -14.96875 L 6.890625 -14.96875 L 6.890625 -5.421875 C 6.890625 -4.515625 7.113281 -3.835938 7.5625 -3.390625 C 8.007812 -2.953125 8.609375 -2.734375 9.359375 -2.734375 Z M 9.359375 -2.734375 "/></g></g></g><g fill="#ffffff" fill-opacity="1"><g transform="translate(237.873942, 209.49017)"><g><path d="M 6.5 -17.859375 L 6.5 0 L 2.703125 0 L 2.703125 -17.859375 Z M 4.625 -24.6875 C 5.207031 -24.6875 5.710938 -24.53125 6.140625 -24.21875 C 6.566406 -23.90625 6.78125 -23.367188 6.78125 -22.609375 C 6.78125 -21.859375 6.566406 -21.320312 6.140625 -21 C 5.710938 -20.6875 5.207031 -20.53125 4.625 -20.53125 C 4.019531 -20.53125 3.507812 -20.6875 3.09375 -21 C 2.6875 -21.320312 2.484375 -21.859375 2.484375 -22.609375 C 2.484375 -23.367188 2.6875 -23.90625 3.09375 -24.21875 C 3.507812 -24.53125 4.019531 -24.6875 4.625 -24.6875 Z M 4.625 -24.6875 "/></g></g></g><g fill="#ffffff" fill-opacity="1"><g transform="translate(247.084433, 209.49017)"><g><path d="M 18.515625 -8.96875 C 18.515625 -7.476562 18.320312 -6.160156 17.9375 -5.015625 C 17.550781 -3.867188 16.984375 -2.898438 16.234375 -2.109375 C 15.492188 -1.316406 14.601562 -0.710938 13.5625 -0.296875 C 12.519531 0.117188 11.34375 0.328125 10.03125 0.328125 C 8.800781 0.328125 7.675781 0.117188 6.65625 -0.296875 C 5.632812 -0.710938 4.75 -1.316406 4 -2.109375 C 3.257812 -2.898438 2.679688 -3.867188 2.265625 -5.015625 C 1.859375 -6.160156 1.65625 -7.476562 1.65625 -8.96875 C 1.65625 -10.9375 1.992188 -12.601562 2.671875 -13.96875 C 3.359375 -15.34375 4.335938 -16.390625 5.609375 -17.109375 C 6.878906 -17.828125 8.390625 -18.1875 10.140625 -18.1875 C 11.785156 -18.1875 13.238281 -17.828125 14.5 -17.109375 C 15.757812 -16.390625 16.742188 -15.34375 17.453125 -13.96875 C 18.160156 -12.59375 18.515625 -10.925781 18.515625 -8.96875 Z M 5.5625 -8.96875 C 5.5625 -7.664062 5.71875 -6.550781 6.03125 -5.625 C 6.351562 -4.695312 6.847656 -3.988281 7.515625 -3.5 C 8.179688 -3.019531 9.039062 -2.78125 10.09375 -2.78125 C 11.144531 -2.78125 12.003906 -3.019531 12.671875 -3.5 C 13.335938 -3.988281 13.828125 -4.695312 14.140625 -5.625 C 14.453125 -6.550781 14.609375 -7.664062 14.609375 -8.96875 C 14.609375 -10.269531 14.453125 -11.375 14.140625 -12.28125 C 13.828125 -13.1875 13.335938 -13.878906 12.671875 -14.359375 C 12.003906 -14.835938 11.140625 -15.078125 10.078125 -15.078125 C 8.503906 -15.078125 7.359375 -14.550781 6.640625 -13.5 C 5.921875 -12.445312 5.5625 -10.9375 5.5625 -8.96875 Z M 5.5625 -8.96875 "/></g></g></g><g fill="#ffffff" fill-opacity="1"><g transform="translate(267.247491, 209.49017)"><g><path d="M 12.015625 -18.1875 C 14.023438 -18.1875 15.59375 -17.664062 16.71875 -16.625 C 17.84375 -15.59375 18.40625 -13.929688 18.40625 -11.640625 L 18.40625 0 L 14.609375 0 L 14.609375 -10.9375 C 14.609375 -12.320312 14.320312 -13.359375 13.75 -14.046875 C 13.1875 -14.742188 12.304688 -15.09375 11.109375 -15.09375 C 9.378906 -15.09375 8.175781 -14.5625 7.5 -13.5 C 6.832031 -12.4375 6.5 -10.894531 6.5 -8.875 L 6.5 0 L 2.703125 0 L 2.703125 -17.859375 L 5.65625 -17.859375 L 6.1875 -15.4375 L 6.40625 -15.4375 C 6.789062 -16.0625 7.269531 -16.570312 7.84375 -16.96875 C 8.414062 -17.375 9.0625 -17.675781 9.78125 -17.875 C 10.5 -18.082031 11.242188 -18.1875 12.015625 -18.1875 Z M 12.015625 -18.1875 "/></g></g></g><g fill="#ffffff" fill-opacity="1"><g transform="translate(288.233208, 209.49017)"><g><path d="M 12.015625 -18.1875 C 14.023438 -18.1875 15.59375 -17.664062 16.71875 -16.625 C 17.84375 -15.59375 18.40625 -13.929688 18.40625 -11.640625 L 18.40625 0 L 14.609375 0 L 14.609375 -10.9375 C 14.609375 -12.320312 14.320312 -13.359375 13.75 -14.046875 C 13.1875 -14.742188 12.304688 -15.09375 11.109375 -15.09375 C 9.378906 -15.09375 8.175781 -14.5625 7.5 -13.5 C 6.832031 -12.4375 6.5 -10.894531 6.5 -8.875 L 6.5 0 L 2.703125 0 L 2.703125 -17.859375 L 5.65625 -17.859375 L 6.1875 -15.4375 L 6.40625 -15.4375 C 6.789062 -16.0625 7.269531 -16.570312 7.84375 -16.96875 C 8.414062 -17.375 9.0625 -17.675781 9.78125 -17.875 C 10.5 -18.082031 11.242188 -18.1875 12.015625 -18.1875 Z M 12.015625 -18.1875 "/></g></g></g><g fill="#ffffff" fill-opacity="1"><g transform="translate(309.218925, 209.49017)"><g><path d="M 9.703125 -18.1875 C 11.960938 -18.1875 13.671875 -17.6875 14.828125 -16.6875 C 15.984375 -15.6875 16.5625 -14.128906 16.5625 -12.015625 L 16.5625 0 L 13.875 0 L 13.140625 -2.53125 L 13.015625 -2.53125 C 12.503906 -1.882812 11.976562 -1.351562 11.4375 -0.9375 C 10.90625 -0.519531 10.285156 -0.207031 9.578125 0 C 8.878906 0.21875 8.023438 0.328125 7.015625 0.328125 C 5.953125 0.328125 5 0.128906 4.15625 -0.265625 C 3.320312 -0.660156 2.660156 -1.257812 2.171875 -2.0625 C 1.691406 -2.875 1.453125 -3.894531 1.453125 -5.125 C 1.453125 -6.96875 2.132812 -8.347656 3.5 -9.265625 C 4.875 -10.191406 6.945312 -10.707031 9.71875 -10.8125 L 12.828125 -10.921875 L 12.828125 -11.859375 C 12.828125 -13.085938 12.535156 -13.96875 11.953125 -14.5 C 11.378906 -15.03125 10.570312 -15.296875 9.53125 -15.296875 C 8.632812 -15.296875 7.765625 -15.164062 6.921875 -14.90625 C 6.085938 -14.644531 5.273438 -14.328125 4.484375 -13.953125 L 3.265625 -16.625 C 4.128906 -17.09375 5.117188 -17.46875 6.234375 -17.75 C 7.347656 -18.039062 8.503906 -18.1875 9.703125 -18.1875 Z M 12.8125 -8.53125 L 10.5 -8.453125 C 8.601562 -8.390625 7.273438 -8.066406 6.515625 -7.484375 C 5.753906 -6.898438 5.375 -6.101562 5.375 -5.09375 C 5.375 -4.21875 5.632812 -3.578125 6.15625 -3.171875 C 6.6875 -2.765625 7.378906 -2.5625 8.234375 -2.5625 C 9.546875 -2.5625 10.632812 -2.9375 11.5 -3.6875 C 12.375 -4.4375 12.8125 -5.535156 12.8125 -6.984375 Z M 12.8125 -8.53125 "/></g></g></g><g fill="#ffffff" fill-opacity="1"><g transform="translate(328.381895, 209.49017)"><g><path d="M 6.5 -17.859375 L 6.5 0 L 2.703125 0 L 2.703125 -17.859375 Z M 4.625 -24.6875 C 5.207031 -24.6875 5.710938 -24.53125 6.140625 -24.21875 C 6.566406 -23.90625 6.78125 -23.367188 6.78125 -22.609375 C 6.78125 -21.859375 6.566406 -21.320312 6.140625 -21 C 5.710938 -20.6875 5.207031 -20.53125 4.625 -20.53125 C 4.019531 -20.53125 3.507812 -20.6875 3.09375 -21 C 2.6875 -21.320312 2.484375 -21.859375 2.484375 -22.609375 C 2.484375 -23.367188 2.6875 -23.90625 3.09375 -24.21875 C 3.507812 -24.53125 4.019531 -24.6875 4.625 -24.6875 Z M 4.625 -24.6875 "/></g></g></g><g fill="#ffffff" fill-opacity="1"><g transform="translate(337.592398, 209.49017)"><g><path d="M 11.75 -18.1875 C 12.050781 -18.1875 12.378906 -18.171875 12.734375 -18.140625 C 13.097656 -18.109375 13.40625 -18.066406 13.65625 -18.015625 L 13.3125 -14.46875 C 13.082031 -14.53125 12.800781 -14.578125 12.46875 -14.609375 C 12.144531 -14.640625 11.851562 -14.65625 11.59375 -14.65625 C 10.914062 -14.65625 10.269531 -14.546875 9.65625 -14.328125 C 9.039062 -14.109375 8.5 -13.773438 8.03125 -13.328125 C 7.5625 -12.878906 7.191406 -12.320312 6.921875 -11.65625 C 6.648438 -10.988281 6.515625 -10.21875 6.515625 -9.34375 L 6.515625 0 L 2.703125 0 L 2.703125 -17.859375 L 5.671875 -17.859375 L 6.1875 -14.703125 L 6.375 -14.703125 C 6.726562 -15.335938 7.164062 -15.914062 7.6875 -16.4375 C 8.21875 -16.96875 8.820312 -17.390625 9.5 -17.703125 C 10.1875 -18.023438 10.9375 -18.1875 11.75 -18.1875 Z M 11.75 -18.1875 "/></g></g></g><g fill="#ffffff" fill-opacity="1"><g transform="translate(351.851689, 209.49017)"><g><path d="M 9.828125 -18.1875 C 11.410156 -18.1875 12.769531 -17.859375 13.90625 -17.203125 C 15.050781 -16.546875 15.929688 -15.613281 16.546875 -14.40625 C 17.160156 -13.207031 17.46875 -11.769531 17.46875 -10.09375 L 17.46875 -8.0625 L 5.546875 -8.0625 C 5.585938 -6.332031 6.050781 -5 6.9375 -4.0625 C 7.832031 -3.125 9.078125 -2.65625 10.671875 -2.65625 C 11.816406 -2.65625 12.84375 -2.765625 13.75 -2.984375 C 14.65625 -3.210938 15.59375 -3.539062 16.5625 -3.96875 L 16.5625 -0.890625 C 15.664062 -0.472656 14.753906 -0.164062 13.828125 0.03125 C 12.910156 0.226562 11.804688 0.328125 10.515625 0.328125 C 8.765625 0.328125 7.222656 -0.0078125 5.890625 -0.6875 C 4.566406 -1.375 3.53125 -2.394531 2.78125 -3.75 C 2.03125 -5.113281 1.65625 -6.800781 1.65625 -8.8125 C 1.65625 -10.8125 1.992188 -12.507812 2.671875 -13.90625 C 3.347656 -15.300781 4.300781 -16.363281 5.53125 -17.09375 C 6.757812 -17.820312 8.191406 -18.1875 9.828125 -18.1875 Z M 9.828125 -15.34375 C 8.628906 -15.34375 7.660156 -14.953125 6.921875 -14.171875 C 6.191406 -13.398438 5.757812 -12.269531 5.625 -10.78125 L 13.75 -10.78125 C 13.738281 -11.664062 13.59375 -12.453125 13.3125 -13.140625 C 13.03125 -13.828125 12.597656 -14.363281 12.015625 -14.75 C 11.441406 -15.144531 10.710938 -15.34375 9.828125 -15.34375 Z M 9.828125 -15.34375 "/></g></g></g><g fill="#ffffff" fill-opacity="1"><g transform="translate(370.885639, 209.49017)"><g><path d="M 14.703125 -5.09375 C 14.703125 -3.925781 14.414062 -2.9375 13.84375 -2.125 C 13.28125 -1.320312 12.453125 -0.710938 11.359375 -0.296875 C 10.265625 0.117188 8.929688 0.328125 7.359375 0.328125 C 6.109375 0.328125 5.035156 0.238281 4.140625 0.0625 C 3.242188 -0.113281 2.394531 -0.390625 1.59375 -0.765625 L 1.59375 -4.03125 C 2.445312 -3.632812 3.398438 -3.289062 4.453125 -3 C 5.515625 -2.707031 6.519531 -2.5625 7.46875 -2.5625 C 8.71875 -2.5625 9.613281 -2.753906 10.15625 -3.140625 C 10.707031 -3.535156 10.984375 -4.0625 10.984375 -4.71875 C 10.984375 -5.113281 10.875 -5.460938 10.65625 -5.765625 C 10.4375 -6.066406 10.023438 -6.378906 9.421875 -6.703125 C 8.828125 -7.035156 7.957031 -7.4375 6.8125 -7.90625 C 5.675781 -8.351562 4.722656 -8.800781 3.953125 -9.25 C 3.179688 -9.707031 2.59375 -10.253906 2.1875 -10.890625 C 1.789062 -11.535156 1.59375 -12.359375 1.59375 -13.359375 C 1.59375 -14.929688 2.21875 -16.128906 3.46875 -16.953125 C 4.726562 -17.773438 6.390625 -18.1875 8.453125 -18.1875 C 9.546875 -18.1875 10.578125 -18.078125 11.546875 -17.859375 C 12.523438 -17.640625 13.484375 -17.320312 14.421875 -16.90625 L 13.21875 -14.046875 C 12.414062 -14.398438 11.609375 -14.691406 10.796875 -14.921875 C 9.984375 -15.160156 9.160156 -15.28125 8.328125 -15.28125 C 7.347656 -15.28125 6.601562 -15.128906 6.09375 -14.828125 C 5.582031 -14.523438 5.328125 -14.09375 5.328125 -13.53125 C 5.328125 -13.113281 5.445312 -12.757812 5.6875 -12.46875 C 5.9375 -12.175781 6.363281 -11.882812 6.96875 -11.59375 C 7.582031 -11.300781 8.429688 -10.941406 9.515625 -10.515625 C 10.578125 -10.109375 11.5 -9.679688 12.28125 -9.234375 C 13.0625 -8.785156 13.660156 -8.238281 14.078125 -7.59375 C 14.492188 -6.945312 14.703125 -6.113281 14.703125 -5.09375 Z M 14.703125 -5.09375 "/></g></g></g><g fill="#ffffff" fill-opacity="1"><g transform="translate(386.9677, 209.49017)"><g/></g></g><g fill="#ffffff" fill-opacity="1"><g transform="translate(395.549075, 209.49017)"><g><path d="M 1.328125 -7.359375 L 1.328125 -10.40625 L 15.1875 -10.40625 L 15.1875 -7.359375 Z M 1.328125 -7.359375 "/></g></g></g><g fill="#ffffff" fill-opacity="1"><g transform="translate(412.066652, 209.49017)"><g/></g></g><g fill="#ffffff" fill-opacity="1"><g transform="translate(420.648073, 209.49017)"><g><path d="M 3.09375 0 L 3.09375 -23.578125 L 6.96875 -23.578125 L 6.96875 0 Z M 3.09375 0 "/></g></g></g><g fill="#ffffff" fill-opacity="1"><g transform="translate(430.729585, 209.49017)"><g><path d="M 20.578125 -23.578125 L 12.34375 0 L 8.234375 0 L 0 -23.578125 L 3.96875 -23.578125 L 8.9375 -8.8125 C 9.082031 -8.375 9.242188 -7.847656 9.421875 -7.234375 C 9.597656 -6.628906 9.765625 -6.015625 9.921875 -5.390625 C 10.078125 -4.765625 10.203125 -4.207031 10.296875 -3.71875 C 10.378906 -4.207031 10.5 -4.765625 10.65625 -5.390625 C 10.8125 -6.015625 10.972656 -6.628906 11.140625 -7.234375 C 11.316406 -7.847656 11.476562 -8.378906 11.625 -8.828125 L 16.609375 -23.578125 Z M 20.578125 -23.578125 "/></g></g></g><g fill="#ffffff" fill-opacity="1"><g transform="translate(462.747863, 209.49017)"><g/></g></g><g fill="#ffffff" fill-opacity="1"><g transform="translate(471.32926, 209.49017)"><g><path d="M 3.09375 0 L 3.09375 -23.578125 L 6.96875 -23.578125 L 6.96875 0 Z M 3.09375 0 "/></g></g></g><g fill="#ffffff" fill-opacity="1"><g transform="translate(481.410795, 209.49017)"><g><path d="M 12.015625 -18.1875 C 14.023438 -18.1875 15.59375 -17.664062 16.71875 -16.625 C 17.84375 -15.59375 18.40625 -13.929688 18.40625 -11.640625 L 18.40625 0 L 14.609375 0 L 14.609375 -10.9375 C 14.609375 -12.320312 14.320312 -13.359375 13.75 -14.046875 C 13.1875 -14.742188 12.304688 -15.09375 11.109375 -15.09375 C 9.378906 -15.09375 8.175781 -14.5625 7.5 -13.5 C 6.832031 -12.4375 6.5 -10.894531 6.5 -8.875 L 6.5 0 L 2.703125 0 L 2.703125 -17.859375 L 5.65625 -17.859375 L 6.1875 -15.4375 L 6.40625 -15.4375 C 6.789062 -16.0625 7.269531 -16.570312 7.84375 -16.96875 C 8.414062 -17.375 9.0625 -17.675781 9.78125 -17.875 C 10.5 -18.082031 11.242188 -18.1875 12.015625 -18.1875 Z M 12.015625 -18.1875 "/></g></g></g><g fill="#ffffff" fill-opacity="1"><g transform="translate(502.396512, 209.49017)"><g><path d="M 9.359375 -2.734375 C 9.847656 -2.734375 10.332031 -2.78125 10.8125 -2.875 C 11.300781 -2.96875 11.742188 -3.078125 12.140625 -3.203125 L 12.140625 -0.34375 C 11.722656 -0.15625 11.179688 0 10.515625 0.125 C 9.847656 0.257812 9.15625 0.328125 8.4375 0.328125 C 7.425781 0.328125 6.515625 0.160156 5.703125 -0.171875 C 4.898438 -0.515625 4.257812 -1.097656 3.78125 -1.921875 C 3.3125 -2.753906 3.078125 -3.90625 3.078125 -5.375 L 3.078125 -14.96875 L 0.640625 -14.96875 L 0.640625 -16.65625 L 3.265625 -18 L 4.5 -21.828125 L 6.890625 -21.828125 L 6.890625 -17.859375 L 12 -17.859375 L 12 -14.96875 L 6.890625 -14.96875 L 6.890625 -5.421875 C 6.890625 -4.515625 7.113281 -3.835938 7.5625 -3.390625 C 8.007812 -2.953125 8.609375 -2.734375 9.359375 -2.734375 Z M 9.359375 -2.734375 "/></g></g></g><g fill="#ffffff" fill-opacity="1"><g transform="translate(515.462173, 209.49017)"><g><path d="M 9.828125 -18.1875 C 11.410156 -18.1875 12.769531 -17.859375 13.90625 -17.203125 C 15.050781 -16.546875 15.929688 -15.613281 16.546875 -14.40625 C 17.160156 -13.207031 17.46875 -11.769531 17.46875 -10.09375 L 17.46875 -8.0625 L 5.546875 -8.0625 C 5.585938 -6.332031 6.050781 -5 6.9375 -4.0625 C 7.832031 -3.125 9.078125 -2.65625 10.671875 -2.65625 C 11.816406 -2.65625 12.84375 -2.765625 13.75 -2.984375 C 14.65625 -3.210938 15.59375 -3.539062 16.5625 -3.96875 L 16.5625 -0.890625 C 15.664062 -0.472656 14.753906 -0.164062 13.828125 0.03125 C 12.910156 0.226562 11.804688 0.328125 10.515625 0.328125 C 8.765625 0.328125 7.222656 -0.0078125 5.890625 -0.6875 C 4.566406 -1.375 3.53125 -2.394531 2.78125 -3.75 C 2.03125 -5.113281 1.65625 -6.800781 1.65625 -8.8125 C 1.65625 -10.8125 1.992188 -12.507812 2.671875 -13.90625 C 3.347656 -15.300781 4.300781 -16.363281 5.53125 -17.09375 C 6.757812 -17.820312 8.191406 -18.1875 9.828125 -18.1875 Z M 9.828125 -15.34375 C 8.628906 -15.34375 7.660156 -14.953125 6.921875 -14.171875 C 6.191406 -13.398438 5.757812 -12.269531 5.625 -10.78125 L 13.75 -10.78125 C 13.738281 -11.664062 13.59375 -12.453125 13.3125 -13.140625 C 13.03125 -13.828125 12.597656 -14.363281 12.015625 -14.75 C 11.441406 -15.144531 10.710938 -15.34375 9.828125 -15.34375 Z M 9.828125 -15.34375 "/></g></g></g><g fill="#ffffff" fill-opacity="1"><g transform="translate(534.496101, 209.49017)"><g><path d="M 11.75 -18.1875 C 12.050781 -18.1875 12.378906 -18.171875 12.734375 -18.140625 C 13.097656 -18.109375 13.40625 -18.066406 13.65625 -18.015625 L 13.3125 -14.46875 C 13.082031 -14.53125 12.800781 -14.578125 12.46875 -14.609375 C 12.144531 -14.640625 11.851562 -14.65625 11.59375 -14.65625 C 10.914062 -14.65625 10.269531 -14.546875 9.65625 -14.328125 C 9.039062 -14.109375 8.5 -13.773438 8.03125 -13.328125 C 7.5625 -12.878906 7.191406 -12.320312 6.921875 -11.65625 C 6.648438 -10.988281 6.515625 -10.21875 6.515625 -9.34375 L 6.515625 0 L 2.703125 0 L 2.703125 -17.859375 L 5.671875 -17.859375 L 6.1875 -14.703125 L 6.375 -14.703125 C 6.726562 -15.335938 7.164062 -15.914062 7.6875 -16.4375 C 8.21875 -16.96875 8.820312 -17.390625 9.5 -17.703125 C 10.1875 -18.023438 10.9375 -18.1875 11.75 -18.1875 Z M 11.75 -18.1875 "/></g></g></g><g fill="#ffffff" fill-opacity="1"><g transform="translate(548.755416, 209.49017)"><g><path d="M 12.015625 -18.1875 C 14.023438 -18.1875 15.59375 -17.664062 16.71875 -16.625 C 17.84375 -15.59375 18.40625 -13.929688 18.40625 -11.640625 L 18.40625 0 L 14.609375 0 L 14.609375 -10.9375 C 14.609375 -12.320312 14.320312 -13.359375 13.75 -14.046875 C 13.1875 -14.742188 12.304688 -15.09375 11.109375 -15.09375 C 9.378906 -15.09375 8.175781 -14.5625 7.5 -13.5 C 6.832031 -12.4375 6.5 -10.894531 6.5 -8.875 L 6.5 0 L 2.703125 0 L 2.703125 -17.859375 L 5.65625 -17.859375 L 6.1875 -15.4375 L 6.40625 -15.4375 C 6.789062 -16.0625 7.269531 -16.570312 7.84375 -16.96875 C 8.414062 -17.375 9.0625 -17.675781 9.78125 -17.875 C 10.5 -18.082031 11.242188 -18.1875 12.015625 -18.1875 Z M 12.015625 -18.1875 "/></g></g></g><g fill="#ffffff" fill-opacity="1"><g transform="translate(569.741133, 209.49017)"><g><path d="M 9.703125 -18.1875 C 11.960938 -18.1875 13.671875 -17.6875 14.828125 -16.6875 C 15.984375 -15.6875 16.5625 -14.128906 16.5625 -12.015625 L 16.5625 0 L 13.875 0 L 13.140625 -2.53125 L 13.015625 -2.53125 C 12.503906 -1.882812 11.976562 -1.351562 11.4375 -0.9375 C 10.90625 -0.519531 10.285156 -0.207031 9.578125 0 C 8.878906 0.21875 8.023438 0.328125 7.015625 0.328125 C 5.953125 0.328125 5 0.128906 4.15625 -0.265625 C 3.320312 -0.660156 2.660156 -1.257812 2.171875 -2.0625 C 1.691406 -2.875 1.453125 -3.894531 1.453125 -5.125 C 1.453125 -6.96875 2.132812 -8.347656 3.5 -9.265625 C 4.875 -10.191406 6.945312 -10.707031 9.71875 -10.8125 L 12.828125 -10.921875 L 12.828125 -11.859375 C 12.828125 -13.085938 12.535156 -13.96875 11.953125 -14.5 C 11.378906 -15.03125 10.570312 -15.296875 9.53125 -15.296875 C 8.632812 -15.296875 7.765625 -15.164062 6.921875 -14.90625 C 6.085938 -14.644531 5.273438 -14.328125 4.484375 -13.953125 L 3.265625 -16.625 C 4.128906 -17.09375 5.117188 -17.46875 6.234375 -17.75 C 7.347656 -18.039062 8.503906 -18.1875 9.703125 -18.1875 Z M 12.8125 -8.53125 L 10.5 -8.453125 C 8.601562 -8.390625 7.273438 -8.066406 6.515625 -7.484375 C 5.753906 -6.898438 5.375 -6.101562 5.375 -5.09375 C 5.375 -4.21875 5.632812 -3.578125 6.15625 -3.171875 C 6.6875 -2.765625 7.378906 -2.5625 8.234375 -2.5625 C 9.546875 -2.5625 10.632812 -2.9375 11.5 -3.6875 C 12.375 -4.4375 12.8125 -5.535156 12.8125 -6.984375 Z M 12.8125 -8.53125 "/></g></g></g><g fill="#ffffff" fill-opacity="1"><g transform="translate(588.904103, 209.49017)"><g><path d="M 9.359375 -2.734375 C 9.847656 -2.734375 10.332031 -2.78125 10.8125 -2.875 C 11.300781 -2.96875 11.742188 -3.078125 12.140625 -3.203125 L 12.140625 -0.34375 C 11.722656 -0.15625 11.179688 0 10.515625 0.125 C 9.847656 0.257812 9.15625 0.328125 8.4375 0.328125 C 7.425781 0.328125 6.515625 0.160156 5.703125 -0.171875 C 4.898438 -0.515625 4.257812 -1.097656 3.78125 -1.921875 C 3.3125 -2.753906 3.078125 -3.90625 3.078125 -5.375 L 3.078125 -14.96875 L 0.640625 -14.96875 L 0.640625 -16.65625 L 3.265625 -18 L 4.5 -21.828125 L 6.890625 -21.828125 L 6.890625 -17.859375 L 12 -17.859375 L 12 -14.96875 L 6.890625 -14.96875 L 6.890625 -5.421875 C 6.890625 -4.515625 7.113281 -3.835938 7.5625 -3.390625 C 8.007812 -2.953125 8.609375 -2.734375 9.359375 -2.734375 Z M 9.359375 -2.734375 "/></g></g></g><g fill="#ffffff" fill-opacity="1"><g transform="translate(601.969765, 209.49017)"><g><path d="M 6.5 -17.859375 L 6.5 0 L 2.703125 0 L 2.703125 -17.859375 Z M 4.625 -24.6875 C 5.207031 -24.6875 5.710938 -24.53125 6.140625 -24.21875 C 6.566406 -23.90625 6.78125 -23.367188 6.78125 -22.609375 C 6.78125 -21.859375 6.566406 -21.320312 6.140625 -21 C 5.710938 -20.6875 5.207031 -20.53125 4.625 -20.53125 C 4.019531 -20.53125 3.507812 -20.6875 3.09375 -21 C 2.6875 -21.320312 2.484375 -21.859375 2.484375 -22.609375 C 2.484375 -23.367188 2.6875 -23.90625 3.09375 -24.21875 C 3.507812 -24.53125 4.019531 -24.6875 4.625 -24.6875 Z M 4.625 -24.6875 "/></g></g></g><g fill="#ffffff" fill-opacity="1"><g transform="translate(611.180256, 209.49017)"><g><path d="M 18.515625 -8.96875 C 18.515625 -7.476562 18.320312 -6.160156 17.9375 -5.015625 C 17.550781 -3.867188 16.984375 -2.898438 16.234375 -2.109375 C 15.492188 -1.316406 14.601562 -0.710938 13.5625 -0.296875 C 12.519531 0.117188 11.34375 0.328125 10.03125 0.328125 C 8.800781 0.328125 7.675781 0.117188 6.65625 -0.296875 C 5.632812 -0.710938 4.75 -1.316406 4 -2.109375 C 3.257812 -2.898438 2.679688 -3.867188 2.265625 -5.015625 C 1.859375 -6.160156 1.65625 -7.476562 1.65625 -8.96875 C 1.65625 -10.9375 1.992188 -12.601562 2.671875 -13.96875 C 3.359375 -15.34375 4.335938 -16.390625 5.609375 -17.109375 C 6.878906 -17.828125 8.390625 -18.1875 10.140625 -18.1875 C 11.785156 -18.1875 13.238281 -17.828125 14.5 -17.109375 C 15.757812 -16.390625 16.742188 -15.34375 17.453125 -13.96875 C 18.160156 -12.59375 18.515625 -10.925781 18.515625 -8.96875 Z M 5.5625 -8.96875 C 5.5625 -7.664062 5.71875 -6.550781 6.03125 -5.625 C 6.351562 -4.695312 6.847656 -3.988281 7.515625 -3.5 C 8.179688 -3.019531 9.039062 -2.78125 10.09375 -2.78125 C 11.144531 -2.78125 12.003906 -3.019531 12.671875 -3.5 C 13.335938 -3.988281 13.828125 -4.695312 14.140625 -5.625 C 14.453125 -6.550781 14.609375 -7.664062 14.609375 -8.96875 C 14.609375 -10.269531 14.453125 -11.375 14.140625 -12.28125 C 13.828125 -13.1875 13.335938 -13.878906 12.671875 -14.359375 C 12.003906 -14.835938 11.140625 -15.078125 10.078125 -15.078125 C 8.503906 -15.078125 7.359375 -14.550781 6.640625 -13.5 C 5.921875 -12.445312 5.5625 -10.9375 5.5625 -8.96875 Z M 5.5625 -8.96875 "/></g></g></g><g fill="#ffffff" fill-opacity="1"><g transform="translate(631.343314, 209.49017)"><g><path d="M 12.015625 -18.1875 C 14.023438 -18.1875 15.59375 -17.664062 16.71875 -16.625 C 17.84375 -15.59375 18.40625 -13.929688 18.40625 -11.640625 L 18.40625 0 L 14.609375 0 L 14.609375 -10.9375 C 14.609375 -12.320312 14.320312 -13.359375 13.75 -14.046875 C 13.1875 -14.742188 12.304688 -15.09375 11.109375 -15.09375 C 9.378906 -15.09375 8.175781 -14.5625 7.5 -13.5 C 6.832031 -12.4375 6.5 -10.894531 6.5 -8.875 L 6.5 0 L 2.703125 0 L 2.703125 -17.859375 L 5.65625 -17.859375 L 6.1875 -15.4375 L 6.40625 -15.4375 C 6.789062 -16.0625 7.269531 -16.570312 7.84375 -16.96875 C 8.414062 -17.375 9.0625 -17.675781 9.78125 -17.875 C 10.5 -18.082031 11.242188 -18.1875 12.015625 -18.1875 Z M 12.015625 -18.1875 "/></g></g></g><g fill="#ffffff" fill-opacity="1"><g transform="translate(652.329031, 209.49017)"><g><path d="M 9.703125 -18.1875 C 11.960938 -18.1875 13.671875 -17.6875 14.828125 -16.6875 C 15.984375 -15.6875 16.5625 -14.128906 16.5625 -12.015625 L 16.5625 0 L 13.875 0 L 13.140625 -2.53125 L 13.015625 -2.53125 C 12.503906 -1.882812 11.976562 -1.351562 11.4375 -0.9375 C 10.90625 -0.519531 10.285156 -0.207031 9.578125 0 C 8.878906 0.21875 8.023438 0.328125 7.015625 0.328125 C 5.953125 0.328125 5 0.128906 4.15625 -0.265625 C 3.320312 -0.660156 2.660156 -1.257812 2.171875 -2.0625 C 1.691406 -2.875 1.453125 -3.894531 1.453125 -5.125 C 1.453125 -6.96875 2.132812 -8.347656 3.5 -9.265625 C 4.875 -10.191406 6.945312 -10.707031 9.71875 -10.8125 L 12.828125 -10.921875 L 12.828125 -11.859375 C 12.828125 -13.085938 12.535156 -13.96875 11.953125 -14.5 C 11.378906 -15.03125 10.570312 -15.296875 9.53125 -15.296875 C 8.632812 -15.296875 7.765625 -15.164062 6.921875 -14.90625 C 6.085938 -14.644531 5.273438 -14.328125 4.484375 -13.953125 L 3.265625 -16.625 C 4.128906 -17.09375 5.117188 -17.46875 6.234375 -17.75 C 7.347656 -18.039062 8.503906 -18.1875 9.703125 -18.1875 Z M 12.8125 -8.53125 L 10.5 -8.453125 C 8.601562 -8.390625 7.273438 -8.066406 6.515625 -7.484375 C 5.753906 -6.898438 5.375 -6.101562 5.375 -5.09375 C 5.375 -4.21875 5.632812 -3.578125 6.15625 -3.171875 C 6.6875 -2.765625 7.378906 -2.5625 8.234375 -2.5625 C 9.546875 -2.5625 10.632812 -2.9375 11.5 -3.6875 C 12.375 -4.4375 12.8125 -5.535156 12.8125 -6.984375 Z M 12.8125 -8.53125 "/></g></g></g><g fill="#ffffff" fill-opacity="1"><g transform="translate(671.492001, 209.49017)"><g><path d="M 6.515625 0 L 2.703125 0 L 2.703125 -25.09375 L 6.515625 -25.09375 Z M 6.515625 0 "/></g></g></g><g fill="#ffffff" fill-opacity="1"><g transform="translate(680.702504, 209.49017)"><g><path d="M 9.828125 -18.1875 C 11.410156 -18.1875 12.769531 -17.859375 13.90625 -17.203125 C 15.050781 -16.546875 15.929688 -15.613281 16.546875 -14.40625 C 17.160156 -13.207031 17.46875 -11.769531 17.46875 -10.09375 L 17.46875 -8.0625 L 5.546875 -8.0625 C 5.585938 -6.332031 6.050781 -5 6.9375 -4.0625 C 7.832031 -3.125 9.078125 -2.65625 10.671875 -2.65625 C 11.816406 -2.65625 12.84375 -2.765625 13.75 -2.984375 C 14.65625 -3.210938 15.59375 -3.539062 16.5625 -3.96875 L 16.5625 -0.890625 C 15.664062 -0.472656 14.753906 -0.164062 13.828125 0.03125 C 12.910156 0.226562 11.804688 0.328125 10.515625 0.328125 C 8.765625 0.328125 7.222656 -0.0078125 5.890625 -0.6875 C 4.566406 -1.375 3.53125 -2.394531 2.78125 -3.75 C 2.03125 -5.113281 1.65625 -6.800781 1.65625 -8.8125 C 1.65625 -10.8125 1.992188 -12.507812 2.671875 -13.90625 C 3.347656 -15.300781 4.300781 -16.363281 5.53125 -17.09375 C 6.757812 -17.820312 8.191406 -18.1875 9.828125 -18.1875 Z M 9.828125 -15.34375 C 8.628906 -15.34375 7.660156 -14.953125 6.921875 -14.171875 C 6.191406 -13.398438 5.757812 -12.269531 5.625 -10.78125 L 13.75 -10.78125 C 13.738281 -11.664062 13.59375 -12.453125 13.3125 -13.140625 C 13.03125 -13.828125 12.597656 -14.363281 12.015625 -14.75 C 11.441406 -15.144531 10.710938 -15.34375 9.828125 -15.34375 Z M 9.828125 -15.34375 "/></g></g></g><g fill="#ffffff" fill-opacity="1"><g transform="translate(451.322086, 195.240171)"><g><path d="M 5.890625 -10.921875 C 6.847656 -10.921875 7.664062 -10.722656 8.34375 -10.328125 C 9.03125 -9.929688 9.554688 -9.375 9.921875 -8.65625 C 10.296875 -7.9375 10.484375 -7.070312 10.484375 -6.0625 L 10.484375 -4.84375 L 3.328125 -4.84375 C 3.359375 -3.800781 3.640625 -3 4.171875 -2.4375 C 4.703125 -1.875 5.445312 -1.59375 6.40625 -1.59375 C 7.09375 -1.59375 7.707031 -1.660156 8.25 -1.796875 C 8.800781 -1.929688 9.363281 -2.125 9.9375 -2.375 L 9.9375 -0.53125 C 9.40625 -0.28125 8.859375 -0.0976562 8.296875 0.015625 C 7.742188 0.128906 7.082031 0.1875 6.3125 0.1875 C 5.257812 0.1875 4.332031 -0.015625 3.53125 -0.421875 C 2.738281 -0.828125 2.117188 -1.4375 1.671875 -2.25 C 1.222656 -3.0625 1 -4.070312 1 -5.28125 C 1 -6.488281 1.203125 -7.507812 1.609375 -8.34375 C 2.015625 -9.1875 2.582031 -9.828125 3.3125 -10.265625 C 4.050781 -10.703125 4.910156 -10.921875 5.890625 -10.921875 Z M 5.890625 -9.203125 C 5.179688 -9.203125 4.601562 -8.96875 4.15625 -8.5 C 3.71875 -8.039062 3.457031 -7.363281 3.375 -6.46875 L 8.265625 -6.46875 C 8.253906 -7 8.160156 -7.472656 7.984375 -7.890625 C 7.816406 -8.304688 7.5625 -8.628906 7.21875 -8.859375 C 6.875 -9.085938 6.429688 -9.203125 5.890625 -9.203125 Z M 5.890625 -9.203125 "/></g></g></g><g clip-path="url(#4bf906e37b)"><path fill="#ffffff" d="M 526.171875 543.59375 C 522.945312 542.453125 514.308594 537.652344 504.300781 531.445312 C 502.523438 530.34375 500.511719 529.097656 499.824219 528.679688 C 499.113281 528.242188 498.578125 527.691406 498.578125 527.394531 C 498.578125 526.085938 501.03125 520.597656 507.601562 507.203125 C 509.941406 502.4375 512.164062 497.851562 512.542969 497.011719 L 513.234375 495.484375 L 510.382812 492.917969 C 495.621094 479.632812 492.6875 475.875 485.507812 461.089844 C 484.179688 458.355469 481.625 451.667969 480.96875 449.214844 C 480.625 447.933594 480.292969 446.804688 480.234375 446.703125 C 480.171875 446.605469 479.792969 444.613281 479.394531 442.28125 C 478.34375 436.160156 477.894531 427.863281 478.136719 419.152344 C 478.789062 395.742188 479.199219 392.617188 483.367188 379.292969 C 489.285156 360.359375 496.792969 346.003906 507.941406 332.300781 C 511.855469 327.488281 513.542969 325.65625 521.015625 318.105469 C 529.195312 309.835938 535.988281 303.753906 542.335938 299.015625 C 547.753906 294.96875 548.320312 294.570312 551.140625 292.796875 C 552.503906 291.941406 554.078125 290.941406 554.644531 290.578125 C 560.234375 286.964844 575.441406 278.894531 582.054688 276.023438 C 583.496094 275.394531 585.433594 274.726562 586.351562 274.539062 C 587.863281 274.226562 588.125 274.25 589.019531 274.769531 C 590.375 275.5625 590.96875 276.660156 590.546875 277.59375 C 590.238281 278.265625 585.832031 281.398438 583.265625 282.773438 C 579.902344 284.574219 573.171875 289.335938 567.855469 293.675781 C 549.503906 308.664062 531.152344 333.910156 520.664062 358.585938 C 517.699219 365.554688 514.734375 374.027344 512.847656 380.910156 C 510.929688 387.898438 510.527344 392.683594 510.492188 408.8125 C 510.460938 424.503906 510.996094 432.664062 512.105469 433.351562 C 512.273438 433.457031 512.683594 433.296875 513.015625 432.996094 C 513.726562 432.359375 516.15625 428.8125 517.609375 426.296875 C 520.214844 421.777344 526.542969 410.382812 528.136719 407.34375 C 529.113281 405.484375 531.359375 401.253906 533.132812 397.945312 C 534.90625 394.632812 537.710938 389.28125 539.371094 386.050781 C 541.027344 382.816406 542.617188 379.777344 542.902344 379.292969 C 543.621094 378.058594 550.636719 364.539062 553.035156 359.761719 C 554.128906 357.582031 557.699219 350.640625 560.96875 344.34375 C 564.238281 338.042969 568.984375 328.699219 571.519531 323.578125 C 576.777344 312.945312 576.605469 314.046875 573.40625 311.671875 C 571.9375 310.582031 571.328125 309.882812 570.644531 308.507812 C 569.796875 306.804688 569.769531 306.617188 569.773438 302.636719 C 569.777344 299.007812 569.859375 298.320312 570.472656 296.777344 C 571.289062 294.722656 573.359375 292.375 574.761719 291.914062 C 576.089844 291.472656 577.375 291.847656 582.089844 294.042969 C 588.246094 296.90625 591.597656 298.078125 596.699219 299.148438 C 599.820312 299.804688 601.042969 299.90625 606.015625 299.921875 C 612.925781 299.941406 614.816406 299.539062 620.25 296.898438 C 624.210938 294.976562 626.992188 293.945312 628.320312 293.90625 C 629.371094 293.878906 638.601562 298.484375 645.789062 302.628906 C 648.375 304.117188 651.082031 305.671875 651.808594 306.078125 C 654.21875 307.4375 660.140625 310.898438 662.375 312.253906 C 663.585938 312.988281 666.625 314.835938 669.128906 316.359375 C 671.628906 317.882812 675.0625 319.964844 676.757812 320.988281 C 678.453125 322.011719 680.699219 323.402344 681.75 324.082031 C 682.800781 324.765625 684.847656 326.09375 686.300781 327.035156 C 693.019531 331.402344 695.957031 333.976562 696.292969 335.800781 C 696.386719 336.3125 696.257812 337.277344 695.992188 338.019531 C 693.835938 344.097656 678.363281 364.292969 674.175781 366.492188 C 673.785156 366.699219 673.121094 366.769531 672.617188 366.65625 C 671.082031 366.320312 664.554688 363.238281 653.542969 357.65625 C 641.792969 351.699219 637.203125 349.585938 636.828125 349.964844 C 636.484375 350.3125 633.554688 355.507812 631.800781 358.878906 C 631 360.414062 628.761719 364.710938 626.828125 368.425781 C 621.632812 378.398438 607.160156 407.421875 606.046875 410.101562 C 605.019531 412.570312 605.078125 412.910156 606.542969 412.917969 C 607.269531 412.921875 609.542969 410.835938 610.75 409.058594 C 613.542969 404.941406 615.199219 402.277344 618.140625 397.175781 C 622.773438 389.128906 622.78125 389.113281 623.359375 387.957031 C 623.644531 387.394531 624.976562 384.988281 626.320312 382.613281 C 627.664062 380.238281 629.796875 376.4375 631.058594 374.164062 L 633.351562 370.03125 L 640.304688 370.199219 C 650.570312 370.449219 654.605469 370.804688 656.210938 371.59375 C 657.371094 372.167969 657.578125 372.417969 657.929688 373.695312 C 658.292969 375.003906 658.273438 375.363281 657.734375 377.382812 C 656.601562 381.613281 653.460938 388.285156 647.710938 398.679688 C 642.925781 407.324219 641.535156 409.917969 641.535156 410.183594 C 641.535156 410.332031 643.496094 410.617188 645.898438 410.816406 C 650.191406 411.167969 654.050781 411.761719 654.703125 412.164062 C 654.886719 412.277344 655.039062 412.519531 655.039062 412.703125 C 655.039062 413.089844 653.320312 416.488281 651.960938 418.796875 C 651.4375 419.6875 650.574219 421.207031 650.046875 422.175781 C 649.515625 423.144531 648.542969 424.898438 647.878906 426.074219 C 647.214844 427.25 646.472656 428.570312 646.226562 429.011719 C 645.980469 429.449219 645.046875 431.066406 644.144531 432.601562 C 643.246094 434.136719 641.597656 436.945312 640.488281 438.84375 C 638.988281 441.40625 638.316406 442.292969 637.886719 442.292969 C 637.566406 442.292969 634.789062 442.492188 631.714844 442.730469 C 628.636719 442.96875 625.496094 443.203125 624.726562 443.246094 L 623.332031 443.320312 L 621.691406 446.847656 C 617.90625 454.976562 616.207031 459.371094 615.851562 461.953125 L 615.636719 463.503906 L 617.210938 463.292969 C 618.894531 463.070312 623.714844 461.628906 632.421875 458.742188 C 638.136719 456.847656 640.910156 456.347656 642.328125 456.957031 C 642.78125 457.152344 644 458.441406 645.054688 459.847656 C 646.929688 462.34375 649.476562 465.691406 653.480469 470.929688 C 654.589844 472.382812 656.976562 475.519531 658.777344 477.894531 C 660.578125 480.269531 662.554688 482.871094 663.167969 483.667969 C 663.78125 484.46875 665.207031 486.402344 666.339844 487.96875 C 667.46875 489.53125 668.925781 491.492188 669.574219 492.328125 C 670.222656 493.160156 671.246094 494.566406 671.851562 495.457031 C 672.457031 496.34375 674.304688 499.054688 675.960938 501.480469 C 682.550781 511.140625 684.210938 514.636719 684.890625 520.273438 C 685.5 525.355469 685.238281 526.363281 682.675781 528.828125 C 678.917969 532.441406 667.566406 538.660156 661.097656 540.652344 C 658.09375 541.578125 657.640625 541.507812 656.203125 539.878906 C 654.800781 538.292969 650.984375 532.5625 648.429688 528.203125 C 641.125 515.730469 638.757812 511.757812 637.058594 509.082031 C 636.289062 507.878906 635.664062 506.839844 635.664062 506.773438 C 635.664062 506.527344 632.410156 502.128906 631.269531 500.832031 L 630.085938 499.484375 L 627.222656 500.445312 C 625.648438 500.972656 623.964844 501.574219 623.480469 501.78125 C 622.996094 501.988281 619.230469 503.285156 615.113281 504.667969 C 603.847656 508.445312 599.765625 509.585938 590.75 511.460938 C 580.640625 513.566406 569.171875 514.117188 561.902344 512.851562 C 558.328125 512.226562 552.445312 511.96875 550.957031 512.367188 C 550.289062 512.546875 546.457031 518.175781 541.289062 526.570312 C 534.9375 536.878906 529.480469 544.25 528.238281 544.191406 C 527.988281 544.179688 527.058594 543.910156 526.167969 543.59375 Z M 527.117188 533.417969 C 527.824219 532.363281 532.253906 524.460938 533.171875 522.625 C 533.414062 522.140625 535.105469 519.054688 536.9375 515.769531 C 538.765625 512.488281 540.261719 509.742188 540.261719 509.675781 C 540.261719 509.605469 541.628906 507.074219 543.300781 504.046875 C 544.976562 501.015625 546.808594 497.679688 547.371094 496.628906 C 547.9375 495.582031 548.761719 494.058594 549.203125 493.253906 C 549.640625 492.445312 551.199219 489.539062 552.660156 486.792969 C 554.121094 484.042969 555.621094 481.335938 555.988281 480.769531 C 556.355469 480.203125 556.828125 479.335938 557.042969 478.839844 C 557.257812 478.34375 558.570312 475.832031 559.960938 473.261719 C 564.289062 465.25 570.078125 454.304688 571.367188 451.691406 C 572.046875 450.320312 572.707031 449.0625 572.832031 448.902344 C 572.957031 448.742188 573.335938 447.863281 573.671875 446.949219 L 574.28125 445.289062 L 573.015625 445.1875 C 572.320312 445.128906 568.042969 445.160156 563.511719 445.25 C 557.152344 445.378906 555.164062 445.507812 554.789062 445.820312 C 554.519531 446.042969 553.910156 446.957031 553.429688 447.855469 C 552.953125 448.753906 552.003906 450.433594 551.328125 451.585938 C 550.648438 452.738281 549.582031 454.589844 548.957031 455.699219 C 548.335938 456.808594 547.53125 458.175781 547.171875 458.742188 C 546.386719 459.988281 543.769531 464.371094 542.96875 465.789062 C 541.613281 468.183594 538.042969 474.335938 536.742188 476.511719 C 535.972656 477.804688 534.566406 480.179688 533.617188 481.789062 C 532.667969 483.402344 531.761719 484.9375 531.601562 485.199219 C 531.4375 485.464844 530.925781 486.390625 530.460938 487.261719 C 529.992188 488.128906 529.320312 489.304688 528.964844 489.871094 C 528.605469 490.4375 527.824219 491.8125 527.226562 492.921875 C 526.628906 494.03125 525.945312 495.132812 525.714844 495.367188 C 525.480469 495.601562 525.289062 495.910156 525.289062 496.054688 C 525.289062 496.199219 524.492188 497.675781 523.515625 499.335938 C 522.539062 501 521.585938 502.621094 521.402344 502.945312 C 521.007812 503.632812 513.628906 516.648438 512.910156 517.929688 C 511.117188 521.109375 509.714844 524.0625 509.839844 524.386719 C 510.019531 524.855469 512.890625 526.917969 516.136719 528.910156 C 517.480469 529.734375 518.617188 530.40625 518.664062 530.40625 C 518.710938 530.40625 519.921875 531.085938 521.359375 531.910156 C 524.65625 533.8125 525.964844 534.519531 526.199219 534.519531 C 526.300781 534.519531 526.714844 534.023438 527.117188 533.417969 Z M 664.042969 531.269531 C 665.695312 530.652344 670.21875 527.722656 671.6875 526.320312 C 674.582031 523.554688 674.898438 521.941406 673.574219 516.675781 C 672.828125 513.722656 672.234375 512.234375 670.21875 508.308594 C 667.171875 502.375 664.941406 499.027344 662.0625 496.085938 C 660.824219 494.816406 658.183594 491.371094 651.679688 482.53125 C 649.214844 479.183594 646.34375 475.460938 645.277344 474.242188 C 642.507812 471.0625 638.960938 467.453125 638.253906 467.085938 C 636.542969 466.203125 631.535156 466.925781 627.003906 468.714844 C 625.710938 469.226562 624.125 469.820312 623.480469 470.03125 C 622.835938 470.246094 621.800781 470.640625 621.183594 470.910156 C 620.566406 471.179688 619.511719 471.519531 618.835938 471.667969 C 617.484375 471.96875 615.308594 472.488281 611.738281 473.363281 C 608.378906 474.1875 600.242188 475.476562 593.832031 476.195312 C 587.628906 476.894531 580.710938 477.542969 579.449219 477.542969 C 577.449219 477.542969 568.410156 478.960938 567.945312 479.347656 C 567.320312 479.867188 565.21875 483.140625 563.738281 485.910156 C 563.046875 487.203125 562.386719 488.390625 562.273438 488.554688 C 562.078125 488.835938 559.410156 494.542969 557.984375 497.730469 L 557.296875 499.269531 L 558.738281 500 C 559.53125 500.402344 560.257812 500.855469 560.351562 501.007812 C 560.585938 501.386719 563.746094 502.371094 566.238281 502.84375 C 571.53125 503.847656 585.347656 502.828125 594.417969 500.765625 C 595.871094 500.4375 598.050781 499.949219 599.261719 499.6875 C 600.472656 499.421875 602.585938 498.882812 603.960938 498.488281 C 605.332031 498.09375 607.910156 497.394531 609.683594 496.933594 C 611.460938 496.476562 613.441406 495.902344 614.085938 495.65625 C 614.734375 495.414062 617.835938 494.402344 620.984375 493.410156 C 624.132812 492.417969 627.601562 491.269531 628.695312 490.859375 C 629.785156 490.449219 631.414062 489.945312 632.308594 489.734375 L 633.9375 489.355469 L 634.613281 490.421875 C 634.984375 491.011719 635.894531 492.546875 636.632812 493.839844 C 637.375 495.132812 638.691406 497.3125 639.558594 498.6875 C 643.988281 505.699219 648.207031 512.285156 649.128906 513.628906 C 649.390625 514.015625 650.136719 515.152344 650.78125 516.160156 C 651.425781 517.167969 652.550781 518.84375 653.277344 519.890625 C 654.003906 520.9375 654.988281 522.375 655.464844 523.089844 C 656.90625 525.238281 660.367188 529.910156 661.160156 530.773438 C 661.949219 531.636719 662.71875 531.769531 664.042969 531.269531 Z M 519.90625 484.222656 C 521.054688 483.019531 525.875 476.335938 525.875 475.941406 C 525.875 475.835938 526.40625 474.953125 527.050781 473.980469 C 527.695312 473.007812 528.226562 472.144531 528.226562 472.066406 C 528.226562 471.988281 528.753906 470.816406 529.398438 469.460938 C 531.207031 465.671875 530.925781 464.28125 528.285156 463.945312 C 525.953125 463.652344 521.09375 459.585938 515.867188 453.554688 C 509.707031 446.441406 506.589844 441.171875 503.910156 433.335938 C 502.417969 428.96875 501.136719 422.066406 500.585938 415.421875 C 500.207031 410.824219 500.449219 400.703125 501.089844 394.714844 C 501.339844 392.371094 501.652344 389.398438 501.789062 388.105469 C 502.355469 382.761719 504.746094 372.929688 506.167969 370.113281 C 506.472656 369.507812 506.820312 368.683594 506.945312 368.28125 C 507.976562 364.914062 515.914062 348.671875 518.140625 345.375 C 518.519531 344.8125 518.832031 344.253906 518.832031 344.136719 C 518.832031 343.933594 521.671875 339.296875 524.738281 334.503906 C 532.324219 322.636719 542.257812 309.941406 548.019531 304.746094 C 549.242188 303.644531 550.242188 302.621094 550.242188 302.46875 C 550.242188 301.539062 545.125 303.683594 542.332031 305.789062 C 538.46875 308.695312 526.507812 321.480469 519.472656 330.21875 C 518.289062 331.6875 517.039062 333.21875 516.695312 333.621094 C 516.195312 334.203125 512.488281 339.210938 509.847656 342.875 C 506.96875 346.863281 501.820312 355.746094 499.203125 361.230469 C 492.480469 375.324219 489.796875 387.347656 488.566406 408.957031 C 487.960938 419.546875 488.746094 439.214844 490.058594 446.257812 C 490.207031 447.066406 490.457031 448.460938 490.613281 449.359375 C 491.207031 452.792969 493.050781 458.488281 494.746094 462.121094 C 495.917969 464.621094 498.65625 469.179688 499.867188 470.636719 C 500.269531 471.121094 501.613281 472.746094 502.851562 474.246094 C 506.691406 478.902344 513.007812 484.203125 515.726562 485.054688 C 517.894531 485.734375 518.589844 485.59375 519.90625 484.222656 Z M 579.230469 467.476562 C 581.09375 466.234375 584.082031 461.519531 588.074219 453.53125 C 589.417969 450.84375 591.042969 446.644531 591.042969 445.859375 C 591.042969 445.097656 590.070312 444.644531 588.425781 444.644531 C 587.027344 444.644531 586.527344 444.789062 585.582031 445.476562 C 584.546875 446.226562 582.238281 448.769531 582.238281 449.160156 C 582.238281 449.246094 581.824219 450.015625 581.316406 450.871094 C 579.796875 453.433594 575.484375 461.914062 574.132812 464.996094 C 572.789062 468.058594 572.78125 468.019531 574.605469 468.242188 C 576.386719 468.460938 578.210938 468.160156 579.230469 467.476562 Z M 537.683594 457.230469 C 540.527344 454.324219 544.367188 447.921875 544.371094 446.089844 C 544.371094 445.007812 543.304688 444.152344 541.296875 443.628906 C 539.867188 443.257812 537.527344 443.175781 528.457031 443.175781 C 522.355469 443.175781 517.367188 443.273438 517.371094 443.394531 C 517.375 443.515625 517.636719 443.945312 517.949219 444.351562 C 518.265625 444.753906 518.527344 445.203125 518.53125 445.34375 C 518.546875 446.007812 521.929688 450.609375 523.367188 451.921875 C 525.65625 454.015625 529.246094 456.46875 531.773438 457.660156 C 533.65625 458.550781 534.332031 458.78125 535.667969 458.996094 C 535.804688 459.015625 536.710938 458.222656 537.683594 457.230469 Z M 602.882812 398.601562 C 607.214844 389.921875 612.785156 378.851562 615.265625 374.007812 C 617.742188 369.160156 620.167969 364.402344 620.652344 363.433594 C 621.140625 362.464844 622.179688 360.480469 622.964844 359.027344 C 623.75 357.574219 624.960938 355.328125 625.65625 354.035156 C 626.351562 352.742188 627.148438 351.355469 627.429688 350.949219 C 627.707031 350.546875 628.019531 349.980469 628.125 349.691406 C 628.226562 349.40625 629.238281 347.601562 630.367188 345.6875 C 633.398438 340.542969 635.90625 338.597656 639.804688 338.371094 L 641.746094 338.257812 L 643.515625 340.03125 C 646.378906 342.90625 655.261719 348.421875 664.511719 353.066406 C 670.445312 356.046875 672.761719 356.945312 673.488281 356.546875 C 674.199219 356.15625 676.445312 353.738281 678.277344 351.390625 C 679.664062 349.617188 681.242188 347.304688 683.992188 343.019531 C 685.050781 341.371094 685.917969 339.140625 685.957031 337.964844 C 686.007812 336.523438 685.339844 335.902344 679.988281 332.40625 C 676.292969 329.992188 674.320312 328.738281 668.058594 324.832031 C 667.394531 324.417969 666.203125 323.6875 665.417969 323.214844 C 664.632812 322.742188 661.941406 321.105469 659.441406 319.574219 C 654.21875 316.382812 653.074219 315.699219 648.519531 313.03125 C 646.695312 311.964844 642.78125 309.617188 639.820312 307.816406 C 636.859375 306.015625 634.359375 304.542969 634.265625 304.542969 C 634.171875 304.542969 633.886719 304.359375 633.632812 304.132812 C 633.375 303.90625 632.640625 303.429688 631.992188 303.074219 C 631.347656 302.714844 629.925781 301.890625 628.832031 301.246094 L 626.847656 300.066406 L 625.75 300.835938 C 625.148438 301.257812 623.464844 302.457031 622.011719 303.5 C 620.558594 304.546875 619.238281 305.40625 619.078125 305.414062 C 618.917969 305.421875 618.386719 305.636719 617.902344 305.890625 C 615.9375 306.917969 613.917969 307.1875 608.191406 307.1875 C 599.96875 307.1875 594.132812 306.09375 588.027344 303.410156 C 580.839844 300.25 578.46875 299.769531 577.050781 301.1875 C 576.390625 301.847656 576.3125 302.128906 576.433594 303.394531 C 576.703125 306.183594 578.453125 307.375 593.832031 315.222656 C 602.351562 319.574219 604.183594 320.773438 612.867188 327.707031 C 616.816406 330.863281 617.90625 333.894531 616.726562 338.433594 C 616.046875 341.035156 614.664062 343.796875 610.816406 350.214844 C 606.132812 358.035156 605.839844 358.554688 605.164062 360.273438 C 604.550781 361.832031 602.441406 365.433594 601.722656 366.15625 C 601.488281 366.390625 600.964844 367.195312 600.566406 367.945312 C 600.164062 368.695312 599.164062 370.429688 598.34375 371.804688 C 597.519531 373.175781 596.425781 375.09375 595.910156 376.0625 C 595.113281 377.550781 593.207031 380.945312 590.539062 385.609375 C 590.21875 386.171875 589.003906 388.195312 587.84375 390.101562 C 586.683594 392.007812 585.492188 393.992188 585.199219 394.507812 C 584.90625 395.023438 584.203125 396.242188 583.636719 397.210938 C 582.472656 399.210938 575.515625 412.351562 574.972656 413.585938 L 574.617188 414.390625 L 595.007812 414.382812 Z M 563.703125 412.632812 C 564.785156 412.628906 567.671875 409.449219 570.640625 404.996094 C 572.09375 402.816406 573.441406 400.730469 573.636719 400.363281 C 573.832031 399.996094 574.445312 398.9375 575.003906 398.011719 C 577.398438 394.035156 580.539062 388.683594 582.84375 384.652344 C 584.207031 382.269531 585.453125 380.085938 585.617188 379.804688 C 585.78125 379.523438 586.441406 378.371094 587.085938 377.238281 C 587.730469 376.109375 588.414062 374.921875 588.609375 374.597656 C 588.804688 374.273438 589.128906 373.675781 589.332031 373.273438 C 589.53125 372.867188 590.859375 370.535156 592.277344 368.085938 C 593.699219 365.636719 594.859375 363.570312 594.859375 363.492188 C 594.859375 363.417969 595.964844 361.457031 597.316406 359.136719 C 598.664062 356.8125 600.164062 354.1875 600.640625 353.300781 C 603.230469 348.507812 603.761719 347.546875 603.96875 347.28125 C 604.542969 346.535156 609.019531 337.328125 609.539062 335.8125 C 610.234375 333.792969 610.269531 332.988281 609.699219 331.886719 C 609.195312 330.914062 607.480469 329.347656 606.613281 329.074219 C 605.171875 328.613281 601.792969 331.808594 599.117188 336.160156 C 597.109375 339.425781 596.609375 340.265625 596.261719 340.964844 C 596.058594 341.367188 595.132812 342.988281 594.203125 344.566406 C 593.273438 346.144531 592.511719 347.507812 592.511719 347.601562 C 592.511719 347.695312 591.476562 349.644531 590.210938 351.929688 C 587.367188 357.070312 586.097656 359.433594 583.554688 364.3125 C 582.464844 366.414062 579.625 371.832031 577.246094 376.355469 C 572.765625 384.882812 566.523438 397.214844 562.835938 404.835938 C 560.375 409.921875 559.996094 411.640625 561.140625 412.453125 C 561.523438 412.722656 562.101562 412.875 562.421875 412.792969 C 562.746094 412.707031 563.320312 412.636719 563.703125 412.632812 Z M 563.703125 412.632812 " fill-opacity="1" fill-rule="nonzero"/></g><g transform="matrix(1, 0, 0, 1, 115, 255)"><g clip-path="url(#1c37b2b6c4)"><g fill="#ffffff" fill-opacity="1"><g transform="translate(1.064645, 240.646063)"><g><path d="M 106.109375 -74.859375 L 50.28125 -74.859375 L 37.296875 0 L 1.140625 0 L 32.890625 -183.484375 L 131.6875 -183.484375 L 126.28125 -152.609375 L 63.765625 -152.609375 L 55.578125 -105.609375 L 111.53125 -105.609375 Z M 106.109375 -74.859375 "/></g></g></g><g fill="#ffffff" fill-opacity="1"><g transform="translate(95.199494, 240.646063)"><g><path d="M 92.25 -183.484375 L 128.421875 -183.484375 L 106.734375 -56.453125 C 104.304688 -38.640625 97.671875 -24.25 86.828125 -13.28125 C 75.992188 -2.320312 62.71875 2.984375 47 2.640625 C 31.800781 2.304688 20.289062 -2.960938 12.46875 -13.171875 C 4.65625 -23.378906 1.210938 -37.09375 2.140625 -54.3125 L 38.6875 -54.1875 L 38.4375 -46.25 C 38.269531 -40.789062 39.191406 -36.421875 41.203125 -33.140625 C 43.222656 -29.867188 46.289062 -28.191406 50.40625 -28.109375 C 60.320312 -27.847656 66.875 -35.992188 70.0625 -52.546875 Z M 92.25 -183.484375 "/></g></g></g><g fill="#ffffff" fill-opacity="1"><g transform="translate(219.201371, 240.646063)"><g><path d="M 67.421875 -67.046875 L 49.015625 -67.046875 L 37.421875 0 L 1.265625 0 L 33.015625 -183.484375 L 88.46875 -183.359375 C 104.851562 -182.859375 117.410156 -177.816406 126.140625 -168.234375 C 134.878906 -158.660156 138.578125 -145.597656 137.234375 -129.046875 C 135.140625 -103.921875 123.710938 -86.445312 102.953125 -76.625 L 121.359375 -2.015625 L 121.359375 0 L 82.546875 0 Z M 54.3125 -97.921875 L 73.34375 -97.671875 C 82.082031 -97.835938 88.972656 -101.300781 94.015625 -108.0625 C 99.054688 -114.820312 101.535156 -123.789062 101.453125 -134.96875 C 101.109375 -145.976562 96.273438 -151.816406 86.953125 -152.484375 L 63.890625 -152.609375 Z M 54.3125 -97.921875 "/></g></g></g></g></g></svg>