<svg xmlns="http://www.w3.org/2000/svg" xmlns:xlink="http://www.w3.org/1999/xlink" width="1080" zoomAndPan="magnify" viewBox="0 0 810 809.999993" height="1080" preserveAspectRatio="xMidYMid meet" version="1.0"><defs><g/><clipPath id="1191c2af60"><path d="M 112.113281 508.269531 L 697.683594 508.269531 L 697.683594 617.617188 L 112.113281 617.617188 Z M 112.113281 508.269531 " clip-rule="nonzero"/></clipPath><clipPath id="c8672345dc"><path d="M 0.113281 0.269531 L 585.683594 0.269531 L 585.683594 109.617188 L 0.113281 109.617188 Z M 0.113281 0.269531 " clip-rule="nonzero"/></clipPath><clipPath id="78698b74c2"><rect x="0" width="586" y="0" height="110"/></clipPath><clipPath id="54f07059ae"><path d="M 478.074219 213.671875 L 696.324219 213.671875 L 696.324219 483.671875 L 478.074219 483.671875 Z M 478.074219 213.671875 " clip-rule="nonzero"/></clipPath><clipPath id="4f556348bc"><rect x="0" width="362" y="0" height="305"/></clipPath></defs><rect x="-81" width="972" fill="#ffffff" y="-80.999999" height="971.999992" fill-opacity="1"/><rect x="-81" width="972" fill="#ffffff" y="-80.999999" height="971.999992" fill-opacity="1"/><g clip-path="url(#1191c2af60)"><g transform="matrix(1, 0, 0, 1, 112, 508)"><g clip-path="url(#78698b74c2)"><g clip-path="url(#c8672345dc)"><path fill="#000000" d="M 0.113281 0.269531 L 585.714844 0.269531 L 585.714844 109.617188 L 0.113281 109.617188 Z M 0.113281 0.269531 " fill-opacity="1" fill-rule="nonzero"/></g></g></g></g><path fill="#000000" d="M 295.773438 508.234375 L 514.019531 508.234375 L 514.019531 614.683594 L 295.773438 614.683594 L 295.773438 508.234375 " fill-opacity="1" fill-rule="nonzero"/><g fill="#ffffff" fill-opacity="1"><g transform="translate(306.974024, 588.08507)"><g><path d="M 6.296875 0 L 6.296875 -49.96875 L 16.890625 -49.96875 L 16.890625 -8.75 L 37.15625 -8.75 L 37.15625 0 Z M 6.296875 0 "/></g></g></g><g fill="#ffffff" fill-opacity="1"><g transform="translate(346.517719, 588.08507)"><g><path d="M 21.84375 -29.390625 L 32.265625 -49.96875 L 43.6875 -49.96875 L 27.109375 -19.453125 L 27.109375 0 L 16.578125 0 L 16.578125 -19.109375 L 0 -49.96875 L 11.484375 -49.96875 Z M 21.84375 -29.390625 "/></g></g></g><g fill="#ffffff" fill-opacity="1"><g transform="translate(390.19692, 588.08507)"><g><path d="M 51.640625 -25.046875 C 51.640625 -16.773438 49.585938 -10.414062 45.484375 -5.96875 C 41.390625 -1.53125 35.515625 0.6875 27.859375 0.6875 C 20.203125 0.6875 14.320312 -1.53125 10.21875 -5.96875 C 6.113281 -10.414062 4.0625 -16.800781 4.0625 -25.125 C 4.0625 -33.4375 6.117188 -39.785156 10.234375 -44.171875 C 14.347656 -48.554688 20.242188 -50.75 27.921875 -50.75 C 35.597656 -50.75 41.46875 -48.539062 45.53125 -44.125 C 49.601562 -39.707031 51.640625 -33.347656 51.640625 -25.046875 Z M 15.171875 -25.046875 C 15.171875 -19.472656 16.226562 -15.269531 18.34375 -12.4375 C 20.46875 -9.613281 23.640625 -8.203125 27.859375 -8.203125 C 36.304688 -8.203125 40.53125 -13.816406 40.53125 -25.046875 C 40.53125 -36.304688 36.328125 -41.9375 27.921875 -41.9375 C 23.710938 -41.9375 20.535156 -40.515625 18.390625 -37.671875 C 16.242188 -34.835938 15.171875 -30.628906 15.171875 -25.046875 Z M 15.171875 -25.046875 "/></g></g></g><g fill="#ffffff" fill-opacity="1"><g transform="translate(445.906699, 588.08507)"><g><path d="M 50.625 0 L 37.15625 0 L 15.421875 -37.796875 L 15.109375 -37.796875 C 15.535156 -31.117188 15.75 -26.359375 15.75 -23.515625 L 15.75 0 L 6.296875 0 L 6.296875 -49.96875 L 19.65625 -49.96875 L 41.359375 -12.546875 L 41.59375 -12.546875 C 41.25 -19.035156 41.078125 -23.625 41.078125 -26.3125 L 41.078125 -49.96875 L 50.625 -49.96875 Z M 50.625 0 "/></g></g></g><g clip-path="url(#54f07059ae)"><path fill="#000000" d="M 526.132812 482.65625 C 522.910156 481.511719 514.28125 476.722656 504.28125 470.519531 C 502.507812 469.421875 500.492188 468.175781 499.808594 467.757812 C 499.097656 467.324219 498.5625 466.769531 498.5625 466.476562 C 498.5625 465.167969 501.011719 459.6875 507.578125 446.3125 C 509.914062 441.550781 512.136719 436.972656 512.515625 436.132812 L 513.207031 434.605469 L 510.359375 432.042969 C 495.605469 418.773438 492.675781 415.023438 485.503906 400.257812 C 484.175781 397.527344 481.621094 390.847656 480.964844 388.398438 C 480.625 387.117188 480.292969 385.992188 480.230469 385.890625 C 480.167969 385.792969 479.792969 383.800781 479.394531 381.472656 C 478.34375 375.359375 477.894531 367.074219 478.136719 358.371094 C 478.789062 334.996094 479.199219 331.871094 483.363281 318.566406 C 489.277344 299.660156 496.78125 285.320312 507.921875 271.636719 C 511.832031 266.832031 513.515625 265 520.984375 257.457031 C 529.15625 249.199219 535.945312 243.125 542.289062 238.394531 C 547.703125 234.355469 548.265625 233.957031 551.085938 232.183594 C 552.445312 231.328125 554.023438 230.328125 554.585938 229.964844 C 560.171875 226.359375 575.367188 218.296875 581.976562 215.429688 C 583.417969 214.804688 585.351562 214.136719 586.273438 213.949219 C 587.78125 213.636719 588.042969 213.660156 588.9375 214.179688 C 590.292969 214.972656 590.882812 216.070312 590.460938 217 C 590.15625 217.671875 585.753906 220.800781 583.1875 222.171875 C 579.824219 223.96875 573.097656 228.726562 567.785156 233.0625 C 549.449219 248.03125 531.109375 273.242188 520.628906 297.886719 C 517.671875 304.847656 514.707031 313.308594 512.820312 320.179688 C 510.90625 327.164062 510.503906 331.941406 510.46875 348.046875 C 510.433594 363.71875 510.972656 371.871094 512.082031 372.554688 C 512.246094 372.660156 512.65625 372.5 512.988281 372.203125 C 513.699219 371.5625 516.128906 368.023438 517.578125 365.507812 C 520.183594 360.992188 526.507812 349.617188 528.101562 346.578125 C 529.074219 344.726562 531.320312 340.5 533.089844 337.195312 C 534.863281 333.886719 537.667969 328.539062 539.324219 325.3125 C 540.980469 322.085938 542.570312 319.050781 542.851562 318.566406 C 543.570312 317.335938 550.582031 303.832031 552.980469 299.0625 C 554.074219 296.882812 557.640625 289.953125 560.90625 283.660156 C 564.171875 277.371094 568.917969 268.035156 571.449219 262.921875 C 576.703125 252.308594 576.53125 253.40625 573.335938 251.03125 C 571.867188 249.945312 571.257812 249.246094 570.578125 247.875 C 569.726562 246.171875 569.699219 245.984375 569.707031 242.007812 C 569.710938 238.382812 569.792969 237.699219 570.40625 236.15625 C 571.21875 234.105469 573.285156 231.761719 574.6875 231.300781 C 576.015625 230.863281 577.300781 231.234375 582.011719 233.425781 C 588.164062 236.289062 591.511719 237.457031 596.609375 238.527344 C 599.726562 239.179688 600.949219 239.28125 605.917969 239.296875 C 612.824219 239.320312 614.710938 238.917969 620.144531 236.28125 C 624.097656 234.359375 626.878906 233.328125 628.207031 233.292969 C 629.257812 233.261719 638.480469 237.863281 645.664062 242.003906 C 648.246094 243.488281 650.953125 245.039062 651.675781 245.449219 C 654.085938 246.804688 660.003906 250.261719 662.238281 251.613281 C 663.449219 252.347656 666.484375 254.195312 668.984375 255.714844 C 671.484375 257.238281 674.917969 259.316406 676.609375 260.339844 C 678.304688 261.359375 680.546875 262.75 681.597656 263.429688 C 682.644531 264.109375 684.691406 265.433594 686.144531 266.378906 C 692.859375 270.738281 695.792969 273.308594 696.128906 275.128906 C 696.222656 275.640625 696.09375 276.605469 695.828125 277.34375 C 693.671875 283.417969 678.210938 303.585938 674.027344 305.785156 C 673.636719 305.988281 672.976562 306.058594 672.472656 305.945312 C 670.9375 305.609375 664.414062 302.535156 653.410156 296.957031 C 641.671875 291.007812 637.082031 288.898438 636.707031 289.277344 C 636.367188 289.625 633.4375 294.8125 631.683594 298.179688 C 630.886719 299.714844 628.648438 304.003906 626.714844 307.714844 C 621.523438 317.671875 607.0625 346.660156 605.949219 349.332031 C 604.925781 351.800781 604.984375 352.140625 606.445312 352.148438 C 607.171875 352.152344 609.445312 350.070312 610.648438 348.292969 C 613.441406 344.183594 615.09375 341.523438 618.035156 336.425781 C 622.664062 328.390625 622.671875 328.375 623.25 327.21875 C 623.535156 326.65625 624.863281 324.253906 626.207031 321.882812 C 627.550781 319.511719 629.683594 315.714844 630.945312 313.445312 L 633.238281 309.316406 L 640.183594 309.484375 C 650.441406 309.734375 654.472656 310.089844 656.074219 310.878906 C 657.238281 311.449219 657.441406 311.699219 657.796875 312.976562 C 658.15625 314.28125 658.136719 314.640625 657.597656 316.65625 C 656.46875 320.882812 653.328125 327.546875 647.582031 337.925781 C 642.800781 346.5625 641.410156 349.152344 641.410156 349.414062 C 641.410156 349.566406 643.371094 349.851562 645.769531 350.046875 C 650.058594 350.402344 653.917969 350.992188 654.570312 351.394531 C 654.753906 351.507812 654.902344 351.75 654.902344 351.929688 C 654.902344 352.320312 653.191406 355.714844 651.828125 358.019531 C 651.304688 358.90625 650.445312 360.425781 649.917969 361.394531 C 649.386719 362.359375 648.414062 364.113281 647.75 365.285156 C 647.085938 366.460938 646.34375 367.78125 646.101562 368.21875 C 645.855469 368.660156 644.917969 370.273438 644.019531 371.804688 C 643.121094 373.339844 641.476562 376.144531 640.363281 378.039062 C 638.867188 380.597656 638.195312 381.484375 637.765625 381.484375 C 637.445312 381.484375 634.671875 381.683594 631.597656 381.921875 C 628.523438 382.160156 625.382812 382.390625 624.617188 382.433594 L 623.222656 382.511719 L 621.582031 386.03125 C 617.800781 394.152344 616.101562 398.542969 615.746094 401.121094 L 615.535156 402.667969 L 617.105469 402.460938 C 618.789062 402.234375 623.605469 400.792969 632.304688 397.910156 C 638.019531 396.019531 640.789062 395.519531 642.203125 396.128906 C 642.660156 396.324219 643.875 397.613281 644.929688 399.015625 C 646.804688 401.507812 649.347656 404.851562 653.347656 410.085938 C 654.460938 411.539062 656.839844 414.667969 658.640625 417.039062 C 660.441406 419.414062 662.414062 422.007812 663.027344 422.808594 C 663.640625 423.605469 665.066406 425.539062 666.195312 427.101562 C 667.328125 428.664062 668.78125 430.621094 669.429688 431.453125 C 670.078125 432.285156 671.101562 433.691406 671.707031 434.578125 C 672.308594 435.464844 674.15625 438.171875 675.808594 440.59375 C 682.394531 450.242188 684.054688 453.734375 684.734375 459.363281 C 685.34375 464.4375 685.082031 465.445312 682.519531 467.90625 C 678.765625 471.515625 667.425781 477.726562 660.960938 479.71875 C 657.957031 480.640625 657.507812 480.570312 656.066406 478.945312 C 654.667969 477.359375 650.855469 471.636719 648.304688 467.285156 C 641 454.828125 638.636719 450.859375 636.9375 448.1875 C 636.171875 446.984375 635.542969 445.945312 635.542969 445.878906 C 635.542969 445.632812 632.292969 441.242188 631.15625 439.945312 L 629.972656 438.601562 L 627.113281 439.558594 C 625.539062 440.085938 623.855469 440.6875 623.371094 440.894531 C 622.886719 441.101562 619.125 442.398438 615.011719 443.777344 C 603.753906 447.550781 599.671875 448.691406 590.664062 450.5625 C 580.5625 452.664062 569.105469 453.21875 561.839844 451.949219 C 558.269531 451.328125 552.390625 451.066406 550.902344 451.46875 C 550.234375 451.648438 546.40625 457.265625 541.238281 465.652344 C 534.894531 475.949219 529.441406 483.308594 528.199219 483.25 C 527.949219 483.238281 527.019531 482.96875 526.132812 482.65625 Z M 527.082031 472.492188 C 527.785156 471.4375 532.210938 463.546875 533.128906 461.710938 C 533.371094 461.226562 535.0625 458.148438 536.890625 454.867188 C 538.71875 451.585938 540.214844 448.847656 540.214844 448.777344 C 540.214844 448.710938 541.582031 446.179688 543.253906 443.15625 C 544.925781 440.132812 546.753906 436.800781 547.320312 435.75 C 547.886719 434.703125 548.707031 433.183594 549.148438 432.378906 C 549.585938 431.570312 551.144531 428.667969 552.605469 425.925781 C 554.066406 423.183594 555.5625 420.476562 555.929688 419.910156 C 556.296875 419.347656 556.769531 418.480469 556.984375 417.984375 C 557.199219 417.488281 558.511719 414.980469 559.898438 412.410156 C 564.222656 404.414062 570.011719 393.480469 571.300781 390.871094 C 571.976562 389.5 572.632812 388.246094 572.757812 388.085938 C 572.886719 387.925781 573.261719 387.046875 573.597656 386.132812 L 574.210938 384.476562 L 572.945312 384.375 C 572.25 384.316406 567.976562 384.347656 563.449219 384.4375 C 557.089844 384.566406 555.105469 384.695312 554.730469 385.007812 C 554.464844 385.230469 553.851562 386.144531 553.375 387.042969 C 552.894531 387.9375 551.949219 389.613281 551.273438 390.765625 C 550.59375 391.917969 549.53125 393.765625 548.90625 394.871094 C 548.28125 395.980469 547.480469 397.347656 547.121094 397.910156 C 546.332031 399.15625 543.722656 403.53125 542.917969 404.953125 C 541.566406 407.34375 537.996094 413.488281 536.699219 415.660156 C 535.929688 416.949219 534.523438 419.320312 533.574219 420.929688 C 532.628906 422.539062 531.722656 424.074219 531.558594 424.335938 C 531.398438 424.601562 530.886719 425.527344 530.421875 426.394531 C 529.953125 427.261719 529.28125 428.433594 528.925781 429 C 528.566406 429.566406 527.785156 430.9375 527.1875 432.046875 C 526.589844 433.15625 525.910156 434.257812 525.679688 434.488281 C 525.445312 434.722656 525.253906 435.03125 525.253906 435.175781 C 525.253906 435.320312 524.457031 436.792969 523.480469 438.453125 C 522.503906 440.113281 521.554688 441.734375 521.367188 442.058594 C 520.972656 442.746094 513.601562 455.746094 512.882812 457.023438 C 511.09375 460.199219 509.691406 463.148438 509.8125 463.472656 C 509.992188 463.941406 512.863281 466 516.109375 467.988281 C 517.453125 468.8125 518.585938 469.484375 518.632812 469.484375 C 518.679688 469.484375 519.890625 470.160156 521.324219 470.988281 C 524.621094 472.886719 525.929688 473.589844 526.164062 473.589844 C 526.265625 473.589844 526.679688 473.09375 527.082031 472.492188 Z M 663.90625 470.347656 C 665.554688 469.726562 670.074219 466.800781 671.542969 465.402344 C 674.433594 462.640625 674.75 461.03125 673.425781 455.769531 C 672.683594 452.820312 672.085938 451.332031 670.074219 447.414062 C 667.03125 441.488281 664.800781 438.144531 661.925781 435.207031 C 660.683594 433.941406 658.050781 430.5 651.550781 421.671875 C 649.085938 418.324219 646.21875 414.609375 645.152344 413.390625 C 642.382812 410.21875 638.839844 406.609375 638.136719 406.246094 C 636.425781 405.363281 631.421875 406.085938 626.890625 407.875 C 625.601562 408.382812 624.015625 408.976562 623.371094 409.1875 C 622.726562 409.402344 621.695312 409.796875 621.078125 410.0625 C 620.460938 410.332031 619.402344 410.671875 618.730469 410.824219 C 617.378906 411.121094 615.207031 411.640625 611.636719 412.515625 C 608.28125 413.339844 600.148438 414.625 593.746094 415.34375 C 587.546875 416.042969 580.632812 416.6875 579.371094 416.6875 C 577.375 416.6875 568.34375 418.105469 567.875 418.492188 C 567.253906 419.011719 565.15625 422.28125 563.675781 425.042969 C 562.984375 426.335938 562.324219 427.523438 562.210938 427.683594 C 562.015625 427.96875 559.347656 433.667969 557.921875 436.847656 L 557.234375 438.386719 L 558.675781 439.117188 C 559.46875 439.519531 560.195312 439.972656 560.289062 440.121094 C 560.523438 440.5 563.679688 441.484375 566.171875 441.957031 C 571.460938 442.957031 585.265625 441.941406 594.332031 439.882812 C 595.785156 439.554688 597.960938 439.066406 599.171875 438.804688 C 600.382812 438.539062 602.492188 438.003906 603.867188 437.609375 C 605.238281 437.214844 607.8125 436.515625 609.585938 436.054688 C 611.359375 435.597656 613.339844 435.023438 613.984375 434.78125 C 614.628906 434.539062 617.730469 433.527344 620.878906 432.535156 C 624.023438 431.542969 627.492188 430.398438 628.582031 429.988281 C 629.671875 429.578125 631.296875 429.074219 632.191406 428.863281 L 633.820312 428.488281 L 634.496094 429.550781 C 634.867188 430.136719 635.773438 431.675781 636.515625 432.964844 C 637.253906 434.253906 638.570312 436.433594 639.4375 437.804688 C 643.863281 444.808594 648.078125 451.386719 649 452.730469 C 649.261719 453.113281 650.003906 454.25 650.652344 455.257812 C 651.296875 456.261719 652.417969 457.9375 653.144531 458.980469 C 653.871094 460.023438 654.855469 461.460938 655.332031 462.175781 C 656.773438 464.320312 660.230469 468.988281 661.019531 469.851562 C 661.8125 470.710938 662.578125 470.84375 663.90625 470.347656 Z M 519.875 423.359375 C 521.023438 422.160156 525.839844 415.480469 525.839844 415.089844 C 525.839844 414.984375 526.367188 414.101562 527.015625 413.128906 C 527.660156 412.160156 528.1875 411.300781 528.1875 411.21875 C 528.1875 411.140625 528.714844 409.96875 529.359375 408.617188 C 531.167969 404.832031 530.886719 403.441406 528.246094 403.109375 C 525.914062 402.816406 521.0625 398.757812 515.839844 392.730469 C 509.683594 385.628906 506.566406 380.363281 503.890625 372.539062 C 502.402344 368.175781 501.121094 361.285156 500.570312 354.648438 C 500.1875 350.054688 500.433594 339.949219 501.070312 333.96875 C 501.320312 331.628906 501.636719 328.65625 501.773438 327.367188 C 502.335938 322.03125 504.726562 312.210938 506.144531 309.398438 C 506.449219 308.792969 506.800781 307.972656 506.921875 307.566406 C 507.953125 304.203125 515.886719 287.984375 518.109375 284.691406 C 518.488281 284.132812 518.800781 283.574219 518.800781 283.457031 C 518.800781 283.253906 521.640625 278.621094 524.703125 273.835938 C 532.285156 261.984375 542.210938 249.304688 547.96875 244.117188 C 549.1875 243.015625 550.1875 241.996094 550.1875 241.84375 C 550.1875 240.914062 545.074219 243.058594 542.285156 245.15625 C 538.421875 248.0625 526.46875 260.828125 519.441406 269.554688 C 518.261719 271.023438 517.011719 272.550781 516.664062 272.953125 C 516.164062 273.535156 512.460938 278.539062 509.824219 282.195312 C 506.949219 286.179688 501.800781 295.050781 499.1875 300.527344 C 492.46875 314.601562 489.789062 326.613281 488.558594 348.191406 C 487.953125 358.769531 488.738281 378.410156 490.050781 385.445312 C 490.199219 386.253906 490.449219 387.644531 490.605469 388.542969 C 491.195312 391.972656 493.039062 397.660156 494.734375 401.285156 C 495.902344 403.785156 498.640625 408.335938 499.851562 409.792969 C 500.253906 410.277344 501.59375 411.898438 502.832031 413.398438 C 506.667969 418.046875 512.980469 423.339844 515.699219 424.191406 C 517.863281 424.871094 518.558594 424.730469 519.875 423.359375 Z M 579.15625 406.636719 C 581.015625 405.394531 584.003906 400.683594 587.992188 392.710938 C 589.335938 390.023438 590.957031 385.832031 590.957031 385.046875 C 590.957031 384.285156 589.984375 383.832031 588.34375 383.832031 C 586.945312 383.832031 586.445312 383.980469 585.503906 384.664062 C 584.46875 385.414062 582.160156 387.953125 582.160156 388.34375 C 582.160156 388.429688 581.746094 389.199219 581.238281 390.050781 C 579.71875 392.609375 575.410156 401.082031 574.058594 404.160156 C 572.714844 407.21875 572.710938 407.179688 574.53125 407.402344 C 576.3125 407.617188 578.136719 407.316406 579.15625 406.636719 Z M 537.636719 396.402344 C 540.480469 393.5 544.320312 387.105469 544.320312 385.277344 C 544.320312 384.195312 543.253906 383.34375 541.25 382.820312 C 539.820312 382.449219 537.480469 382.367188 528.417969 382.367188 C 522.320312 382.367188 517.335938 382.464844 517.339844 382.585938 C 517.34375 382.707031 517.605469 383.136719 517.921875 383.539062 C 518.234375 383.941406 518.496094 384.390625 518.5 384.53125 C 518.515625 385.195312 521.894531 389.789062 523.332031 391.101562 C 525.621094 393.191406 529.207031 395.640625 531.734375 396.832031 C 533.613281 397.722656 534.289062 397.953125 535.625 398.164062 C 535.761719 398.1875 536.667969 397.394531 537.636719 396.402344 Z M 602.789062 337.851562 C 607.117188 329.179688 612.683594 318.128906 615.160156 313.289062 C 617.636719 308.449219 620.058594 303.695312 620.546875 302.726562 C 621.03125 301.757812 622.070312 299.78125 622.855469 298.328125 C 623.640625 296.875 624.851562 294.632812 625.546875 293.339844 C 626.242188 292.050781 627.039062 290.664062 627.316406 290.261719 C 627.59375 289.859375 627.90625 289.292969 628.011719 289.003906 C 628.117188 288.71875 629.125 286.917969 630.253906 285.003906 C 633.28125 279.863281 635.789062 277.925781 639.683594 277.699219 L 641.625 277.585938 L 643.390625 279.359375 C 646.253906 282.230469 655.128906 287.734375 664.371094 292.375 C 670.300781 295.351562 672.617188 296.25 673.339844 295.851562 C 674.050781 295.460938 676.296875 293.046875 678.125 290.703125 C 679.511719 288.929688 681.089844 286.617188 683.835938 282.339844 C 684.894531 280.695312 685.761719 278.46875 685.800781 277.292969 C 685.851562 275.851562 685.183594 275.230469 679.835938 271.742188 C 676.144531 269.332031 674.171875 268.078125 667.917969 264.179688 C 667.25 263.761719 666.0625 263.035156 665.277344 262.5625 C 664.492188 262.089844 661.804688 260.453125 659.304688 258.925781 C 654.085938 255.738281 652.941406 255.054688 648.390625 252.390625 C 646.566406 251.324219 642.65625 248.980469 639.699219 247.183594 C 636.738281 245.386719 634.242188 243.914062 634.148438 243.914062 C 634.054688 243.914062 633.769531 243.730469 633.515625 243.503906 C 633.257812 243.28125 632.523438 242.804688 631.878906 242.445312 C 631.234375 242.089844 629.8125 241.265625 628.71875 240.621094 L 626.734375 239.445312 L 625.640625 240.210938 C 625.039062 240.632812 623.355469 241.832031 621.90625 242.875 C 620.453125 243.914062 619.132812 244.777344 618.972656 244.785156 C 618.808594 244.792969 618.28125 245.007812 617.796875 245.257812 C 615.835938 246.285156 613.816406 246.554688 608.09375 246.554688 C 599.878906 246.554688 594.046875 245.464844 587.945312 242.78125 C 580.761719 239.625 578.394531 239.148438 576.976562 240.5625 C 576.316406 241.222656 576.238281 241.503906 576.363281 242.765625 C 576.628906 245.554688 578.375 246.742188 593.746094 254.582031 C 602.261719 258.925781 604.089844 260.125 612.765625 267.050781 C 616.710938 270.199219 617.800781 273.230469 616.621094 277.757812 C 615.945312 280.359375 614.5625 283.117188 610.71875 289.527344 C 606.035156 297.335938 605.746094 297.855469 605.070312 299.570312 C 604.453125 301.128906 602.347656 304.726562 601.628906 305.445312 C 601.394531 305.679688 600.875 306.484375 600.472656 307.234375 C 600.070312 307.980469 599.070312 309.714844 598.25 311.085938 C 597.429688 312.457031 596.335938 314.371094 595.820312 315.339844 C 595.027344 316.828125 593.121094 320.214844 590.457031 324.875 C 590.132812 325.4375 588.921875 327.457031 587.761719 329.363281 C 586.601562 331.265625 585.414062 333.246094 585.121094 333.761719 C 584.824219 334.277344 584.125 335.492188 583.558594 336.460938 C 582.390625 338.457031 575.445312 351.582031 574.902344 352.8125 L 574.546875 353.621094 L 584.730469 353.617188 L 594.917969 353.613281 Z M 563.636719 351.863281 C 564.722656 351.859375 567.605469 348.683594 570.574219 344.234375 C 572.023438 342.058594 573.371094 339.976562 573.566406 339.609375 C 573.757812 339.242188 574.375 338.183594 574.929688 337.261719 C 577.324219 333.289062 580.460938 327.945312 582.765625 323.917969 C 584.125 321.539062 585.371094 319.359375 585.535156 319.078125 C 585.699219 318.796875 586.359375 317.644531 587.003906 316.515625 C 587.644531 315.386719 588.332031 314.199219 588.527344 313.875 C 588.722656 313.550781 589.046875 312.957031 589.246094 312.554688 C 589.449219 312.152344 590.773438 309.820312 592.191406 307.375 C 593.609375 304.929688 594.773438 302.863281 594.773438 302.789062 C 594.773438 302.710938 595.875 300.753906 597.226562 298.433594 C 598.574219 296.117188 600.070312 293.496094 600.550781 292.609375 C 603.136719 287.824219 603.667969 286.863281 603.875 286.59375 C 604.449219 285.851562 608.921875 276.65625 609.441406 275.144531 C 610.136719 273.128906 610.167969 272.324219 609.601562 271.222656 C 609.097656 270.25 607.382812 268.6875 606.515625 268.410156 C 605.074219 267.953125 601.699219 271.144531 599.027344 275.488281 C 597.019531 278.753906 596.523438 279.589844 596.171875 280.289062 C 595.96875 280.691406 595.042969 282.308594 594.113281 283.886719 C 593.1875 285.460938 592.425781 286.824219 592.425781 286.917969 C 592.425781 287.007812 591.390625 288.957031 590.125 291.238281 C 587.285156 296.371094 586.015625 298.730469 583.476562 303.609375 C 582.382812 305.703125 579.546875 311.117188 577.171875 315.632812 C 572.691406 324.148438 566.457031 336.464844 562.773438 344.078125 C 560.316406 349.15625 559.933594 350.871094 561.078125 351.683594 C 561.460938 351.953125 562.035156 352.105469 562.359375 352.023438 C 562.683594 351.9375 563.257812 351.867188 563.636719 351.863281 Z M 563.636719 351.863281 " fill-opacity="1" fill-rule="nonzero"/></g><g transform="matrix(1, 0, 0, 1, 115, 194)"><g clip-path="url(#4f556348bc)"><g fill="#000000" fill-opacity="1"><g transform="translate(1.064645, 241.056466)"><g><path d="M 106.109375 -74.859375 L 50.28125 -74.859375 L 37.296875 0 L 1.140625 0 L 32.890625 -183.484375 L 131.6875 -183.484375 L 126.28125 -152.609375 L 63.765625 -152.609375 L 55.578125 -105.609375 L 111.53125 -105.609375 Z M 106.109375 -74.859375 "/></g></g></g><g fill="#000000" fill-opacity="1"><g transform="translate(95.199494, 241.056466)"><g><path d="M 92.25 -183.484375 L 128.421875 -183.484375 L 106.734375 -56.453125 C 104.304688 -38.640625 97.671875 -24.25 86.828125 -13.28125 C 75.992188 -2.320312 62.71875 2.984375 47 2.640625 C 31.800781 2.304688 20.289062 -2.960938 12.46875 -13.171875 C 4.65625 -23.378906 1.210938 -37.09375 2.140625 -54.3125 L 38.6875 -54.1875 L 38.4375 -46.25 C 38.269531 -40.789062 39.191406 -36.421875 41.203125 -33.140625 C 43.222656 -29.867188 46.289062 -28.191406 50.40625 -28.109375 C 60.320312 -27.847656 66.875 -35.992188 70.0625 -52.546875 Z M 92.25 -183.484375 "/></g></g></g><g fill="#000000" fill-opacity="1"><g transform="translate(219.201371, 241.056466)"><g><path d="M 67.421875 -67.046875 L 49.015625 -67.046875 L 37.421875 0 L 1.265625 0 L 33.015625 -183.484375 L 88.46875 -183.359375 C 104.851562 -182.859375 117.410156 -177.816406 126.140625 -168.234375 C 134.878906 -158.660156 138.578125 -145.597656 137.234375 -129.046875 C 135.140625 -103.921875 123.710938 -86.445312 102.953125 -76.625 L 121.359375 -2.015625 L 121.359375 0 L 82.546875 0 Z M 54.3125 -97.921875 L 73.34375 -97.671875 C 82.082031 -97.835938 88.972656 -101.300781 94.015625 -108.0625 C 99.054688 -114.820312 101.535156 -123.789062 101.453125 -134.96875 C 101.109375 -145.976562 96.273438 -151.816406 86.953125 -152.484375 L 63.890625 -152.609375 Z M 54.3125 -97.921875 "/></g></g></g></g></g></svg>