<svg xmlns="http://www.w3.org/2000/svg" xmlns:xlink="http://www.w3.org/1999/xlink" width="1080" zoomAndPan="magnify" viewBox="0 0 810 809.999993" height="1080" preserveAspectRatio="xMidYMid meet" version="1.0"><defs><g/><clipPath id="e5639df6c3"><path d="M 112.113281 235.609375 L 697.683594 235.609375 L 697.683594 252.972656 L 112.113281 252.972656 Z M 112.113281 235.609375 " clip-rule="nonzero"/></clipPath><clipPath id="520f899f8b"><path d="M 0.113281 0.609375 L 585.683594 0.609375 L 585.683594 17.972656 L 0.113281 17.972656 Z M 0.113281 0.609375 " clip-rule="nonzero"/></clipPath><clipPath id="40e6e3809b"><rect x="0" width="586" y="0" height="18"/></clipPath><clipPath id="54b1cbffaf"><path d="M 112.113281 568.859375 L 697.683594 568.859375 L 697.683594 678.207031 L 112.113281 678.207031 Z M 112.113281 568.859375 " clip-rule="nonzero"/></clipPath><clipPath id="958001ae64"><path d="M 0.113281 0.859375 L 585.683594 0.859375 L 585.683594 110.207031 L 0.113281 110.207031 Z M 0.113281 0.859375 " clip-rule="nonzero"/></clipPath><clipPath id="b355229058"><rect x="0" width="586" y="0" height="111"/></clipPath><clipPath id="cd1a57ff9b"><path d="M 478.074219 274.261719 L 696.324219 274.261719 L 696.324219 544 L 478.074219 544 Z M 478.074219 274.261719 " clip-rule="nonzero"/></clipPath><clipPath id="cf960f3c9a"><rect x="0" width="362" y="0" height="305"/></clipPath></defs><rect x="-81" width="972" fill="#ffffff" y="-80.999999" height="971.999992" fill-opacity="1"/><rect x="-81" width="972" fill="#ffffff" y="-80.999999" height="971.999992" fill-opacity="1"/><g clip-path="url(#e5639df6c3)"><g transform="matrix(1, 0, 0, 1, 112, 235)"><g clip-path="url(#40e6e3809b)"><g clip-path="url(#520f899f8b)"><path fill="#000000" d="M 0.113281 0.609375 L 585.710938 0.609375 L 585.710938 17.972656 L 0.113281 17.972656 Z M 0.113281 0.609375 " fill-opacity="1" fill-rule="nonzero"/></g></g></g></g><g clip-path="url(#54b1cbffaf)"><g transform="matrix(1, 0, 0, 1, 112, 568)"><g clip-path="url(#b355229058)"><g clip-path="url(#958001ae64)"><path fill="#000000" d="M 0.113281 0.859375 L 585.714844 0.859375 L 585.714844 110.207031 L 0.113281 110.207031 Z M 0.113281 0.859375 " fill-opacity="1" fill-rule="nonzero"/></g></g></g></g><path fill="#000000" d="M 295.773438 568.824219 L 514.019531 568.824219 L 514.019531 675.273438 L 295.773438 675.273438 L 295.773438 568.824219 " fill-opacity="1" fill-rule="nonzero"/><g fill="#ffffff" fill-opacity="1"><g transform="translate(306.974024, 648.674747)"><g><path d="M 6.296875 0 L 6.296875 -49.96875 L 16.890625 -49.96875 L 16.890625 -8.75 L 37.15625 -8.75 L 37.15625 0 Z M 6.296875 0 "/></g></g></g><g fill="#ffffff" fill-opacity="1"><g transform="translate(346.517719, 648.674747)"><g><path d="M 21.84375 -29.390625 L 32.265625 -49.96875 L 43.6875 -49.96875 L 27.109375 -19.453125 L 27.109375 0 L 16.578125 0 L 16.578125 -19.109375 L 0 -49.96875 L 11.484375 -49.96875 Z M 21.84375 -29.390625 "/></g></g></g><g fill="#ffffff" fill-opacity="1"><g transform="translate(390.19692, 648.674747)"><g><path d="M 51.640625 -25.046875 C 51.640625 -16.773438 49.585938 -10.414062 45.484375 -5.96875 C 41.390625 -1.53125 35.515625 0.6875 27.859375 0.6875 C 20.203125 0.6875 14.320312 -1.53125 10.21875 -5.96875 C 6.113281 -10.414062 4.0625 -16.800781 4.0625 -25.125 C 4.0625 -33.4375 6.117188 -39.785156 10.234375 -44.171875 C 14.347656 -48.554688 20.242188 -50.75 27.921875 -50.75 C 35.597656 -50.75 41.46875 -48.539062 45.53125 -44.125 C 49.601562 -39.707031 51.640625 -33.347656 51.640625 -25.046875 Z M 15.171875 -25.046875 C 15.171875 -19.472656 16.226562 -15.269531 18.34375 -12.4375 C 20.46875 -9.613281 23.640625 -8.203125 27.859375 -8.203125 C 36.304688 -8.203125 40.53125 -13.816406 40.53125 -25.046875 C 40.53125 -36.304688 36.328125 -41.9375 27.921875 -41.9375 C 23.710938 -41.9375 20.535156 -40.515625 18.390625 -37.671875 C 16.242188 -34.835938 15.171875 -30.628906 15.171875 -25.046875 Z M 15.171875 -25.046875 "/></g></g></g><g fill="#ffffff" fill-opacity="1"><g transform="translate(445.906699, 648.674747)"><g><path d="M 50.625 0 L 37.15625 0 L 15.421875 -37.796875 L 15.109375 -37.796875 C 15.535156 -31.117188 15.75 -26.359375 15.75 -23.515625 L 15.75 0 L 6.296875 0 L 6.296875 -49.96875 L 19.65625 -49.96875 L 41.359375 -12.546875 L 41.59375 -12.546875 C 41.25 -19.035156 41.078125 -23.625 41.078125 -26.3125 L 41.078125 -49.96875 L 50.625 -49.96875 Z M 50.625 0 "/></g></g></g><g fill="#000000" fill-opacity="1"><g transform="translate(116.669755, 163.740129)"><g><path d="M 6.9375 0 L 3.09375 0 L 3.09375 -23.578125 L 16.421875 -23.578125 L 16.421875 -20.328125 L 6.9375 -20.328125 L 6.9375 -12.96875 L 15.8125 -12.96875 L 15.8125 -9.71875 L 6.9375 -9.71875 Z M 6.9375 0 "/></g></g></g><g fill="#000000" fill-opacity="1"><g transform="translate(134.268078, 163.740129)"><g><path d="M 9.828125 -18.1875 C 11.410156 -18.1875 12.769531 -17.859375 13.90625 -17.203125 C 15.050781 -16.546875 15.929688 -15.613281 16.546875 -14.40625 C 17.160156 -13.207031 17.46875 -11.769531 17.46875 -10.09375 L 17.46875 -8.0625 L 5.546875 -8.0625 C 5.585938 -6.332031 6.050781 -5 6.9375 -4.0625 C 7.832031 -3.125 9.078125 -2.65625 10.671875 -2.65625 C 11.816406 -2.65625 12.84375 -2.765625 13.75 -2.984375 C 14.65625 -3.210938 15.59375 -3.539062 16.5625 -3.96875 L 16.5625 -0.890625 C 15.664062 -0.472656 14.753906 -0.164062 13.828125 0.03125 C 12.910156 0.226562 11.804688 0.328125 10.515625 0.328125 C 8.765625 0.328125 7.222656 -0.0078125 5.890625 -0.6875 C 4.566406 -1.375 3.53125 -2.394531 2.78125 -3.75 C 2.03125 -5.113281 1.65625 -6.800781 1.65625 -8.8125 C 1.65625 -10.8125 1.992188 -12.507812 2.671875 -13.90625 C 3.347656 -15.300781 4.300781 -16.363281 5.53125 -17.09375 C 6.757812 -17.820312 8.191406 -18.1875 9.828125 -18.1875 Z M 9.828125 -15.34375 C 8.628906 -15.34375 7.660156 -14.953125 6.921875 -14.171875 C 6.191406 -13.398438 5.757812 -12.269531 5.625 -10.78125 L 13.75 -10.78125 C 13.738281 -11.664062 13.59375 -12.453125 13.3125 -13.140625 C 13.03125 -13.828125 12.597656 -14.363281 12.015625 -14.75 C 11.441406 -15.144531 10.710938 -15.34375 9.828125 -15.34375 Z M 15.09375 -25.3125 L 15.09375 -24.984375 C 14.84375 -24.671875 14.492188 -24.296875 14.046875 -23.859375 C 13.609375 -23.421875 13.128906 -22.960938 12.609375 -22.484375 C 12.097656 -22.015625 11.585938 -21.5625 11.078125 -21.125 C 10.578125 -20.6875 10.125 -20.316406 9.71875 -20.015625 L 7.1875 -20.015625 L 7.1875 -20.4375 C 7.539062 -20.84375 7.929688 -21.328125 8.359375 -21.890625 C 8.796875 -22.460938 9.226562 -23.050781 9.65625 -23.65625 C 10.082031 -24.257812 10.441406 -24.8125 10.734375 -25.3125 Z M 15.09375 -25.3125 "/></g></g></g><g fill="#000000" fill-opacity="1"><g transform="translate(153.302006, 163.740129)"><g><path d="M 8.703125 0.328125 C 6.578125 0.328125 4.867188 -0.445312 3.578125 -2 C 2.296875 -3.5625 1.65625 -5.859375 1.65625 -8.890625 C 1.65625 -11.953125 2.304688 -14.265625 3.609375 -15.828125 C 4.921875 -17.398438 6.648438 -18.1875 8.796875 -18.1875 C 9.691406 -18.1875 10.476562 -18.066406 11.15625 -17.828125 C 11.832031 -17.585938 12.414062 -17.257812 12.90625 -16.84375 C 13.394531 -16.4375 13.8125 -15.984375 14.15625 -15.484375 L 14.34375 -15.484375 C 14.28125 -15.816406 14.210938 -16.296875 14.140625 -16.921875 C 14.078125 -17.554688 14.046875 -18.140625 14.046875 -18.671875 L 14.046875 -25.09375 L 17.859375 -25.09375 L 17.859375 0 L 14.890625 0 L 14.203125 -2.4375 L 14.046875 -2.4375 C 13.722656 -1.914062 13.316406 -1.445312 12.828125 -1.03125 C 12.335938 -0.625 11.753906 -0.296875 11.078125 -0.046875 C 10.410156 0.203125 9.617188 0.328125 8.703125 0.328125 Z M 9.78125 -2.765625 C 11.394531 -2.765625 12.535156 -3.226562 13.203125 -4.15625 C 13.867188 -5.09375 14.210938 -6.5 14.234375 -8.375 L 14.234375 -8.875 C 14.234375 -10.875 13.910156 -12.40625 13.265625 -13.46875 C 12.628906 -14.539062 11.453125 -15.078125 9.734375 -15.078125 C 8.367188 -15.078125 7.328125 -14.523438 6.609375 -13.421875 C 5.898438 -12.328125 5.546875 -10.796875 5.546875 -8.828125 C 5.546875 -6.859375 5.898438 -5.351562 6.609375 -4.3125 C 7.328125 -3.28125 8.382812 -2.765625 9.78125 -2.765625 Z M 9.78125 -2.765625 "/></g></g></g><g fill="#000000" fill-opacity="1"><g transform="translate(173.868331, 163.740129)"><g><path d="M 9.828125 -18.1875 C 11.410156 -18.1875 12.769531 -17.859375 13.90625 -17.203125 C 15.050781 -16.546875 15.929688 -15.613281 16.546875 -14.40625 C 17.160156 -13.207031 17.46875 -11.769531 17.46875 -10.09375 L 17.46875 -8.0625 L 5.546875 -8.0625 C 5.585938 -6.332031 6.050781 -5 6.9375 -4.0625 C 7.832031 -3.125 9.078125 -2.65625 10.671875 -2.65625 C 11.816406 -2.65625 12.84375 -2.765625 13.75 -2.984375 C 14.65625 -3.210938 15.59375 -3.539062 16.5625 -3.96875 L 16.5625 -0.890625 C 15.664062 -0.472656 14.753906 -0.164062 13.828125 0.03125 C 12.910156 0.226562 11.804688 0.328125 10.515625 0.328125 C 8.765625 0.328125 7.222656 -0.0078125 5.890625 -0.6875 C 4.566406 -1.375 3.53125 -2.394531 2.78125 -3.75 C 2.03125 -5.113281 1.65625 -6.800781 1.65625 -8.8125 C 1.65625 -10.8125 1.992188 -12.507812 2.671875 -13.90625 C 3.347656 -15.300781 4.300781 -16.363281 5.53125 -17.09375 C 6.757812 -17.820312 8.191406 -18.1875 9.828125 -18.1875 Z M 9.828125 -15.34375 C 8.628906 -15.34375 7.660156 -14.953125 6.921875 -14.171875 C 6.191406 -13.398438 5.757812 -12.269531 5.625 -10.78125 L 13.75 -10.78125 C 13.738281 -11.664062 13.59375 -12.453125 13.3125 -13.140625 C 13.03125 -13.828125 12.597656 -14.363281 12.015625 -14.75 C 11.441406 -15.144531 10.710938 -15.34375 9.828125 -15.34375 Z M 15.09375 -25.3125 L 15.09375 -24.984375 C 14.84375 -24.671875 14.492188 -24.296875 14.046875 -23.859375 C 13.609375 -23.421875 13.128906 -22.960938 12.609375 -22.484375 C 12.097656 -22.015625 11.585938 -21.5625 11.078125 -21.125 C 10.578125 -20.6875 10.125 -20.316406 9.71875 -20.015625 L 7.1875 -20.015625 L 7.1875 -20.4375 C 7.539062 -20.84375 7.929688 -21.328125 8.359375 -21.890625 C 8.796875 -22.460938 9.226562 -23.050781 9.65625 -23.65625 C 10.082031 -24.257812 10.441406 -24.8125 10.734375 -25.3125 Z M 15.09375 -25.3125 "/></g></g></g><g fill="#000000" fill-opacity="1"><g transform="translate(192.902258, 163.740129)"><g><path d="M 11.75 -18.1875 C 12.050781 -18.1875 12.378906 -18.171875 12.734375 -18.140625 C 13.097656 -18.109375 13.40625 -18.066406 13.65625 -18.015625 L 13.3125 -14.46875 C 13.082031 -14.53125 12.800781 -14.578125 12.46875 -14.609375 C 12.144531 -14.640625 11.851562 -14.65625 11.59375 -14.65625 C 10.914062 -14.65625 10.269531 -14.546875 9.65625 -14.328125 C 9.039062 -14.109375 8.5 -13.773438 8.03125 -13.328125 C 7.5625 -12.878906 7.191406 -12.320312 6.921875 -11.65625 C 6.648438 -10.988281 6.515625 -10.21875 6.515625 -9.34375 L 6.515625 0 L 2.703125 0 L 2.703125 -17.859375 L 5.671875 -17.859375 L 6.1875 -14.703125 L 6.375 -14.703125 C 6.726562 -15.335938 7.164062 -15.914062 7.6875 -16.4375 C 8.21875 -16.96875 8.820312 -17.390625 9.5 -17.703125 C 10.1875 -18.023438 10.9375 -18.1875 11.75 -18.1875 Z M 11.75 -18.1875 "/></g></g></g><g fill="#000000" fill-opacity="1"><g transform="translate(207.161573, 163.740129)"><g><path d="M 9.703125 -18.1875 C 11.960938 -18.1875 13.671875 -17.6875 14.828125 -16.6875 C 15.984375 -15.6875 16.5625 -14.128906 16.5625 -12.015625 L 16.5625 0 L 13.875 0 L 13.140625 -2.53125 L 13.015625 -2.53125 C 12.503906 -1.882812 11.976562 -1.351562 11.4375 -0.9375 C 10.90625 -0.519531 10.285156 -0.207031 9.578125 0 C 8.878906 0.21875 8.023438 0.328125 7.015625 0.328125 C 5.953125 0.328125 5 0.128906 4.15625 -0.265625 C 3.320312 -0.660156 2.660156 -1.257812 2.171875 -2.0625 C 1.691406 -2.875 1.453125 -3.894531 1.453125 -5.125 C 1.453125 -6.96875 2.132812 -8.347656 3.5 -9.265625 C 4.875 -10.191406 6.945312 -10.707031 9.71875 -10.8125 L 12.828125 -10.921875 L 12.828125 -11.859375 C 12.828125 -13.085938 12.535156 -13.96875 11.953125 -14.5 C 11.378906 -15.03125 10.570312 -15.296875 9.53125 -15.296875 C 8.632812 -15.296875 7.765625 -15.164062 6.921875 -14.90625 C 6.085938 -14.644531 5.273438 -14.328125 4.484375 -13.953125 L 3.265625 -16.625 C 4.128906 -17.09375 5.117188 -17.46875 6.234375 -17.75 C 7.347656 -18.039062 8.503906 -18.1875 9.703125 -18.1875 Z M 12.8125 -8.53125 L 10.5 -8.453125 C 8.601562 -8.390625 7.273438 -8.066406 6.515625 -7.484375 C 5.753906 -6.898438 5.375 -6.101562 5.375 -5.09375 C 5.375 -4.21875 5.632812 -3.578125 6.15625 -3.171875 C 6.6875 -2.765625 7.378906 -2.5625 8.234375 -2.5625 C 9.546875 -2.5625 10.632812 -2.9375 11.5 -3.6875 C 12.375 -4.4375 12.8125 -5.535156 12.8125 -6.984375 Z M 12.8125 -8.53125 "/></g></g></g><g fill="#000000" fill-opacity="1"><g transform="translate(226.324544, 163.740129)"><g><path d="M 9.359375 -2.734375 C 9.847656 -2.734375 10.332031 -2.78125 10.8125 -2.875 C 11.300781 -2.96875 11.742188 -3.078125 12.140625 -3.203125 L 12.140625 -0.34375 C 11.722656 -0.15625 11.179688 0 10.515625 0.125 C 9.847656 0.257812 9.15625 0.328125 8.4375 0.328125 C 7.425781 0.328125 6.515625 0.160156 5.703125 -0.171875 C 4.898438 -0.515625 4.257812 -1.097656 3.78125 -1.921875 C 3.3125 -2.753906 3.078125 -3.90625 3.078125 -5.375 L 3.078125 -14.96875 L 0.640625 -14.96875 L 0.640625 -16.65625 L 3.265625 -18 L 4.5 -21.828125 L 6.890625 -21.828125 L 6.890625 -17.859375 L 12 -17.859375 L 12 -14.96875 L 6.890625 -14.96875 L 6.890625 -5.421875 C 6.890625 -4.515625 7.113281 -3.835938 7.5625 -3.390625 C 8.007812 -2.953125 8.609375 -2.734375 9.359375 -2.734375 Z M 9.359375 -2.734375 "/></g></g></g><g fill="#000000" fill-opacity="1"><g transform="translate(239.390205, 163.740129)"><g><path d="M 6.5 -17.859375 L 6.5 0 L 2.703125 0 L 2.703125 -17.859375 Z M 4.625 -24.6875 C 5.207031 -24.6875 5.710938 -24.53125 6.140625 -24.21875 C 6.566406 -23.90625 6.78125 -23.367188 6.78125 -22.609375 C 6.78125 -21.859375 6.566406 -21.320312 6.140625 -21 C 5.710938 -20.6875 5.207031 -20.53125 4.625 -20.53125 C 4.019531 -20.53125 3.507812 -20.6875 3.09375 -21 C 2.6875 -21.320312 2.484375 -21.859375 2.484375 -22.609375 C 2.484375 -23.367188 2.6875 -23.90625 3.09375 -24.21875 C 3.507812 -24.53125 4.019531 -24.6875 4.625 -24.6875 Z M 4.625 -24.6875 "/></g></g></g><g fill="#000000" fill-opacity="1"><g transform="translate(248.600696, 163.740129)"><g><path d="M 18.515625 -8.96875 C 18.515625 -7.476562 18.320312 -6.160156 17.9375 -5.015625 C 17.550781 -3.867188 16.984375 -2.898438 16.234375 -2.109375 C 15.492188 -1.316406 14.601562 -0.710938 13.5625 -0.296875 C 12.519531 0.117188 11.34375 0.328125 10.03125 0.328125 C 8.800781 0.328125 7.675781 0.117188 6.65625 -0.296875 C 5.632812 -0.710938 4.75 -1.316406 4 -2.109375 C 3.257812 -2.898438 2.679688 -3.867188 2.265625 -5.015625 C 1.859375 -6.160156 1.65625 -7.476562 1.65625 -8.96875 C 1.65625 -10.9375 1.992188 -12.601562 2.671875 -13.96875 C 3.359375 -15.34375 4.335938 -16.390625 5.609375 -17.109375 C 6.878906 -17.828125 8.390625 -18.1875 10.140625 -18.1875 C 11.785156 -18.1875 13.238281 -17.828125 14.5 -17.109375 C 15.757812 -16.390625 16.742188 -15.34375 17.453125 -13.96875 C 18.160156 -12.59375 18.515625 -10.925781 18.515625 -8.96875 Z M 5.5625 -8.96875 C 5.5625 -7.664062 5.71875 -6.550781 6.03125 -5.625 C 6.351562 -4.695312 6.847656 -3.988281 7.515625 -3.5 C 8.179688 -3.019531 9.039062 -2.78125 10.09375 -2.78125 C 11.144531 -2.78125 12.003906 -3.019531 12.671875 -3.5 C 13.335938 -3.988281 13.828125 -4.695312 14.140625 -5.625 C 14.453125 -6.550781 14.609375 -7.664062 14.609375 -8.96875 C 14.609375 -10.269531 14.453125 -11.375 14.140625 -12.28125 C 13.828125 -13.1875 13.335938 -13.878906 12.671875 -14.359375 C 12.003906 -14.835938 11.140625 -15.078125 10.078125 -15.078125 C 8.503906 -15.078125 7.359375 -14.550781 6.640625 -13.5 C 5.921875 -12.445312 5.5625 -10.9375 5.5625 -8.96875 Z M 5.5625 -8.96875 "/></g></g></g><g fill="#000000" fill-opacity="1"><g transform="translate(268.763754, 163.740129)"><g><path d="M 12.015625 -18.1875 C 14.023438 -18.1875 15.59375 -17.664062 16.71875 -16.625 C 17.84375 -15.59375 18.40625 -13.929688 18.40625 -11.640625 L 18.40625 0 L 14.609375 0 L 14.609375 -10.9375 C 14.609375 -12.320312 14.320312 -13.359375 13.75 -14.046875 C 13.1875 -14.742188 12.304688 -15.09375 11.109375 -15.09375 C 9.378906 -15.09375 8.175781 -14.5625 7.5 -13.5 C 6.832031 -12.4375 6.5 -10.894531 6.5 -8.875 L 6.5 0 L 2.703125 0 L 2.703125 -17.859375 L 5.65625 -17.859375 L 6.1875 -15.4375 L 6.40625 -15.4375 C 6.789062 -16.0625 7.269531 -16.570312 7.84375 -16.96875 C 8.414062 -17.375 9.0625 -17.675781 9.78125 -17.875 C 10.5 -18.082031 11.242188 -18.1875 12.015625 -18.1875 Z M 12.015625 -18.1875 "/></g></g></g><g fill="#000000" fill-opacity="1"><g transform="translate(289.749471, 163.740129)"><g/></g></g><g fill="#000000" fill-opacity="1"><g transform="translate(298.330869, 163.740129)"><g><path d="M 8.703125 0.328125 C 6.578125 0.328125 4.867188 -0.445312 3.578125 -2 C 2.296875 -3.5625 1.65625 -5.859375 1.65625 -8.890625 C 1.65625 -11.953125 2.304688 -14.265625 3.609375 -15.828125 C 4.921875 -17.398438 6.648438 -18.1875 8.796875 -18.1875 C 9.691406 -18.1875 10.476562 -18.066406 11.15625 -17.828125 C 11.832031 -17.585938 12.414062 -17.257812 12.90625 -16.84375 C 13.394531 -16.4375 13.8125 -15.984375 14.15625 -15.484375 L 14.34375 -15.484375 C 14.28125 -15.816406 14.210938 -16.296875 14.140625 -16.921875 C 14.078125 -17.554688 14.046875 -18.140625 14.046875 -18.671875 L 14.046875 -25.09375 L 17.859375 -25.09375 L 17.859375 0 L 14.890625 0 L 14.203125 -2.4375 L 14.046875 -2.4375 C 13.722656 -1.914062 13.316406 -1.445312 12.828125 -1.03125 C 12.335938 -0.625 11.753906 -0.296875 11.078125 -0.046875 C 10.410156 0.203125 9.617188 0.328125 8.703125 0.328125 Z M 9.78125 -2.765625 C 11.394531 -2.765625 12.535156 -3.226562 13.203125 -4.15625 C 13.867188 -5.09375 14.210938 -6.5 14.234375 -8.375 L 14.234375 -8.875 C 14.234375 -10.875 13.910156 -12.40625 13.265625 -13.46875 C 12.628906 -14.539062 11.453125 -15.078125 9.734375 -15.078125 C 8.367188 -15.078125 7.328125 -14.523438 6.609375 -13.421875 C 5.898438 -12.328125 5.546875 -10.796875 5.546875 -8.828125 C 5.546875 -6.859375 5.898438 -5.351562 6.609375 -4.3125 C 7.328125 -3.28125 8.382812 -2.765625 9.78125 -2.765625 Z M 9.78125 -2.765625 "/></g></g></g><g fill="#000000" fill-opacity="1"><g transform="translate(318.897193, 163.740129)"><g><path d="M 9.828125 -18.1875 C 11.410156 -18.1875 12.769531 -17.859375 13.90625 -17.203125 C 15.050781 -16.546875 15.929688 -15.613281 16.546875 -14.40625 C 17.160156 -13.207031 17.46875 -11.769531 17.46875 -10.09375 L 17.46875 -8.0625 L 5.546875 -8.0625 C 5.585938 -6.332031 6.050781 -5 6.9375 -4.0625 C 7.832031 -3.125 9.078125 -2.65625 10.671875 -2.65625 C 11.816406 -2.65625 12.84375 -2.765625 13.75 -2.984375 C 14.65625 -3.210938 15.59375 -3.539062 16.5625 -3.96875 L 16.5625 -0.890625 C 15.664062 -0.472656 14.753906 -0.164062 13.828125 0.03125 C 12.910156 0.226562 11.804688 0.328125 10.515625 0.328125 C 8.765625 0.328125 7.222656 -0.0078125 5.890625 -0.6875 C 4.566406 -1.375 3.53125 -2.394531 2.78125 -3.75 C 2.03125 -5.113281 1.65625 -6.800781 1.65625 -8.8125 C 1.65625 -10.8125 1.992188 -12.507812 2.671875 -13.90625 C 3.347656 -15.300781 4.300781 -16.363281 5.53125 -17.09375 C 6.757812 -17.820312 8.191406 -18.1875 9.828125 -18.1875 Z M 9.828125 -15.34375 C 8.628906 -15.34375 7.660156 -14.953125 6.921875 -14.171875 C 6.191406 -13.398438 5.757812 -12.269531 5.625 -10.78125 L 13.75 -10.78125 C 13.738281 -11.664062 13.59375 -12.453125 13.3125 -13.140625 C 13.03125 -13.828125 12.597656 -14.363281 12.015625 -14.75 C 11.441406 -15.144531 10.710938 -15.34375 9.828125 -15.34375 Z M 9.828125 -15.34375 "/></g></g></g><g fill="#000000" fill-opacity="1"><g transform="translate(337.931121, 163.740129)"><g><path d="M 14.703125 -5.09375 C 14.703125 -3.925781 14.414062 -2.9375 13.84375 -2.125 C 13.28125 -1.320312 12.453125 -0.710938 11.359375 -0.296875 C 10.265625 0.117188 8.929688 0.328125 7.359375 0.328125 C 6.109375 0.328125 5.035156 0.238281 4.140625 0.0625 C 3.242188 -0.113281 2.394531 -0.390625 1.59375 -0.765625 L 1.59375 -4.03125 C 2.445312 -3.632812 3.398438 -3.289062 4.453125 -3 C 5.515625 -2.707031 6.519531 -2.5625 7.46875 -2.5625 C 8.71875 -2.5625 9.613281 -2.753906 10.15625 -3.140625 C 10.707031 -3.535156 10.984375 -4.0625 10.984375 -4.71875 C 10.984375 -5.113281 10.875 -5.460938 10.65625 -5.765625 C 10.4375 -6.066406 10.023438 -6.378906 9.421875 -6.703125 C 8.828125 -7.035156 7.957031 -7.4375 6.8125 -7.90625 C 5.675781 -8.351562 4.722656 -8.800781 3.953125 -9.25 C 3.179688 -9.707031 2.59375 -10.253906 2.1875 -10.890625 C 1.789062 -11.535156 1.59375 -12.359375 1.59375 -13.359375 C 1.59375 -14.929688 2.21875 -16.128906 3.46875 -16.953125 C 4.726562 -17.773438 6.390625 -18.1875 8.453125 -18.1875 C 9.546875 -18.1875 10.578125 -18.078125 11.546875 -17.859375 C 12.523438 -17.640625 13.484375 -17.320312 14.421875 -16.90625 L 13.21875 -14.046875 C 12.414062 -14.398438 11.609375 -14.691406 10.796875 -14.921875 C 9.984375 -15.160156 9.160156 -15.28125 8.328125 -15.28125 C 7.347656 -15.28125 6.601562 -15.128906 6.09375 -14.828125 C 5.582031 -14.523438 5.328125 -14.09375 5.328125 -13.53125 C 5.328125 -13.113281 5.445312 -12.757812 5.6875 -12.46875 C 5.9375 -12.175781 6.363281 -11.882812 6.96875 -11.59375 C 7.582031 -11.300781 8.429688 -10.941406 9.515625 -10.515625 C 10.578125 -10.109375 11.5 -9.679688 12.28125 -9.234375 C 13.0625 -8.785156 13.660156 -8.238281 14.078125 -7.59375 C 14.492188 -6.945312 14.703125 -6.113281 14.703125 -5.09375 Z M 14.703125 -5.09375 "/></g></g></g><g fill="#000000" fill-opacity="1"><g transform="translate(354.013182, 163.740129)"><g/></g></g><g fill="#000000" fill-opacity="1"><g transform="translate(362.594579, 163.740129)"><g><path d="M 0.15625 6.5625 C -0.425781 6.5625 -0.941406 6.523438 -1.390625 6.453125 C -1.835938 6.390625 -2.222656 6.296875 -2.546875 6.171875 L -2.546875 2.9375 C -2.203125 3.019531 -1.832031 3.09375 -1.4375 3.15625 C -1.039062 3.226562 -0.613281 3.265625 -0.15625 3.265625 C 0.425781 3.265625 0.957031 3.148438 1.4375 2.921875 C 1.925781 2.691406 2.3125 2.28125 2.59375 1.6875 C 2.882812 1.101562 3.03125 0.269531 3.03125 -0.8125 L 3.03125 -23.578125 L 6.90625 -23.578125 L 6.90625 -0.9375 C 6.90625 0.8125 6.625 2.238281 6.0625 3.34375 C 5.5 4.445312 4.710938 5.257812 3.703125 5.78125 C 2.691406 6.300781 1.507812 6.5625 0.15625 6.5625 Z M 0.15625 6.5625 "/></g></g></g><g fill="#000000" fill-opacity="1"><g transform="translate(372.498662, 163.740129)"><g><path d="M 9.828125 -18.1875 C 11.410156 -18.1875 12.769531 -17.859375 13.90625 -17.203125 C 15.050781 -16.546875 15.929688 -15.613281 16.546875 -14.40625 C 17.160156 -13.207031 17.46875 -11.769531 17.46875 -10.09375 L 17.46875 -8.0625 L 5.546875 -8.0625 C 5.585938 -6.332031 6.050781 -5 6.9375 -4.0625 C 7.832031 -3.125 9.078125 -2.65625 10.671875 -2.65625 C 11.816406 -2.65625 12.84375 -2.765625 13.75 -2.984375 C 14.65625 -3.210938 15.59375 -3.539062 16.5625 -3.96875 L 16.5625 -0.890625 C 15.664062 -0.472656 14.753906 -0.164062 13.828125 0.03125 C 12.910156 0.226562 11.804688 0.328125 10.515625 0.328125 C 8.765625 0.328125 7.222656 -0.0078125 5.890625 -0.6875 C 4.566406 -1.375 3.53125 -2.394531 2.78125 -3.75 C 2.03125 -5.113281 1.65625 -6.800781 1.65625 -8.8125 C 1.65625 -10.8125 1.992188 -12.507812 2.671875 -13.90625 C 3.347656 -15.300781 4.300781 -16.363281 5.53125 -17.09375 C 6.757812 -17.820312 8.191406 -18.1875 9.828125 -18.1875 Z M 9.828125 -15.34375 C 8.628906 -15.34375 7.660156 -14.953125 6.921875 -14.171875 C 6.191406 -13.398438 5.757812 -12.269531 5.625 -10.78125 L 13.75 -10.78125 C 13.738281 -11.664062 13.59375 -12.453125 13.3125 -13.140625 C 13.03125 -13.828125 12.597656 -14.363281 12.015625 -14.75 C 11.441406 -15.144531 10.710938 -15.34375 9.828125 -15.34375 Z M 9.828125 -15.34375 "/></g></g></g><g fill="#000000" fill-opacity="1"><g transform="translate(391.532612, 163.740129)"><g><path d="M 18.28125 -17.859375 L 18.28125 0 L 15.296875 0 L 14.78125 -2.40625 L 14.5625 -2.40625 C 14.1875 -1.789062 13.707031 -1.28125 13.125 -0.875 C 12.539062 -0.476562 11.894531 -0.179688 11.1875 0.015625 C 10.476562 0.222656 9.734375 0.328125 8.953125 0.328125 C 7.609375 0.328125 6.457031 0.0976562 5.5 -0.359375 C 4.550781 -0.816406 3.820312 -1.523438 3.3125 -2.484375 C 2.8125 -3.441406 2.5625 -4.675781 2.5625 -6.1875 L 2.5625 -17.859375 L 6.375 -17.859375 L 6.375 -6.90625 C 6.375 -5.519531 6.65625 -4.484375 7.21875 -3.796875 C 7.78125 -3.109375 8.660156 -2.765625 9.859375 -2.765625 C 11.003906 -2.765625 11.914062 -3 12.59375 -3.46875 C 13.269531 -3.9375 13.75 -4.632812 14.03125 -5.5625 C 14.320312 -6.488281 14.46875 -7.625 14.46875 -8.96875 L 14.46875 -17.859375 Z M 18.28125 -17.859375 "/></g></g></g><g fill="#000000" fill-opacity="1"><g transform="translate(412.518328, 163.740129)"><g><path d="M 12.015625 -18.1875 C 14.023438 -18.1875 15.59375 -17.664062 16.71875 -16.625 C 17.84375 -15.59375 18.40625 -13.929688 18.40625 -11.640625 L 18.40625 0 L 14.609375 0 L 14.609375 -10.9375 C 14.609375 -12.320312 14.320312 -13.359375 13.75 -14.046875 C 13.1875 -14.742188 12.304688 -15.09375 11.109375 -15.09375 C 9.378906 -15.09375 8.175781 -14.5625 7.5 -13.5 C 6.832031 -12.4375 6.5 -10.894531 6.5 -8.875 L 6.5 0 L 2.703125 0 L 2.703125 -17.859375 L 5.65625 -17.859375 L 6.1875 -15.4375 L 6.40625 -15.4375 C 6.789062 -16.0625 7.269531 -16.570312 7.84375 -16.96875 C 8.414062 -17.375 9.0625 -17.675781 9.78125 -17.875 C 10.5 -18.082031 11.242188 -18.1875 12.015625 -18.1875 Z M 12.015625 -18.1875 "/></g></g></g><g fill="#000000" fill-opacity="1"><g transform="translate(433.504045, 163.740129)"><g><path d="M 9.828125 -18.1875 C 11.410156 -18.1875 12.769531 -17.859375 13.90625 -17.203125 C 15.050781 -16.546875 15.929688 -15.613281 16.546875 -14.40625 C 17.160156 -13.207031 17.46875 -11.769531 17.46875 -10.09375 L 17.46875 -8.0625 L 5.546875 -8.0625 C 5.585938 -6.332031 6.050781 -5 6.9375 -4.0625 C 7.832031 -3.125 9.078125 -2.65625 10.671875 -2.65625 C 11.816406 -2.65625 12.84375 -2.765625 13.75 -2.984375 C 14.65625 -3.210938 15.59375 -3.539062 16.5625 -3.96875 L 16.5625 -0.890625 C 15.664062 -0.472656 14.753906 -0.164062 13.828125 0.03125 C 12.910156 0.226562 11.804688 0.328125 10.515625 0.328125 C 8.765625 0.328125 7.222656 -0.0078125 5.890625 -0.6875 C 4.566406 -1.375 3.53125 -2.394531 2.78125 -3.75 C 2.03125 -5.113281 1.65625 -6.800781 1.65625 -8.8125 C 1.65625 -10.8125 1.992188 -12.507812 2.671875 -13.90625 C 3.347656 -15.300781 4.300781 -16.363281 5.53125 -17.09375 C 6.757812 -17.820312 8.191406 -18.1875 9.828125 -18.1875 Z M 9.828125 -15.34375 C 8.628906 -15.34375 7.660156 -14.953125 6.921875 -14.171875 C 6.191406 -13.398438 5.757812 -12.269531 5.625 -10.78125 L 13.75 -10.78125 C 13.738281 -11.664062 13.59375 -12.453125 13.3125 -13.140625 C 13.03125 -13.828125 12.597656 -14.363281 12.015625 -14.75 C 11.441406 -15.144531 10.710938 -15.34375 9.828125 -15.34375 Z M 9.828125 -15.34375 "/></g></g></g><g fill="#000000" fill-opacity="1"><g transform="translate(452.537949, 163.740129)"><g><path d="M 14.703125 -5.09375 C 14.703125 -3.925781 14.414062 -2.9375 13.84375 -2.125 C 13.28125 -1.320312 12.453125 -0.710938 11.359375 -0.296875 C 10.265625 0.117188 8.929688 0.328125 7.359375 0.328125 C 6.109375 0.328125 5.035156 0.238281 4.140625 0.0625 C 3.242188 -0.113281 2.394531 -0.390625 1.59375 -0.765625 L 1.59375 -4.03125 C 2.445312 -3.632812 3.398438 -3.289062 4.453125 -3 C 5.515625 -2.707031 6.519531 -2.5625 7.46875 -2.5625 C 8.71875 -2.5625 9.613281 -2.753906 10.15625 -3.140625 C 10.707031 -3.535156 10.984375 -4.0625 10.984375 -4.71875 C 10.984375 -5.113281 10.875 -5.460938 10.65625 -5.765625 C 10.4375 -6.066406 10.023438 -6.378906 9.421875 -6.703125 C 8.828125 -7.035156 7.957031 -7.4375 6.8125 -7.90625 C 5.675781 -8.351562 4.722656 -8.800781 3.953125 -9.25 C 3.179688 -9.707031 2.59375 -10.253906 2.1875 -10.890625 C 1.789062 -11.535156 1.59375 -12.359375 1.59375 -13.359375 C 1.59375 -14.929688 2.21875 -16.128906 3.46875 -16.953125 C 4.726562 -17.773438 6.390625 -18.1875 8.453125 -18.1875 C 9.546875 -18.1875 10.578125 -18.078125 11.546875 -17.859375 C 12.523438 -17.640625 13.484375 -17.320312 14.421875 -16.90625 L 13.21875 -14.046875 C 12.414062 -14.398438 11.609375 -14.691406 10.796875 -14.921875 C 9.984375 -15.160156 9.160156 -15.28125 8.328125 -15.28125 C 7.347656 -15.28125 6.601562 -15.128906 6.09375 -14.828125 C 5.582031 -14.523438 5.328125 -14.09375 5.328125 -13.53125 C 5.328125 -13.113281 5.445312 -12.757812 5.6875 -12.46875 C 5.9375 -12.175781 6.363281 -11.882812 6.96875 -11.59375 C 7.582031 -11.300781 8.429688 -10.941406 9.515625 -10.515625 C 10.578125 -10.109375 11.5 -9.679688 12.28125 -9.234375 C 13.0625 -8.785156 13.660156 -8.238281 14.078125 -7.59375 C 14.492188 -6.945312 14.703125 -6.113281 14.703125 -5.09375 Z M 14.703125 -5.09375 "/></g></g></g><g fill="#000000" fill-opacity="1"><g transform="translate(116.669755, 209.490127)"><g><path d="M 9.71875 -23.578125 C 11.757812 -23.578125 13.441406 -23.328125 14.765625 -22.828125 C 16.085938 -22.335938 17.070312 -21.585938 17.71875 -20.578125 C 18.375 -19.566406 18.703125 -18.28125 18.703125 -16.71875 C 18.703125 -15.5625 18.488281 -14.570312 18.0625 -13.75 C 17.632812 -12.9375 17.070312 -12.257812 16.375 -11.71875 C 15.675781 -11.1875 14.925781 -10.757812 14.125 -10.4375 L 20.828125 0 L 16.453125 0 L 10.75 -9.453125 L 6.96875 -9.453125 L 6.96875 0 L 3.09375 0 L 3.09375 -23.578125 Z M 9.46875 -20.359375 L 6.96875 -20.359375 L 6.96875 -12.640625 L 9.640625 -12.640625 C 11.441406 -12.640625 12.75 -12.972656 13.5625 -13.640625 C 14.375 -14.304688 14.78125 -15.289062 14.78125 -16.59375 C 14.78125 -17.957031 14.34375 -18.925781 13.46875 -19.5 C 12.601562 -20.070312 11.269531 -20.359375 9.46875 -20.359375 Z M 9.46875 -20.359375 "/></g></g></g><g fill="#000000" fill-opacity="1"><g transform="translate(137.768379, 209.490127)"><g><path d="M 9.828125 -18.1875 C 11.410156 -18.1875 12.769531 -17.859375 13.90625 -17.203125 C 15.050781 -16.546875 15.929688 -15.613281 16.546875 -14.40625 C 17.160156 -13.207031 17.46875 -11.769531 17.46875 -10.09375 L 17.46875 -8.0625 L 5.546875 -8.0625 C 5.585938 -6.332031 6.050781 -5 6.9375 -4.0625 C 7.832031 -3.125 9.078125 -2.65625 10.671875 -2.65625 C 11.816406 -2.65625 12.84375 -2.765625 13.75 -2.984375 C 14.65625 -3.210938 15.59375 -3.539062 16.5625 -3.96875 L 16.5625 -0.890625 C 15.664062 -0.472656 14.753906 -0.164062 13.828125 0.03125 C 12.910156 0.226562 11.804688 0.328125 10.515625 0.328125 C 8.765625 0.328125 7.222656 -0.0078125 5.890625 -0.6875 C 4.566406 -1.375 3.53125 -2.394531 2.78125 -3.75 C 2.03125 -5.113281 1.65625 -6.800781 1.65625 -8.8125 C 1.65625 -10.8125 1.992188 -12.507812 2.671875 -13.90625 C 3.347656 -15.300781 4.300781 -16.363281 5.53125 -17.09375 C 6.757812 -17.820312 8.191406 -18.1875 9.828125 -18.1875 Z M 9.828125 -15.34375 C 8.628906 -15.34375 7.660156 -14.953125 6.921875 -14.171875 C 6.191406 -13.398438 5.757812 -12.269531 5.625 -10.78125 L 13.75 -10.78125 C 13.738281 -11.664062 13.59375 -12.453125 13.3125 -13.140625 C 13.03125 -13.828125 12.597656 -14.363281 12.015625 -14.75 C 11.441406 -15.144531 10.710938 -15.34375 9.828125 -15.34375 Z M 15.09375 -25.3125 L 15.09375 -24.984375 C 14.84375 -24.671875 14.492188 -24.296875 14.046875 -23.859375 C 13.609375 -23.421875 13.128906 -22.960938 12.609375 -22.484375 C 12.097656 -22.015625 11.585938 -21.5625 11.078125 -21.125 C 10.578125 -20.6875 10.125 -20.316406 9.71875 -20.015625 L 7.1875 -20.015625 L 7.1875 -20.4375 C 7.539062 -20.84375 7.929688 -21.328125 8.359375 -21.890625 C 8.796875 -22.460938 9.226562 -23.050781 9.65625 -23.65625 C 10.082031 -24.257812 10.441406 -24.8125 10.734375 -25.3125 Z M 15.09375 -25.3125 "/></g></g></g><g fill="#000000" fill-opacity="1"><g transform="translate(156.802306, 209.490127)"><g><path d="M 6.796875 0 L 0 -17.859375 L 4.015625 -17.859375 L 7.6875 -7.375 C 7.925781 -6.707031 8.140625 -5.984375 8.328125 -5.203125 C 8.523438 -4.429688 8.660156 -3.785156 8.734375 -3.265625 L 8.875 -3.265625 C 8.945312 -3.804688 9.085938 -4.460938 9.296875 -5.234375 C 9.515625 -6.003906 9.738281 -6.71875 9.96875 -7.375 L 13.640625 -17.859375 L 17.640625 -17.859375 L 10.859375 0 Z M 6.796875 0 "/></g></g></g><g fill="#000000" fill-opacity="1"><g transform="translate(174.449015, 209.490127)"><g><path d="M 18.515625 -8.96875 C 18.515625 -7.476562 18.320312 -6.160156 17.9375 -5.015625 C 17.550781 -3.867188 16.984375 -2.898438 16.234375 -2.109375 C 15.492188 -1.316406 14.601562 -0.710938 13.5625 -0.296875 C 12.519531 0.117188 11.34375 0.328125 10.03125 0.328125 C 8.800781 0.328125 7.675781 0.117188 6.65625 -0.296875 C 5.632812 -0.710938 4.75 -1.316406 4 -2.109375 C 3.257812 -2.898438 2.679688 -3.867188 2.265625 -5.015625 C 1.859375 -6.160156 1.65625 -7.476562 1.65625 -8.96875 C 1.65625 -10.9375 1.992188 -12.601562 2.671875 -13.96875 C 3.359375 -15.34375 4.335938 -16.390625 5.609375 -17.109375 C 6.878906 -17.828125 8.390625 -18.1875 10.140625 -18.1875 C 11.785156 -18.1875 13.238281 -17.828125 14.5 -17.109375 C 15.757812 -16.390625 16.742188 -15.34375 17.453125 -13.96875 C 18.160156 -12.59375 18.515625 -10.925781 18.515625 -8.96875 Z M 5.5625 -8.96875 C 5.5625 -7.664062 5.71875 -6.550781 6.03125 -5.625 C 6.351562 -4.695312 6.847656 -3.988281 7.515625 -3.5 C 8.179688 -3.019531 9.039062 -2.78125 10.09375 -2.78125 C 11.144531 -2.78125 12.003906 -3.019531 12.671875 -3.5 C 13.335938 -3.988281 13.828125 -4.695312 14.140625 -5.625 C 14.453125 -6.550781 14.609375 -7.664062 14.609375 -8.96875 C 14.609375 -10.269531 14.453125 -11.375 14.140625 -12.28125 C 13.828125 -13.1875 13.335938 -13.878906 12.671875 -14.359375 C 12.003906 -14.835938 11.140625 -15.078125 10.078125 -15.078125 C 8.503906 -15.078125 7.359375 -14.550781 6.640625 -13.5 C 5.921875 -12.445312 5.5625 -10.9375 5.5625 -8.96875 Z M 5.5625 -8.96875 "/></g></g></g><g fill="#000000" fill-opacity="1"><g transform="translate(194.612073, 209.490127)"><g><path d="M 6.515625 0 L 2.703125 0 L 2.703125 -25.09375 L 6.515625 -25.09375 Z M 6.515625 0 "/></g></g></g><g fill="#000000" fill-opacity="1"><g transform="translate(203.822564, 209.490127)"><g><path d="M 18.28125 -17.859375 L 18.28125 0 L 15.296875 0 L 14.78125 -2.40625 L 14.5625 -2.40625 C 14.1875 -1.789062 13.707031 -1.28125 13.125 -0.875 C 12.539062 -0.476562 11.894531 -0.179688 11.1875 0.015625 C 10.476562 0.222656 9.734375 0.328125 8.953125 0.328125 C 7.609375 0.328125 6.457031 0.0976562 5.5 -0.359375 C 4.550781 -0.816406 3.820312 -1.523438 3.3125 -2.484375 C 2.8125 -3.441406 2.5625 -4.675781 2.5625 -6.1875 L 2.5625 -17.859375 L 6.375 -17.859375 L 6.375 -6.90625 C 6.375 -5.519531 6.65625 -4.484375 7.21875 -3.796875 C 7.78125 -3.109375 8.660156 -2.765625 9.859375 -2.765625 C 11.003906 -2.765625 11.914062 -3 12.59375 -3.46875 C 13.269531 -3.9375 13.75 -4.632812 14.03125 -5.5625 C 14.320312 -6.488281 14.46875 -7.625 14.46875 -8.96875 L 14.46875 -17.859375 Z M 18.28125 -17.859375 "/></g></g></g><g fill="#000000" fill-opacity="1"><g transform="translate(224.808281, 209.490127)"><g><path d="M 9.359375 -2.734375 C 9.847656 -2.734375 10.332031 -2.78125 10.8125 -2.875 C 11.300781 -2.96875 11.742188 -3.078125 12.140625 -3.203125 L 12.140625 -0.34375 C 11.722656 -0.15625 11.179688 0 10.515625 0.125 C 9.847656 0.257812 9.15625 0.328125 8.4375 0.328125 C 7.425781 0.328125 6.515625 0.160156 5.703125 -0.171875 C 4.898438 -0.515625 4.257812 -1.097656 3.78125 -1.921875 C 3.3125 -2.753906 3.078125 -3.90625 3.078125 -5.375 L 3.078125 -14.96875 L 0.640625 -14.96875 L 0.640625 -16.65625 L 3.265625 -18 L 4.5 -21.828125 L 6.890625 -21.828125 L 6.890625 -17.859375 L 12 -17.859375 L 12 -14.96875 L 6.890625 -14.96875 L 6.890625 -5.421875 C 6.890625 -4.515625 7.113281 -3.835938 7.5625 -3.390625 C 8.007812 -2.953125 8.609375 -2.734375 9.359375 -2.734375 Z M 9.359375 -2.734375 "/></g></g></g><g fill="#000000" fill-opacity="1"><g transform="translate(237.873942, 209.490127)"><g><path d="M 6.5 -17.859375 L 6.5 0 L 2.703125 0 L 2.703125 -17.859375 Z M 4.625 -24.6875 C 5.207031 -24.6875 5.710938 -24.53125 6.140625 -24.21875 C 6.566406 -23.90625 6.78125 -23.367188 6.78125 -22.609375 C 6.78125 -21.859375 6.566406 -21.320312 6.140625 -21 C 5.710938 -20.6875 5.207031 -20.53125 4.625 -20.53125 C 4.019531 -20.53125 3.507812 -20.6875 3.09375 -21 C 2.6875 -21.320312 2.484375 -21.859375 2.484375 -22.609375 C 2.484375 -23.367188 2.6875 -23.90625 3.09375 -24.21875 C 3.507812 -24.53125 4.019531 -24.6875 4.625 -24.6875 Z M 4.625 -24.6875 "/></g></g></g><g fill="#000000" fill-opacity="1"><g transform="translate(247.084433, 209.490127)"><g><path d="M 18.515625 -8.96875 C 18.515625 -7.476562 18.320312 -6.160156 17.9375 -5.015625 C 17.550781 -3.867188 16.984375 -2.898438 16.234375 -2.109375 C 15.492188 -1.316406 14.601562 -0.710938 13.5625 -0.296875 C 12.519531 0.117188 11.34375 0.328125 10.03125 0.328125 C 8.800781 0.328125 7.675781 0.117188 6.65625 -0.296875 C 5.632812 -0.710938 4.75 -1.316406 4 -2.109375 C 3.257812 -2.898438 2.679688 -3.867188 2.265625 -5.015625 C 1.859375 -6.160156 1.65625 -7.476562 1.65625 -8.96875 C 1.65625 -10.9375 1.992188 -12.601562 2.671875 -13.96875 C 3.359375 -15.34375 4.335938 -16.390625 5.609375 -17.109375 C 6.878906 -17.828125 8.390625 -18.1875 10.140625 -18.1875 C 11.785156 -18.1875 13.238281 -17.828125 14.5 -17.109375 C 15.757812 -16.390625 16.742188 -15.34375 17.453125 -13.96875 C 18.160156 -12.59375 18.515625 -10.925781 18.515625 -8.96875 Z M 5.5625 -8.96875 C 5.5625 -7.664062 5.71875 -6.550781 6.03125 -5.625 C 6.351562 -4.695312 6.847656 -3.988281 7.515625 -3.5 C 8.179688 -3.019531 9.039062 -2.78125 10.09375 -2.78125 C 11.144531 -2.78125 12.003906 -3.019531 12.671875 -3.5 C 13.335938 -3.988281 13.828125 -4.695312 14.140625 -5.625 C 14.453125 -6.550781 14.609375 -7.664062 14.609375 -8.96875 C 14.609375 -10.269531 14.453125 -11.375 14.140625 -12.28125 C 13.828125 -13.1875 13.335938 -13.878906 12.671875 -14.359375 C 12.003906 -14.835938 11.140625 -15.078125 10.078125 -15.078125 C 8.503906 -15.078125 7.359375 -14.550781 6.640625 -13.5 C 5.921875 -12.445312 5.5625 -10.9375 5.5625 -8.96875 Z M 5.5625 -8.96875 "/></g></g></g><g fill="#000000" fill-opacity="1"><g transform="translate(267.247491, 209.490127)"><g><path d="M 12.015625 -18.1875 C 14.023438 -18.1875 15.59375 -17.664062 16.71875 -16.625 C 17.84375 -15.59375 18.40625 -13.929688 18.40625 -11.640625 L 18.40625 0 L 14.609375 0 L 14.609375 -10.9375 C 14.609375 -12.320312 14.320312 -13.359375 13.75 -14.046875 C 13.1875 -14.742188 12.304688 -15.09375 11.109375 -15.09375 C 9.378906 -15.09375 8.175781 -14.5625 7.5 -13.5 C 6.832031 -12.4375 6.5 -10.894531 6.5 -8.875 L 6.5 0 L 2.703125 0 L 2.703125 -17.859375 L 5.65625 -17.859375 L 6.1875 -15.4375 L 6.40625 -15.4375 C 6.789062 -16.0625 7.269531 -16.570312 7.84375 -16.96875 C 8.414062 -17.375 9.0625 -17.675781 9.78125 -17.875 C 10.5 -18.082031 11.242188 -18.1875 12.015625 -18.1875 Z M 12.015625 -18.1875 "/></g></g></g><g fill="#000000" fill-opacity="1"><g transform="translate(288.233208, 209.490127)"><g><path d="M 12.015625 -18.1875 C 14.023438 -18.1875 15.59375 -17.664062 16.71875 -16.625 C 17.84375 -15.59375 18.40625 -13.929688 18.40625 -11.640625 L 18.40625 0 L 14.609375 0 L 14.609375 -10.9375 C 14.609375 -12.320312 14.320312 -13.359375 13.75 -14.046875 C 13.1875 -14.742188 12.304688 -15.09375 11.109375 -15.09375 C 9.378906 -15.09375 8.175781 -14.5625 7.5 -13.5 C 6.832031 -12.4375 6.5 -10.894531 6.5 -8.875 L 6.5 0 L 2.703125 0 L 2.703125 -17.859375 L 5.65625 -17.859375 L 6.1875 -15.4375 L 6.40625 -15.4375 C 6.789062 -16.0625 7.269531 -16.570312 7.84375 -16.96875 C 8.414062 -17.375 9.0625 -17.675781 9.78125 -17.875 C 10.5 -18.082031 11.242188 -18.1875 12.015625 -18.1875 Z M 12.015625 -18.1875 "/></g></g></g><g fill="#000000" fill-opacity="1"><g transform="translate(309.218925, 209.490127)"><g><path d="M 9.703125 -18.1875 C 11.960938 -18.1875 13.671875 -17.6875 14.828125 -16.6875 C 15.984375 -15.6875 16.5625 -14.128906 16.5625 -12.015625 L 16.5625 0 L 13.875 0 L 13.140625 -2.53125 L 13.015625 -2.53125 C 12.503906 -1.882812 11.976562 -1.351562 11.4375 -0.9375 C 10.90625 -0.519531 10.285156 -0.207031 9.578125 0 C 8.878906 0.21875 8.023438 0.328125 7.015625 0.328125 C 5.953125 0.328125 5 0.128906 4.15625 -0.265625 C 3.320312 -0.660156 2.660156 -1.257812 2.171875 -2.0625 C 1.691406 -2.875 1.453125 -3.894531 1.453125 -5.125 C 1.453125 -6.96875 2.132812 -8.347656 3.5 -9.265625 C 4.875 -10.191406 6.945312 -10.707031 9.71875 -10.8125 L 12.828125 -10.921875 L 12.828125 -11.859375 C 12.828125 -13.085938 12.535156 -13.96875 11.953125 -14.5 C 11.378906 -15.03125 10.570312 -15.296875 9.53125 -15.296875 C 8.632812 -15.296875 7.765625 -15.164062 6.921875 -14.90625 C 6.085938 -14.644531 5.273438 -14.328125 4.484375 -13.953125 L 3.265625 -16.625 C 4.128906 -17.09375 5.117188 -17.46875 6.234375 -17.75 C 7.347656 -18.039062 8.503906 -18.1875 9.703125 -18.1875 Z M 12.8125 -8.53125 L 10.5 -8.453125 C 8.601562 -8.390625 7.273438 -8.066406 6.515625 -7.484375 C 5.753906 -6.898438 5.375 -6.101562 5.375 -5.09375 C 5.375 -4.21875 5.632812 -3.578125 6.15625 -3.171875 C 6.6875 -2.765625 7.378906 -2.5625 8.234375 -2.5625 C 9.546875 -2.5625 10.632812 -2.9375 11.5 -3.6875 C 12.375 -4.4375 12.8125 -5.535156 12.8125 -6.984375 Z M 12.8125 -8.53125 "/></g></g></g><g fill="#000000" fill-opacity="1"><g transform="translate(328.381895, 209.490127)"><g><path d="M 6.5 -17.859375 L 6.5 0 L 2.703125 0 L 2.703125 -17.859375 Z M 4.625 -24.6875 C 5.207031 -24.6875 5.710938 -24.53125 6.140625 -24.21875 C 6.566406 -23.90625 6.78125 -23.367188 6.78125 -22.609375 C 6.78125 -21.859375 6.566406 -21.320312 6.140625 -21 C 5.710938 -20.6875 5.207031 -20.53125 4.625 -20.53125 C 4.019531 -20.53125 3.507812 -20.6875 3.09375 -21 C 2.6875 -21.320312 2.484375 -21.859375 2.484375 -22.609375 C 2.484375 -23.367188 2.6875 -23.90625 3.09375 -24.21875 C 3.507812 -24.53125 4.019531 -24.6875 4.625 -24.6875 Z M 4.625 -24.6875 "/></g></g></g><g fill="#000000" fill-opacity="1"><g transform="translate(337.592398, 209.490127)"><g><path d="M 11.75 -18.1875 C 12.050781 -18.1875 12.378906 -18.171875 12.734375 -18.140625 C 13.097656 -18.109375 13.40625 -18.066406 13.65625 -18.015625 L 13.3125 -14.46875 C 13.082031 -14.53125 12.800781 -14.578125 12.46875 -14.609375 C 12.144531 -14.640625 11.851562 -14.65625 11.59375 -14.65625 C 10.914062 -14.65625 10.269531 -14.546875 9.65625 -14.328125 C 9.039062 -14.109375 8.5 -13.773438 8.03125 -13.328125 C 7.5625 -12.878906 7.191406 -12.320312 6.921875 -11.65625 C 6.648438 -10.988281 6.515625 -10.21875 6.515625 -9.34375 L 6.515625 0 L 2.703125 0 L 2.703125 -17.859375 L 5.671875 -17.859375 L 6.1875 -14.703125 L 6.375 -14.703125 C 6.726562 -15.335938 7.164062 -15.914062 7.6875 -16.4375 C 8.21875 -16.96875 8.820312 -17.390625 9.5 -17.703125 C 10.1875 -18.023438 10.9375 -18.1875 11.75 -18.1875 Z M 11.75 -18.1875 "/></g></g></g><g fill="#000000" fill-opacity="1"><g transform="translate(351.851689, 209.490127)"><g><path d="M 9.828125 -18.1875 C 11.410156 -18.1875 12.769531 -17.859375 13.90625 -17.203125 C 15.050781 -16.546875 15.929688 -15.613281 16.546875 -14.40625 C 17.160156 -13.207031 17.46875 -11.769531 17.46875 -10.09375 L 17.46875 -8.0625 L 5.546875 -8.0625 C 5.585938 -6.332031 6.050781 -5 6.9375 -4.0625 C 7.832031 -3.125 9.078125 -2.65625 10.671875 -2.65625 C 11.816406 -2.65625 12.84375 -2.765625 13.75 -2.984375 C 14.65625 -3.210938 15.59375 -3.539062 16.5625 -3.96875 L 16.5625 -0.890625 C 15.664062 -0.472656 14.753906 -0.164062 13.828125 0.03125 C 12.910156 0.226562 11.804688 0.328125 10.515625 0.328125 C 8.765625 0.328125 7.222656 -0.0078125 5.890625 -0.6875 C 4.566406 -1.375 3.53125 -2.394531 2.78125 -3.75 C 2.03125 -5.113281 1.65625 -6.800781 1.65625 -8.8125 C 1.65625 -10.8125 1.992188 -12.507812 2.671875 -13.90625 C 3.347656 -15.300781 4.300781 -16.363281 5.53125 -17.09375 C 6.757812 -17.820312 8.191406 -18.1875 9.828125 -18.1875 Z M 9.828125 -15.34375 C 8.628906 -15.34375 7.660156 -14.953125 6.921875 -14.171875 C 6.191406 -13.398438 5.757812 -12.269531 5.625 -10.78125 L 13.75 -10.78125 C 13.738281 -11.664062 13.59375 -12.453125 13.3125 -13.140625 C 13.03125 -13.828125 12.597656 -14.363281 12.015625 -14.75 C 11.441406 -15.144531 10.710938 -15.34375 9.828125 -15.34375 Z M 9.828125 -15.34375 "/></g></g></g><g fill="#000000" fill-opacity="1"><g transform="translate(370.885639, 209.490127)"><g><path d="M 14.703125 -5.09375 C 14.703125 -3.925781 14.414062 -2.9375 13.84375 -2.125 C 13.28125 -1.320312 12.453125 -0.710938 11.359375 -0.296875 C 10.265625 0.117188 8.929688 0.328125 7.359375 0.328125 C 6.109375 0.328125 5.035156 0.238281 4.140625 0.0625 C 3.242188 -0.113281 2.394531 -0.390625 1.59375 -0.765625 L 1.59375 -4.03125 C 2.445312 -3.632812 3.398438 -3.289062 4.453125 -3 C 5.515625 -2.707031 6.519531 -2.5625 7.46875 -2.5625 C 8.71875 -2.5625 9.613281 -2.753906 10.15625 -3.140625 C 10.707031 -3.535156 10.984375 -4.0625 10.984375 -4.71875 C 10.984375 -5.113281 10.875 -5.460938 10.65625 -5.765625 C 10.4375 -6.066406 10.023438 -6.378906 9.421875 -6.703125 C 8.828125 -7.035156 7.957031 -7.4375 6.8125 -7.90625 C 5.675781 -8.351562 4.722656 -8.800781 3.953125 -9.25 C 3.179688 -9.707031 2.59375 -10.253906 2.1875 -10.890625 C 1.789062 -11.535156 1.59375 -12.359375 1.59375 -13.359375 C 1.59375 -14.929688 2.21875 -16.128906 3.46875 -16.953125 C 4.726562 -17.773438 6.390625 -18.1875 8.453125 -18.1875 C 9.546875 -18.1875 10.578125 -18.078125 11.546875 -17.859375 C 12.523438 -17.640625 13.484375 -17.320312 14.421875 -16.90625 L 13.21875 -14.046875 C 12.414062 -14.398438 11.609375 -14.691406 10.796875 -14.921875 C 9.984375 -15.160156 9.160156 -15.28125 8.328125 -15.28125 C 7.347656 -15.28125 6.601562 -15.128906 6.09375 -14.828125 C 5.582031 -14.523438 5.328125 -14.09375 5.328125 -13.53125 C 5.328125 -13.113281 5.445312 -12.757812 5.6875 -12.46875 C 5.9375 -12.175781 6.363281 -11.882812 6.96875 -11.59375 C 7.582031 -11.300781 8.429688 -10.941406 9.515625 -10.515625 C 10.578125 -10.109375 11.5 -9.679688 12.28125 -9.234375 C 13.0625 -8.785156 13.660156 -8.238281 14.078125 -7.59375 C 14.492188 -6.945312 14.703125 -6.113281 14.703125 -5.09375 Z M 14.703125 -5.09375 "/></g></g></g><g fill="#000000" fill-opacity="1"><g transform="translate(386.9677, 209.490127)"><g/></g></g><g fill="#000000" fill-opacity="1"><g transform="translate(395.549075, 209.490127)"><g><path d="M 1.328125 -7.359375 L 1.328125 -10.40625 L 15.1875 -10.40625 L 15.1875 -7.359375 Z M 1.328125 -7.359375 "/></g></g></g><g fill="#000000" fill-opacity="1"><g transform="translate(412.066652, 209.490127)"><g/></g></g><g fill="#000000" fill-opacity="1"><g transform="translate(420.648073, 209.490127)"><g><path d="M 3.09375 0 L 3.09375 -23.578125 L 6.96875 -23.578125 L 6.96875 0 Z M 3.09375 0 "/></g></g></g><g fill="#000000" fill-opacity="1"><g transform="translate(430.729585, 209.490127)"><g><path d="M 20.578125 -23.578125 L 12.34375 0 L 8.234375 0 L 0 -23.578125 L 3.96875 -23.578125 L 8.9375 -8.8125 C 9.082031 -8.375 9.242188 -7.847656 9.421875 -7.234375 C 9.597656 -6.628906 9.765625 -6.015625 9.921875 -5.390625 C 10.078125 -4.765625 10.203125 -4.207031 10.296875 -3.71875 C 10.378906 -4.207031 10.5 -4.765625 10.65625 -5.390625 C 10.8125 -6.015625 10.972656 -6.628906 11.140625 -7.234375 C 11.316406 -7.847656 11.476562 -8.378906 11.625 -8.828125 L 16.609375 -23.578125 Z M 20.578125 -23.578125 "/></g></g></g><g fill="#000000" fill-opacity="1"><g transform="translate(462.747863, 209.490127)"><g/></g></g><g fill="#000000" fill-opacity="1"><g transform="translate(471.32926, 209.490127)"><g><path d="M 3.09375 0 L 3.09375 -23.578125 L 6.96875 -23.578125 L 6.96875 0 Z M 3.09375 0 "/></g></g></g><g fill="#000000" fill-opacity="1"><g transform="translate(481.410795, 209.490127)"><g><path d="M 12.015625 -18.1875 C 14.023438 -18.1875 15.59375 -17.664062 16.71875 -16.625 C 17.84375 -15.59375 18.40625 -13.929688 18.40625 -11.640625 L 18.40625 0 L 14.609375 0 L 14.609375 -10.9375 C 14.609375 -12.320312 14.320312 -13.359375 13.75 -14.046875 C 13.1875 -14.742188 12.304688 -15.09375 11.109375 -15.09375 C 9.378906 -15.09375 8.175781 -14.5625 7.5 -13.5 C 6.832031 -12.4375 6.5 -10.894531 6.5 -8.875 L 6.5 0 L 2.703125 0 L 2.703125 -17.859375 L 5.65625 -17.859375 L 6.1875 -15.4375 L 6.40625 -15.4375 C 6.789062 -16.0625 7.269531 -16.570312 7.84375 -16.96875 C 8.414062 -17.375 9.0625 -17.675781 9.78125 -17.875 C 10.5 -18.082031 11.242188 -18.1875 12.015625 -18.1875 Z M 12.015625 -18.1875 "/></g></g></g><g fill="#000000" fill-opacity="1"><g transform="translate(502.396512, 209.490127)"><g><path d="M 9.359375 -2.734375 C 9.847656 -2.734375 10.332031 -2.78125 10.8125 -2.875 C 11.300781 -2.96875 11.742188 -3.078125 12.140625 -3.203125 L 12.140625 -0.34375 C 11.722656 -0.15625 11.179688 0 10.515625 0.125 C 9.847656 0.257812 9.15625 0.328125 8.4375 0.328125 C 7.425781 0.328125 6.515625 0.160156 5.703125 -0.171875 C 4.898438 -0.515625 4.257812 -1.097656 3.78125 -1.921875 C 3.3125 -2.753906 3.078125 -3.90625 3.078125 -5.375 L 3.078125 -14.96875 L 0.640625 -14.96875 L 0.640625 -16.65625 L 3.265625 -18 L 4.5 -21.828125 L 6.890625 -21.828125 L 6.890625 -17.859375 L 12 -17.859375 L 12 -14.96875 L 6.890625 -14.96875 L 6.890625 -5.421875 C 6.890625 -4.515625 7.113281 -3.835938 7.5625 -3.390625 C 8.007812 -2.953125 8.609375 -2.734375 9.359375 -2.734375 Z M 9.359375 -2.734375 "/></g></g></g><g fill="#000000" fill-opacity="1"><g transform="translate(515.462173, 209.490127)"><g><path d="M 9.828125 -18.1875 C 11.410156 -18.1875 12.769531 -17.859375 13.90625 -17.203125 C 15.050781 -16.546875 15.929688 -15.613281 16.546875 -14.40625 C 17.160156 -13.207031 17.46875 -11.769531 17.46875 -10.09375 L 17.46875 -8.0625 L 5.546875 -8.0625 C 5.585938 -6.332031 6.050781 -5 6.9375 -4.0625 C 7.832031 -3.125 9.078125 -2.65625 10.671875 -2.65625 C 11.816406 -2.65625 12.84375 -2.765625 13.75 -2.984375 C 14.65625 -3.210938 15.59375 -3.539062 16.5625 -3.96875 L 16.5625 -0.890625 C 15.664062 -0.472656 14.753906 -0.164062 13.828125 0.03125 C 12.910156 0.226562 11.804688 0.328125 10.515625 0.328125 C 8.765625 0.328125 7.222656 -0.0078125 5.890625 -0.6875 C 4.566406 -1.375 3.53125 -2.394531 2.78125 -3.75 C 2.03125 -5.113281 1.65625 -6.800781 1.65625 -8.8125 C 1.65625 -10.8125 1.992188 -12.507812 2.671875 -13.90625 C 3.347656 -15.300781 4.300781 -16.363281 5.53125 -17.09375 C 6.757812 -17.820312 8.191406 -18.1875 9.828125 -18.1875 Z M 9.828125 -15.34375 C 8.628906 -15.34375 7.660156 -14.953125 6.921875 -14.171875 C 6.191406 -13.398438 5.757812 -12.269531 5.625 -10.78125 L 13.75 -10.78125 C 13.738281 -11.664062 13.59375 -12.453125 13.3125 -13.140625 C 13.03125 -13.828125 12.597656 -14.363281 12.015625 -14.75 C 11.441406 -15.144531 10.710938 -15.34375 9.828125 -15.34375 Z M 9.828125 -15.34375 "/></g></g></g><g fill="#000000" fill-opacity="1"><g transform="translate(534.496101, 209.490127)"><g><path d="M 11.75 -18.1875 C 12.050781 -18.1875 12.378906 -18.171875 12.734375 -18.140625 C 13.097656 -18.109375 13.40625 -18.066406 13.65625 -18.015625 L 13.3125 -14.46875 C 13.082031 -14.53125 12.800781 -14.578125 12.46875 -14.609375 C 12.144531 -14.640625 11.851562 -14.65625 11.59375 -14.65625 C 10.914062 -14.65625 10.269531 -14.546875 9.65625 -14.328125 C 9.039062 -14.109375 8.5 -13.773438 8.03125 -13.328125 C 7.5625 -12.878906 7.191406 -12.320312 6.921875 -11.65625 C 6.648438 -10.988281 6.515625 -10.21875 6.515625 -9.34375 L 6.515625 0 L 2.703125 0 L 2.703125 -17.859375 L 5.671875 -17.859375 L 6.1875 -14.703125 L 6.375 -14.703125 C 6.726562 -15.335938 7.164062 -15.914062 7.6875 -16.4375 C 8.21875 -16.96875 8.820312 -17.390625 9.5 -17.703125 C 10.1875 -18.023438 10.9375 -18.1875 11.75 -18.1875 Z M 11.75 -18.1875 "/></g></g></g><g fill="#000000" fill-opacity="1"><g transform="translate(548.755416, 209.490127)"><g><path d="M 12.015625 -18.1875 C 14.023438 -18.1875 15.59375 -17.664062 16.71875 -16.625 C 17.84375 -15.59375 18.40625 -13.929688 18.40625 -11.640625 L 18.40625 0 L 14.609375 0 L 14.609375 -10.9375 C 14.609375 -12.320312 14.320312 -13.359375 13.75 -14.046875 C 13.1875 -14.742188 12.304688 -15.09375 11.109375 -15.09375 C 9.378906 -15.09375 8.175781 -14.5625 7.5 -13.5 C 6.832031 -12.4375 6.5 -10.894531 6.5 -8.875 L 6.5 0 L 2.703125 0 L 2.703125 -17.859375 L 5.65625 -17.859375 L 6.1875 -15.4375 L 6.40625 -15.4375 C 6.789062 -16.0625 7.269531 -16.570312 7.84375 -16.96875 C 8.414062 -17.375 9.0625 -17.675781 9.78125 -17.875 C 10.5 -18.082031 11.242188 -18.1875 12.015625 -18.1875 Z M 12.015625 -18.1875 "/></g></g></g><g fill="#000000" fill-opacity="1"><g transform="translate(569.741133, 209.490127)"><g><path d="M 9.703125 -18.1875 C 11.960938 -18.1875 13.671875 -17.6875 14.828125 -16.6875 C 15.984375 -15.6875 16.5625 -14.128906 16.5625 -12.015625 L 16.5625 0 L 13.875 0 L 13.140625 -2.53125 L 13.015625 -2.53125 C 12.503906 -1.882812 11.976562 -1.351562 11.4375 -0.9375 C 10.90625 -0.519531 10.285156 -0.207031 9.578125 0 C 8.878906 0.21875 8.023438 0.328125 7.015625 0.328125 C 5.953125 0.328125 5 0.128906 4.15625 -0.265625 C 3.320312 -0.660156 2.660156 -1.257812 2.171875 -2.0625 C 1.691406 -2.875 1.453125 -3.894531 1.453125 -5.125 C 1.453125 -6.96875 2.132812 -8.347656 3.5 -9.265625 C 4.875 -10.191406 6.945312 -10.707031 9.71875 -10.8125 L 12.828125 -10.921875 L 12.828125 -11.859375 C 12.828125 -13.085938 12.535156 -13.96875 11.953125 -14.5 C 11.378906 -15.03125 10.570312 -15.296875 9.53125 -15.296875 C 8.632812 -15.296875 7.765625 -15.164062 6.921875 -14.90625 C 6.085938 -14.644531 5.273438 -14.328125 4.484375 -13.953125 L 3.265625 -16.625 C 4.128906 -17.09375 5.117188 -17.46875 6.234375 -17.75 C 7.347656 -18.039062 8.503906 -18.1875 9.703125 -18.1875 Z M 12.8125 -8.53125 L 10.5 -8.453125 C 8.601562 -8.390625 7.273438 -8.066406 6.515625 -7.484375 C 5.753906 -6.898438 5.375 -6.101562 5.375 -5.09375 C 5.375 -4.21875 5.632812 -3.578125 6.15625 -3.171875 C 6.6875 -2.765625 7.378906 -2.5625 8.234375 -2.5625 C 9.546875 -2.5625 10.632812 -2.9375 11.5 -3.6875 C 12.375 -4.4375 12.8125 -5.535156 12.8125 -6.984375 Z M 12.8125 -8.53125 "/></g></g></g><g fill="#000000" fill-opacity="1"><g transform="translate(588.904103, 209.490127)"><g><path d="M 9.359375 -2.734375 C 9.847656 -2.734375 10.332031 -2.78125 10.8125 -2.875 C 11.300781 -2.96875 11.742188 -3.078125 12.140625 -3.203125 L 12.140625 -0.34375 C 11.722656 -0.15625 11.179688 0 10.515625 0.125 C 9.847656 0.257812 9.15625 0.328125 8.4375 0.328125 C 7.425781 0.328125 6.515625 0.160156 5.703125 -0.171875 C 4.898438 -0.515625 4.257812 -1.097656 3.78125 -1.921875 C 3.3125 -2.753906 3.078125 -3.90625 3.078125 -5.375 L 3.078125 -14.96875 L 0.640625 -14.96875 L 0.640625 -16.65625 L 3.265625 -18 L 4.5 -21.828125 L 6.890625 -21.828125 L 6.890625 -17.859375 L 12 -17.859375 L 12 -14.96875 L 6.890625 -14.96875 L 6.890625 -5.421875 C 6.890625 -4.515625 7.113281 -3.835938 7.5625 -3.390625 C 8.007812 -2.953125 8.609375 -2.734375 9.359375 -2.734375 Z M 9.359375 -2.734375 "/></g></g></g><g fill="#000000" fill-opacity="1"><g transform="translate(601.969765, 209.490127)"><g><path d="M 6.5 -17.859375 L 6.5 0 L 2.703125 0 L 2.703125 -17.859375 Z M 4.625 -24.6875 C 5.207031 -24.6875 5.710938 -24.53125 6.140625 -24.21875 C 6.566406 -23.90625 6.78125 -23.367188 6.78125 -22.609375 C 6.78125 -21.859375 6.566406 -21.320312 6.140625 -21 C 5.710938 -20.6875 5.207031 -20.53125 4.625 -20.53125 C 4.019531 -20.53125 3.507812 -20.6875 3.09375 -21 C 2.6875 -21.320312 2.484375 -21.859375 2.484375 -22.609375 C 2.484375 -23.367188 2.6875 -23.90625 3.09375 -24.21875 C 3.507812 -24.53125 4.019531 -24.6875 4.625 -24.6875 Z M 4.625 -24.6875 "/></g></g></g><g fill="#000000" fill-opacity="1"><g transform="translate(611.180256, 209.490127)"><g><path d="M 18.515625 -8.96875 C 18.515625 -7.476562 18.320312 -6.160156 17.9375 -5.015625 C 17.550781 -3.867188 16.984375 -2.898438 16.234375 -2.109375 C 15.492188 -1.316406 14.601562 -0.710938 13.5625 -0.296875 C 12.519531 0.117188 11.34375 0.328125 10.03125 0.328125 C 8.800781 0.328125 7.675781 0.117188 6.65625 -0.296875 C 5.632812 -0.710938 4.75 -1.316406 4 -2.109375 C 3.257812 -2.898438 2.679688 -3.867188 2.265625 -5.015625 C 1.859375 -6.160156 1.65625 -7.476562 1.65625 -8.96875 C 1.65625 -10.9375 1.992188 -12.601562 2.671875 -13.96875 C 3.359375 -15.34375 4.335938 -16.390625 5.609375 -17.109375 C 6.878906 -17.828125 8.390625 -18.1875 10.140625 -18.1875 C 11.785156 -18.1875 13.238281 -17.828125 14.5 -17.109375 C 15.757812 -16.390625 16.742188 -15.34375 17.453125 -13.96875 C 18.160156 -12.59375 18.515625 -10.925781 18.515625 -8.96875 Z M 5.5625 -8.96875 C 5.5625 -7.664062 5.71875 -6.550781 6.03125 -5.625 C 6.351562 -4.695312 6.847656 -3.988281 7.515625 -3.5 C 8.179688 -3.019531 9.039062 -2.78125 10.09375 -2.78125 C 11.144531 -2.78125 12.003906 -3.019531 12.671875 -3.5 C 13.335938 -3.988281 13.828125 -4.695312 14.140625 -5.625 C 14.453125 -6.550781 14.609375 -7.664062 14.609375 -8.96875 C 14.609375 -10.269531 14.453125 -11.375 14.140625 -12.28125 C 13.828125 -13.1875 13.335938 -13.878906 12.671875 -14.359375 C 12.003906 -14.835938 11.140625 -15.078125 10.078125 -15.078125 C 8.503906 -15.078125 7.359375 -14.550781 6.640625 -13.5 C 5.921875 -12.445312 5.5625 -10.9375 5.5625 -8.96875 Z M 5.5625 -8.96875 "/></g></g></g><g fill="#000000" fill-opacity="1"><g transform="translate(631.343314, 209.490127)"><g><path d="M 12.015625 -18.1875 C 14.023438 -18.1875 15.59375 -17.664062 16.71875 -16.625 C 17.84375 -15.59375 18.40625 -13.929688 18.40625 -11.640625 L 18.40625 0 L 14.609375 0 L 14.609375 -10.9375 C 14.609375 -12.320312 14.320312 -13.359375 13.75 -14.046875 C 13.1875 -14.742188 12.304688 -15.09375 11.109375 -15.09375 C 9.378906 -15.09375 8.175781 -14.5625 7.5 -13.5 C 6.832031 -12.4375 6.5 -10.894531 6.5 -8.875 L 6.5 0 L 2.703125 0 L 2.703125 -17.859375 L 5.65625 -17.859375 L 6.1875 -15.4375 L 6.40625 -15.4375 C 6.789062 -16.0625 7.269531 -16.570312 7.84375 -16.96875 C 8.414062 -17.375 9.0625 -17.675781 9.78125 -17.875 C 10.5 -18.082031 11.242188 -18.1875 12.015625 -18.1875 Z M 12.015625 -18.1875 "/></g></g></g><g fill="#000000" fill-opacity="1"><g transform="translate(652.329031, 209.490127)"><g><path d="M 9.703125 -18.1875 C 11.960938 -18.1875 13.671875 -17.6875 14.828125 -16.6875 C 15.984375 -15.6875 16.5625 -14.128906 16.5625 -12.015625 L 16.5625 0 L 13.875 0 L 13.140625 -2.53125 L 13.015625 -2.53125 C 12.503906 -1.882812 11.976562 -1.351562 11.4375 -0.9375 C 10.90625 -0.519531 10.285156 -0.207031 9.578125 0 C 8.878906 0.21875 8.023438 0.328125 7.015625 0.328125 C 5.953125 0.328125 5 0.128906 4.15625 -0.265625 C 3.320312 -0.660156 2.660156 -1.257812 2.171875 -2.0625 C 1.691406 -2.875 1.453125 -3.894531 1.453125 -5.125 C 1.453125 -6.96875 2.132812 -8.347656 3.5 -9.265625 C 4.875 -10.191406 6.945312 -10.707031 9.71875 -10.8125 L 12.828125 -10.921875 L 12.828125 -11.859375 C 12.828125 -13.085938 12.535156 -13.96875 11.953125 -14.5 C 11.378906 -15.03125 10.570312 -15.296875 9.53125 -15.296875 C 8.632812 -15.296875 7.765625 -15.164062 6.921875 -14.90625 C 6.085938 -14.644531 5.273438 -14.328125 4.484375 -13.953125 L 3.265625 -16.625 C 4.128906 -17.09375 5.117188 -17.46875 6.234375 -17.75 C 7.347656 -18.039062 8.503906 -18.1875 9.703125 -18.1875 Z M 12.8125 -8.53125 L 10.5 -8.453125 C 8.601562 -8.390625 7.273438 -8.066406 6.515625 -7.484375 C 5.753906 -6.898438 5.375 -6.101562 5.375 -5.09375 C 5.375 -4.21875 5.632812 -3.578125 6.15625 -3.171875 C 6.6875 -2.765625 7.378906 -2.5625 8.234375 -2.5625 C 9.546875 -2.5625 10.632812 -2.9375 11.5 -3.6875 C 12.375 -4.4375 12.8125 -5.535156 12.8125 -6.984375 Z M 12.8125 -8.53125 "/></g></g></g><g fill="#000000" fill-opacity="1"><g transform="translate(671.492001, 209.490127)"><g><path d="M 6.515625 0 L 2.703125 0 L 2.703125 -25.09375 L 6.515625 -25.09375 Z M 6.515625 0 "/></g></g></g><g fill="#000000" fill-opacity="1"><g transform="translate(680.702504, 209.490127)"><g><path d="M 9.828125 -18.1875 C 11.410156 -18.1875 12.769531 -17.859375 13.90625 -17.203125 C 15.050781 -16.546875 15.929688 -15.613281 16.546875 -14.40625 C 17.160156 -13.207031 17.46875 -11.769531 17.46875 -10.09375 L 17.46875 -8.0625 L 5.546875 -8.0625 C 5.585938 -6.332031 6.050781 -5 6.9375 -4.0625 C 7.832031 -3.125 9.078125 -2.65625 10.671875 -2.65625 C 11.816406 -2.65625 12.84375 -2.765625 13.75 -2.984375 C 14.65625 -3.210938 15.59375 -3.539062 16.5625 -3.96875 L 16.5625 -0.890625 C 15.664062 -0.472656 14.753906 -0.164062 13.828125 0.03125 C 12.910156 0.226562 11.804688 0.328125 10.515625 0.328125 C 8.765625 0.328125 7.222656 -0.0078125 5.890625 -0.6875 C 4.566406 -1.375 3.53125 -2.394531 2.78125 -3.75 C 2.03125 -5.113281 1.65625 -6.800781 1.65625 -8.8125 C 1.65625 -10.8125 1.992188 -12.507812 2.671875 -13.90625 C 3.347656 -15.300781 4.300781 -16.363281 5.53125 -17.09375 C 6.757812 -17.820312 8.191406 -18.1875 9.828125 -18.1875 Z M 9.828125 -15.34375 C 8.628906 -15.34375 7.660156 -14.953125 6.921875 -14.171875 C 6.191406 -13.398438 5.757812 -12.269531 5.625 -10.78125 L 13.75 -10.78125 C 13.738281 -11.664062 13.59375 -12.453125 13.3125 -13.140625 C 13.03125 -13.828125 12.597656 -14.363281 12.015625 -14.75 C 11.441406 -15.144531 10.710938 -15.34375 9.828125 -15.34375 Z M 9.828125 -15.34375 "/></g></g></g><g fill="#000000" fill-opacity="1"><g transform="translate(451.322086, 195.240128)"><g><path d="M 5.890625 -10.921875 C 6.847656 -10.921875 7.664062 -10.722656 8.34375 -10.328125 C 9.03125 -9.929688 9.554688 -9.375 9.921875 -8.65625 C 10.296875 -7.9375 10.484375 -7.070312 10.484375 -6.0625 L 10.484375 -4.84375 L 3.328125 -4.84375 C 3.359375 -3.800781 3.640625 -3 4.171875 -2.4375 C 4.703125 -1.875 5.445312 -1.59375 6.40625 -1.59375 C 7.09375 -1.59375 7.707031 -1.660156 8.25 -1.796875 C 8.800781 -1.929688 9.363281 -2.125 9.9375 -2.375 L 9.9375 -0.53125 C 9.40625 -0.28125 8.859375 -0.0976562 8.296875 0.015625 C 7.742188 0.128906 7.082031 0.1875 6.3125 0.1875 C 5.257812 0.1875 4.332031 -0.015625 3.53125 -0.421875 C 2.738281 -0.828125 2.117188 -1.4375 1.671875 -2.25 C 1.222656 -3.0625 1 -4.070312 1 -5.28125 C 1 -6.488281 1.203125 -7.507812 1.609375 -8.34375 C 2.015625 -9.1875 2.582031 -9.828125 3.3125 -10.265625 C 4.050781 -10.703125 4.910156 -10.921875 5.890625 -10.921875 Z M 5.890625 -9.203125 C 5.179688 -9.203125 4.601562 -8.96875 4.15625 -8.5 C 3.71875 -8.039062 3.457031 -7.363281 3.375 -6.46875 L 8.265625 -6.46875 C 8.253906 -7 8.160156 -7.472656 7.984375 -7.890625 C 7.816406 -8.304688 7.5625 -8.628906 7.21875 -8.859375 C 6.875 -9.085938 6.429688 -9.203125 5.890625 -9.203125 Z M 5.890625 -9.203125 "/></g></g></g><g clip-path="url(#cd1a57ff9b)"><path fill="#000000" d="M 526.132812 543.246094 C 522.910156 542.101562 514.28125 537.3125 504.28125 531.109375 C 502.507812 530.011719 500.492188 528.765625 499.808594 528.347656 C 499.097656 527.914062 498.5625 527.359375 498.5625 527.0625 C 498.5625 525.757812 501.011719 520.277344 507.578125 506.902344 C 509.914062 502.140625 512.136719 497.5625 512.515625 496.722656 L 513.207031 495.195312 L 510.359375 492.632812 C 495.605469 479.363281 492.675781 475.613281 485.503906 460.847656 C 484.175781 458.117188 481.621094 451.4375 480.964844 448.988281 C 480.625 447.707031 480.292969 446.578125 480.230469 446.480469 C 480.167969 446.378906 479.792969 444.390625 479.394531 442.0625 C 478.34375 435.949219 477.894531 427.664062 478.136719 418.960938 C 478.789062 395.585938 479.199219 392.460938 483.363281 379.15625 C 489.277344 360.25 496.78125 345.910156 507.921875 332.222656 C 511.832031 327.421875 513.515625 325.589844 520.984375 318.046875 C 529.15625 309.789062 535.945312 303.714844 542.289062 298.984375 C 547.703125 294.945312 548.265625 294.546875 551.085938 292.773438 C 552.445312 291.917969 554.023438 290.917969 554.585938 290.554688 C 560.171875 286.949219 575.367188 278.886719 581.976562 276.019531 C 583.417969 275.394531 585.351562 274.726562 586.273438 274.539062 C 587.78125 274.226562 588.042969 274.25 588.9375 274.769531 C 590.292969 275.5625 590.882812 276.660156 590.460938 277.589844 C 590.15625 278.261719 585.753906 281.390625 583.1875 282.761719 C 579.824219 284.558594 573.097656 289.316406 567.785156 293.652344 C 549.449219 308.621094 531.109375 333.832031 520.628906 358.476562 C 517.671875 365.4375 514.707031 373.898438 512.820312 380.769531 C 510.90625 387.753906 510.503906 392.527344 510.46875 408.636719 C 510.433594 424.308594 510.972656 432.460938 512.082031 433.144531 C 512.246094 433.25 512.65625 433.089844 512.988281 432.789062 C 513.699219 432.152344 516.128906 428.613281 517.578125 426.097656 C 520.183594 421.582031 526.507812 410.207031 528.101562 407.167969 C 529.074219 405.3125 531.320312 401.089844 533.089844 397.78125 C 534.863281 394.476562 537.667969 389.128906 539.324219 385.902344 C 540.980469 382.675781 542.570312 379.640625 542.851562 379.15625 C 543.570312 377.925781 550.582031 364.421875 552.980469 359.652344 C 554.074219 357.472656 557.640625 350.542969 560.90625 344.25 C 564.171875 337.960938 568.917969 328.625 571.449219 323.511719 C 576.703125 312.894531 576.53125 313.996094 573.335938 311.621094 C 571.867188 310.535156 571.257812 309.835938 570.578125 308.464844 C 569.726562 306.761719 569.699219 306.574219 569.707031 302.597656 C 569.710938 298.972656 569.792969 298.285156 570.40625 296.746094 C 571.21875 294.695312 573.285156 292.351562 574.6875 291.890625 C 576.015625 291.453125 577.300781 291.824219 582.011719 294.015625 C 588.164062 296.875 591.511719 298.046875 596.609375 299.117188 C 599.726562 299.769531 600.949219 299.871094 605.917969 299.886719 C 612.824219 299.90625 614.710938 299.507812 620.144531 296.871094 C 624.097656 294.949219 626.878906 293.917969 628.207031 293.882812 C 629.257812 293.851562 638.480469 298.453125 645.664062 302.589844 C 648.246094 304.078125 650.953125 305.628906 651.675781 306.039062 C 654.085938 307.394531 660.003906 310.851562 662.238281 312.203125 C 663.449219 312.9375 666.484375 314.785156 668.984375 316.304688 C 671.484375 317.828125 674.917969 319.90625 676.609375 320.925781 C 678.304688 321.949219 680.546875 323.339844 681.597656 324.019531 C 682.644531 324.699219 684.691406 326.023438 686.144531 326.96875 C 692.859375 331.328125 695.792969 333.898438 696.128906 335.71875 C 696.222656 336.230469 696.09375 337.195312 695.828125 337.933594 C 693.671875 344.007812 678.210938 364.175781 674.027344 366.375 C 673.636719 366.578125 672.976562 366.648438 672.472656 366.535156 C 670.9375 366.199219 664.414062 363.125 653.410156 357.546875 C 641.671875 351.597656 637.082031 349.488281 636.707031 349.867188 C 636.367188 350.210938 633.4375 355.402344 631.683594 358.769531 C 630.886719 360.304688 628.648438 364.59375 626.714844 368.304688 C 621.523438 378.261719 607.0625 407.246094 605.949219 409.921875 C 604.925781 412.390625 604.984375 412.726562 606.445312 412.738281 C 607.171875 412.742188 609.445312 410.660156 610.648438 408.882812 C 613.441406 404.773438 615.09375 402.113281 618.035156 397.015625 C 622.664062 388.980469 622.671875 388.964844 623.25 387.808594 C 623.535156 387.246094 624.863281 384.84375 626.207031 382.472656 C 627.550781 380.101562 629.683594 376.304688 630.945312 374.035156 L 633.238281 369.90625 L 640.183594 370.074219 C 650.441406 370.324219 654.472656 370.679688 656.074219 371.46875 C 657.238281 372.039062 657.441406 372.289062 657.796875 373.566406 C 658.15625 374.871094 658.136719 375.230469 657.597656 377.246094 C 656.46875 381.472656 653.328125 388.136719 647.582031 398.515625 C 642.800781 407.152344 641.410156 409.742188 641.410156 410.003906 C 641.410156 410.15625 643.371094 410.441406 645.769531 410.636719 C 650.058594 410.992188 653.917969 411.582031 654.570312 411.984375 C 654.753906 412.097656 654.902344 412.339844 654.902344 412.519531 C 654.902344 412.910156 653.191406 416.304688 651.828125 418.609375 C 651.304688 419.496094 650.445312 421.015625 649.917969 421.980469 C 649.386719 422.949219 648.414062 424.703125 647.75 425.875 C 647.085938 427.050781 646.34375 428.367188 646.101562 428.808594 C 645.855469 429.25 644.917969 430.863281 644.019531 432.394531 C 643.121094 433.929688 641.476562 436.734375 640.363281 438.628906 C 638.867188 441.1875 638.195312 442.074219 637.765625 442.074219 C 637.445312 442.074219 634.671875 442.269531 631.597656 442.511719 C 628.523438 442.75 625.382812 442.980469 624.617188 443.023438 L 623.222656 443.101562 L 621.582031 446.621094 C 617.800781 454.742188 616.101562 459.132812 615.746094 461.710938 L 615.535156 463.257812 L 617.105469 463.046875 C 618.789062 462.824219 623.605469 461.382812 632.304688 458.5 C 638.019531 456.609375 640.789062 456.109375 642.203125 456.71875 C 642.660156 456.914062 643.875 458.199219 644.929688 459.605469 C 646.804688 462.097656 649.347656 465.441406 653.347656 470.675781 C 654.460938 472.125 656.839844 475.257812 658.640625 477.628906 C 660.441406 480.003906 662.414062 482.597656 663.027344 483.398438 C 663.640625 484.195312 665.066406 486.128906 666.195312 487.691406 C 667.328125 489.253906 668.78125 491.210938 669.429688 492.042969 C 670.078125 492.875 671.101562 494.28125 671.707031 495.167969 C 672.308594 496.054688 674.15625 498.761719 675.808594 501.183594 C 682.394531 510.832031 684.054688 514.324219 684.734375 519.953125 C 685.34375 525.027344 685.082031 526.035156 682.519531 528.496094 C 678.765625 532.105469 667.425781 538.316406 660.960938 540.308594 C 657.957031 541.230469 657.507812 541.160156 656.066406 539.53125 C 654.667969 537.949219 650.855469 532.226562 648.304688 527.875 C 641 515.417969 638.636719 511.449219 636.9375 508.777344 C 636.171875 507.574219 635.542969 506.535156 635.542969 506.46875 C 635.542969 506.222656 632.292969 501.832031 631.15625 500.535156 L 629.972656 499.191406 L 627.113281 500.148438 C 625.539062 500.675781 623.855469 501.277344 623.371094 501.484375 C 622.886719 501.691406 619.125 502.988281 615.011719 504.367188 C 603.753906 508.140625 599.671875 509.277344 590.664062 511.152344 C 580.5625 513.253906 569.105469 513.804688 561.839844 512.539062 C 558.269531 511.917969 552.390625 511.65625 550.902344 512.058594 C 550.234375 512.238281 546.40625 517.855469 541.238281 526.242188 C 534.894531 536.539062 529.441406 543.898438 528.199219 543.839844 C 527.949219 543.828125 527.019531 543.558594 526.132812 543.246094 Z M 527.082031 533.078125 C 527.785156 532.027344 532.210938 524.136719 533.128906 522.300781 C 533.371094 521.816406 535.0625 518.738281 536.890625 515.457031 C 538.71875 512.175781 540.214844 509.4375 540.214844 509.367188 C 540.214844 509.300781 541.582031 506.769531 543.253906 503.746094 C 544.925781 500.722656 546.753906 497.390625 547.320312 496.339844 C 547.886719 495.292969 548.707031 493.773438 549.148438 492.96875 C 549.585938 492.160156 551.144531 489.257812 552.605469 486.515625 C 554.066406 483.773438 555.5625 481.066406 555.929688 480.5 C 556.296875 479.9375 556.769531 479.070312 556.984375 478.574219 C 557.199219 478.078125 558.511719 475.570312 559.898438 473 C 564.222656 465.003906 570.011719 454.066406 571.300781 451.460938 C 571.976562 450.089844 572.632812 448.835938 572.757812 448.675781 C 572.886719 448.515625 573.261719 447.636719 573.597656 446.722656 L 574.210938 445.066406 L 572.945312 444.964844 C 572.25 444.90625 567.976562 444.9375 563.449219 445.027344 C 557.089844 445.15625 555.105469 445.285156 554.730469 445.597656 C 554.464844 445.820312 553.851562 446.734375 553.375 447.632812 C 552.894531 448.527344 551.949219 450.203125 551.273438 451.355469 C 550.59375 452.507812 549.53125 454.355469 548.90625 455.460938 C 548.28125 456.570312 547.480469 457.9375 547.121094 458.5 C 546.332031 459.746094 543.722656 464.121094 542.917969 465.542969 C 541.566406 467.933594 537.996094 474.074219 536.699219 476.246094 C 535.929688 477.539062 534.523438 479.910156 533.574219 481.519531 C 532.628906 483.128906 531.722656 484.664062 531.558594 484.925781 C 531.398438 485.191406 530.886719 486.117188 530.421875 486.984375 C 529.953125 487.851562 529.28125 489.023438 528.925781 489.589844 C 528.566406 490.15625 527.785156 491.527344 527.1875 492.636719 C 526.589844 493.746094 525.910156 494.84375 525.679688 495.078125 C 525.445312 495.3125 525.253906 495.621094 525.253906 495.765625 C 525.253906 495.910156 524.457031 497.382812 523.480469 499.042969 C 522.503906 500.703125 521.554688 502.324219 521.367188 502.648438 C 520.972656 503.335938 513.601562 516.335938 512.882812 517.613281 C 511.09375 520.789062 509.691406 523.738281 509.8125 524.0625 C 509.992188 524.53125 512.863281 526.589844 516.109375 528.578125 C 517.453125 529.398438 518.585938 530.074219 518.632812 530.074219 C 518.679688 530.074219 519.890625 530.75 521.324219 531.578125 C 524.621094 533.476562 525.929688 534.179688 526.164062 534.179688 C 526.265625 534.179688 526.679688 533.683594 527.082031 533.078125 Z M 663.90625 530.9375 C 665.554688 530.316406 670.074219 527.390625 671.542969 525.988281 C 674.433594 523.230469 674.75 521.621094 673.425781 516.359375 C 672.683594 513.410156 672.085938 511.921875 670.074219 508.003906 C 667.03125 502.074219 664.800781 498.734375 661.925781 495.796875 C 660.683594 494.53125 658.050781 491.089844 651.550781 482.261719 C 649.085938 478.914062 646.21875 475.199219 645.152344 473.980469 C 642.382812 470.808594 638.839844 467.199219 638.136719 466.835938 C 636.425781 465.953125 631.421875 466.675781 626.890625 468.464844 C 625.601562 468.972656 624.015625 469.5625 623.371094 469.777344 C 622.726562 469.992188 621.695312 470.386719 621.078125 470.652344 C 620.460938 470.921875 619.402344 471.261719 618.730469 471.410156 C 617.378906 471.710938 615.207031 472.230469 611.636719 473.105469 C 608.28125 473.929688 600.148438 475.214844 593.746094 475.933594 C 587.546875 476.632812 580.632812 477.277344 579.371094 477.277344 C 577.375 477.277344 568.34375 478.695312 567.875 479.082031 C 567.253906 479.597656 565.15625 482.871094 563.675781 485.632812 C 562.984375 486.925781 562.324219 488.113281 562.210938 488.273438 C 562.015625 488.554688 559.347656 494.253906 557.921875 497.4375 L 557.234375 498.976562 L 558.675781 499.707031 C 559.46875 500.109375 560.195312 500.558594 560.289062 500.710938 C 560.523438 501.089844 563.679688 502.074219 566.171875 502.546875 C 571.460938 503.546875 585.265625 502.53125 594.332031 500.472656 C 595.785156 500.140625 597.960938 499.65625 599.171875 499.394531 C 600.382812 499.128906 602.492188 498.589844 603.867188 498.195312 C 605.238281 497.800781 607.8125 497.105469 609.585938 496.644531 C 611.359375 496.1875 613.339844 495.613281 613.984375 495.371094 C 614.628906 495.125 617.730469 494.117188 620.878906 493.125 C 624.023438 492.132812 627.492188 490.988281 628.582031 490.578125 C 629.671875 490.167969 631.296875 489.664062 632.191406 489.453125 L 633.820312 489.074219 L 634.496094 490.140625 C 634.867188 490.726562 635.773438 492.261719 636.515625 493.554688 C 637.253906 494.84375 638.570312 497.023438 639.4375 498.394531 C 643.863281 505.398438 648.078125 511.976562 649 513.320312 C 649.261719 513.703125 650.003906 514.839844 650.652344 515.84375 C 651.296875 516.851562 652.417969 518.527344 653.144531 519.570312 C 653.871094 520.613281 654.855469 522.050781 655.332031 522.765625 C 656.773438 524.910156 660.230469 529.578125 661.019531 530.441406 C 661.8125 531.300781 662.578125 531.433594 663.90625 530.9375 Z M 519.875 483.949219 C 521.023438 482.75 525.839844 476.070312 525.839844 475.675781 C 525.839844 475.570312 526.367188 474.691406 527.015625 473.71875 C 527.660156 472.746094 528.1875 471.886719 528.1875 471.808594 C 528.1875 471.730469 528.714844 470.558594 529.359375 469.207031 C 531.167969 465.421875 530.886719 464.03125 528.246094 463.699219 C 525.914062 463.40625 521.0625 459.34375 515.839844 453.320312 C 509.683594 446.21875 506.566406 440.953125 503.890625 433.128906 C 502.402344 428.765625 501.121094 421.875 500.570312 415.238281 C 500.1875 410.644531 500.433594 400.539062 501.070312 394.554688 C 501.320312 392.21875 501.636719 389.246094 501.773438 387.957031 C 502.335938 382.617188 504.726562 372.800781 506.144531 369.988281 C 506.449219 369.382812 506.800781 368.558594 506.921875 368.15625 C 507.953125 364.792969 515.886719 348.574219 518.109375 345.28125 C 518.488281 344.722656 518.800781 344.164062 518.800781 344.046875 C 518.800781 343.839844 521.640625 339.210938 524.703125 334.425781 C 532.285156 322.574219 542.210938 309.894531 547.96875 304.707031 C 549.1875 303.605469 550.1875 302.582031 550.1875 302.433594 C 550.1875 301.503906 545.074219 303.644531 542.285156 305.746094 C 538.421875 308.648438 526.46875 321.417969 519.441406 330.144531 C 518.261719 331.613281 517.011719 333.140625 516.664062 333.542969 C 516.164062 334.125 512.460938 339.128906 509.824219 342.785156 C 506.949219 346.769531 501.800781 355.640625 499.1875 361.117188 C 492.46875 375.191406 489.789062 387.203125 488.558594 408.78125 C 487.953125 419.359375 488.738281 439 490.050781 446.035156 C 490.199219 446.84375 490.449219 448.234375 490.605469 449.132812 C 491.195312 452.5625 493.039062 458.25 494.734375 461.875 C 495.902344 464.375 498.640625 468.925781 499.851562 470.382812 C 500.253906 470.867188 501.59375 472.488281 502.832031 473.988281 C 506.667969 478.632812 512.980469 483.929688 515.699219 484.78125 C 517.863281 485.457031 518.558594 485.320312 519.875 483.949219 Z M 579.15625 467.226562 C 581.015625 465.984375 584.003906 461.273438 587.992188 453.296875 C 589.335938 450.613281 590.957031 446.421875 590.957031 445.636719 C 590.957031 444.875 589.984375 444.421875 588.34375 444.421875 C 586.945312 444.421875 586.445312 444.570312 585.503906 445.253906 C 584.46875 446.003906 582.160156 448.542969 582.160156 448.929688 C 582.160156 449.019531 581.746094 449.789062 581.238281 450.640625 C 579.71875 453.199219 575.410156 461.671875 574.058594 464.75 C 572.714844 467.808594 572.710938 467.769531 574.53125 467.992188 C 576.3125 468.207031 578.136719 467.90625 579.15625 467.226562 Z M 537.636719 456.992188 C 540.480469 454.089844 544.320312 447.695312 544.320312 445.867188 C 544.320312 444.785156 543.253906 443.933594 541.25 443.410156 C 539.820312 443.039062 537.480469 442.957031 528.417969 442.957031 C 522.320312 442.957031 517.335938 443.054688 517.339844 443.175781 C 517.34375 443.296875 517.605469 443.726562 517.921875 444.128906 C 518.234375 444.53125 518.496094 444.980469 518.5 445.121094 C 518.515625 445.785156 521.894531 450.378906 523.332031 451.691406 C 525.621094 453.78125 529.207031 456.230469 531.734375 457.421875 C 533.613281 458.3125 534.289062 458.542969 535.625 458.753906 C 535.761719 458.777344 536.667969 457.984375 537.636719 456.992188 Z M 602.789062 398.4375 C 607.117188 389.769531 612.683594 378.714844 615.160156 373.875 C 617.636719 369.035156 620.058594 364.285156 620.546875 363.316406 C 621.03125 362.347656 622.070312 360.371094 622.855469 358.917969 C 623.640625 357.464844 624.851562 355.222656 625.546875 353.929688 C 626.242188 352.640625 627.039062 351.253906 627.316406 350.851562 C 627.59375 350.449219 627.90625 349.882812 628.011719 349.59375 C 628.117188 349.308594 629.125 347.507812 630.253906 345.59375 C 633.28125 340.453125 635.789062 338.515625 639.683594 338.289062 L 641.625 338.175781 L 643.390625 339.945312 C 646.253906 342.820312 655.128906 348.324219 664.371094 352.964844 C 670.300781 355.941406 672.617188 356.835938 673.339844 356.441406 C 674.050781 356.050781 676.296875 353.636719 678.125 351.289062 C 679.511719 349.519531 681.089844 347.207031 683.835938 342.929688 C 684.894531 341.285156 685.761719 339.058594 685.800781 337.882812 C 685.851562 336.441406 685.183594 335.820312 679.835938 332.332031 C 676.144531 329.921875 674.171875 328.667969 667.917969 324.769531 C 667.25 324.351562 666.0625 323.625 665.277344 323.152344 C 664.492188 322.679688 661.804688 321.042969 659.304688 319.515625 C 654.085938 316.328125 652.941406 315.644531 648.390625 312.980469 C 646.566406 311.914062 642.65625 309.570312 639.699219 307.773438 C 636.738281 305.976562 634.242188 304.503906 634.148438 304.503906 C 634.054688 304.503906 633.769531 304.320312 633.515625 304.09375 C 633.257812 303.871094 632.523438 303.390625 631.878906 303.035156 C 631.234375 302.675781 629.8125 301.855469 628.71875 301.210938 L 626.734375 300.03125 L 625.640625 300.800781 C 625.039062 301.222656 623.355469 302.421875 621.90625 303.464844 C 620.453125 304.503906 619.132812 305.363281 618.972656 305.375 C 618.808594 305.382812 618.28125 305.597656 617.796875 305.847656 C 615.835938 306.875 613.816406 307.144531 608.09375 307.144531 C 599.878906 307.144531 594.046875 306.054688 587.945312 303.371094 C 580.761719 300.214844 578.394531 299.738281 576.976562 301.152344 C 576.316406 301.8125 576.238281 302.09375 576.363281 303.355469 C 576.628906 306.144531 578.375 307.332031 593.746094 315.171875 C 602.261719 319.515625 604.089844 320.714844 612.765625 327.640625 C 616.710938 330.789062 617.800781 333.820312 616.621094 338.347656 C 615.945312 340.949219 614.5625 343.707031 610.71875 350.117188 C 606.035156 357.925781 605.746094 358.445312 605.070312 360.160156 C 604.453125 361.71875 602.347656 365.316406 601.628906 366.035156 C 601.394531 366.269531 600.875 367.074219 600.472656 367.824219 C 600.070312 368.570312 599.070312 370.304688 598.25 371.675781 C 597.429688 373.046875 596.335938 374.960938 595.820312 375.929688 C 595.027344 377.414062 593.121094 380.804688 590.457031 385.464844 C 590.132812 386.027344 588.921875 388.046875 587.761719 389.949219 C 586.601562 391.855469 585.414062 393.835938 585.121094 394.351562 C 584.824219 394.867188 584.125 396.082031 583.558594 397.050781 C 582.390625 399.046875 575.445312 412.171875 574.902344 413.402344 L 574.546875 414.210938 L 584.730469 414.207031 L 594.917969 414.203125 Z M 563.636719 412.453125 C 564.722656 412.445312 567.605469 409.273438 570.574219 404.824219 C 572.023438 402.648438 573.371094 400.566406 573.566406 400.199219 C 573.757812 399.832031 574.375 398.773438 574.929688 397.851562 C 577.324219 393.878906 580.460938 388.535156 582.765625 384.507812 C 584.125 382.128906 585.371094 379.949219 585.535156 379.667969 C 585.699219 379.386719 586.359375 378.234375 587.003906 377.105469 C 587.644531 375.976562 588.332031 374.789062 588.527344 374.464844 C 588.722656 374.140625 589.046875 373.546875 589.246094 373.144531 C 589.449219 372.738281 590.773438 370.410156 592.191406 367.964844 C 593.609375 365.515625 594.773438 363.453125 594.773438 363.378906 C 594.773438 363.300781 595.875 361.34375 597.226562 359.023438 C 598.574219 356.707031 600.070312 354.085938 600.550781 353.199219 C 603.136719 348.414062 603.667969 347.453125 603.875 347.183594 C 604.449219 346.441406 608.921875 337.246094 609.441406 335.734375 C 610.136719 333.714844 610.167969 332.914062 609.601562 331.8125 C 609.097656 330.839844 607.382812 329.277344 606.515625 329 C 605.074219 328.542969 601.699219 331.734375 599.027344 336.078125 C 597.019531 339.34375 596.523438 340.179688 596.171875 340.878906 C 595.96875 341.28125 595.042969 342.898438 594.113281 344.472656 C 593.1875 346.050781 592.425781 347.414062 592.425781 347.507812 C 592.425781 347.597656 591.390625 349.542969 590.125 351.828125 C 587.285156 356.960938 586.015625 359.320312 583.476562 364.195312 C 582.382812 366.292969 579.546875 371.707031 577.171875 376.222656 C 572.691406 384.738281 566.457031 397.054688 562.773438 404.667969 C 560.316406 409.746094 559.933594 411.460938 561.078125 412.273438 C 561.460938 412.542969 562.035156 412.695312 562.359375 412.609375 C 562.683594 412.527344 563.257812 412.457031 563.636719 412.453125 Z M 563.636719 412.453125 " fill-opacity="1" fill-rule="nonzero"/></g><g transform="matrix(1, 0, 0, 1, 115, 255)"><g clip-path="url(#cf960f3c9a)"><g fill="#000000" fill-opacity="1"><g transform="translate(1.064645, 240.646033)"><g><path d="M 106.109375 -74.859375 L 50.28125 -74.859375 L 37.296875 0 L 1.140625 0 L 32.890625 -183.484375 L 131.6875 -183.484375 L 126.28125 -152.609375 L 63.765625 -152.609375 L 55.578125 -105.609375 L 111.53125 -105.609375 Z M 106.109375 -74.859375 "/></g></g></g><g fill="#000000" fill-opacity="1"><g transform="translate(95.199494, 240.646033)"><g><path d="M 92.25 -183.484375 L 128.421875 -183.484375 L 106.734375 -56.453125 C 104.304688 -38.640625 97.671875 -24.25 86.828125 -13.28125 C 75.992188 -2.320312 62.71875 2.984375 47 2.640625 C 31.800781 2.304688 20.289062 -2.960938 12.46875 -13.171875 C 4.65625 -23.378906 1.210938 -37.09375 2.140625 -54.3125 L 38.6875 -54.1875 L 38.4375 -46.25 C 38.269531 -40.789062 39.191406 -36.421875 41.203125 -33.140625 C 43.222656 -29.867188 46.289062 -28.191406 50.40625 -28.109375 C 60.320312 -27.847656 66.875 -35.992188 70.0625 -52.546875 Z M 92.25 -183.484375 "/></g></g></g><g fill="#000000" fill-opacity="1"><g transform="translate(219.201371, 240.646033)"><g><path d="M 67.421875 -67.046875 L 49.015625 -67.046875 L 37.421875 0 L 1.265625 0 L 33.015625 -183.484375 L 88.46875 -183.359375 C 104.851562 -182.859375 117.410156 -177.816406 126.140625 -168.234375 C 134.878906 -158.660156 138.578125 -145.597656 137.234375 -129.046875 C 135.140625 -103.921875 123.710938 -86.445312 102.953125 -76.625 L 121.359375 -2.015625 L 121.359375 0 L 82.546875 0 Z M 54.3125 -97.921875 L 73.34375 -97.671875 C 82.082031 -97.835938 88.972656 -101.300781 94.015625 -108.0625 C 99.054688 -114.820312 101.535156 -123.789062 101.453125 -134.96875 C 101.109375 -145.976562 96.273438 -151.816406 86.953125 -152.484375 L 63.890625 -152.609375 Z M 54.3125 -97.921875 "/></g></g></g></g></g></svg>